<svg version="1.1" id="Layer_1" xmlns="http://www.w3.org/2000/svg" xmlns:xlink="http://www.w3.org/1999/xlink" x="0px" y="0px"
	 width="100%" viewBox="0 0 1920 1080" enable-background="new 0 0 1920 1080" xml:space="preserve">
<path fill="#000000" opacity="1.000000" stroke="none" 
	d="
M1373.000000,1081.000000 
	C915.333435,1081.000000 458.166840,1081.000000 1.000184,1081.000000 
	C1.000123,721.000122 1.000123,361.000305 1.000061,1.000329 
	C640.999756,1.000219 1280.999512,1.000219 1920.999512,1.000110 
	C1920.999634,360.999664 1920.999634,720.999329 1920.999756,1080.999512 
	C1738.500000,1081.000000 1556.000000,1081.000000 1373.000000,1081.000000 
M1035.958862,576.500000 
	C1035.958618,565.835510 1035.958130,555.171021 1035.958252,544.506531 
	C1035.958862,509.346497 1035.938599,474.186462 1035.985474,439.026489 
	C1035.991821,434.252930 1035.078491,430.251678 1030.405518,427.699219 
	C1018.869995,421.398438 1007.470642,414.848999 995.973450,408.477203 
	C987.641296,403.859497 985.902893,404.884552 985.902344,414.198029 
	C985.900574,445.692078 985.931519,477.186218 985.831360,508.679993 
	C985.825012,510.692261 985.278320,514.011963 984.159424,514.410278 
	C982.401062,515.036194 979.762512,514.058411 977.816895,513.105713 
	C973.940735,511.207611 970.181641,509.019745 966.561523,506.663696 
	C962.768372,504.195007 959.001343,504.199646 955.275269,506.337677 
	C933.630249,518.757385 912.049011,531.288269 890.398499,543.698242 
	C886.820435,545.749146 885.121338,548.766296 885.111511,552.668152 
	C885.048706,577.496643 885.051697,602.325378 885.102539,627.153870 
	C885.111328,631.427856 886.906921,634.694946 890.819153,636.936646 
	C912.182861,649.178528 933.479553,661.537292 954.797974,673.858093 
	C958.699585,676.112915 962.349182,676.225281 966.464050,673.807678 
	C987.405945,661.504211 1008.437744,649.351807 1029.532227,637.311279 
	C1034.108398,634.699219 1036.078613,631.243530 1036.022827,625.990173 
	C1035.851440,609.828369 1035.959473,593.663635 1035.958862,576.500000 
M709.552429,646.925232 
	C723.963196,655.239380 738.427185,663.463318 752.753418,671.920654 
	C757.273621,674.589233 761.199036,674.601440 765.774536,671.920410 
	C786.586975,659.724731 807.495483,647.690979 828.468933,635.774048 
	C832.744141,633.344910 834.664673,630.075073 834.657349,625.292542 
	C834.619751,600.807312 834.641541,576.321960 834.640137,551.836670 
	C834.639893,547.326050 832.942566,544.073792 828.759338,541.710266 
	C807.322571,529.598328 785.978943,517.320129 764.686523,504.955902 
	C760.773132,502.683411 757.388794,502.689789 753.505432,504.949921 
	C732.225342,517.335266 710.885620,529.618652 689.518860,541.854065 
	C685.835449,543.963257 683.960510,546.787964 683.970947,551.101562 
	C684.031372,576.086426 684.028687,601.071533 683.971252,626.056396 
	C683.961365,630.346619 685.732666,633.266113 689.465515,635.338440 
	C696.009949,638.971680 702.445251,642.801636 709.552429,646.925232 
M532.961487,587.520264 
	C532.961609,585.353760 533.158813,583.165588 532.922913,581.025085 
	C532.334839,575.689331 534.489136,572.194824 539.278259,569.810120 
	C543.738281,567.589355 547.922852,564.821350 552.278625,562.383728 
	C556.243347,560.165039 560.159973,560.305725 564.094055,562.689636 
	C568.219727,565.189636 572.448547,567.520874 576.653992,569.887268 
	C580.923279,572.289673 583.125244,575.636108 583.053284,580.805725 
	C582.849121,595.468140 583.080200,610.136230 582.925171,624.799805 
	C582.876038,629.450073 584.384399,632.596680 588.597107,634.933105 
	C600.235718,641.387817 611.645935,648.253906 623.270752,654.734436 
	C625.414368,655.929504 628.693054,657.220215 630.433533,656.375854 
	C632.008972,655.611572 632.884705,651.994995 632.896545,649.630249 
	C633.058960,617.134216 632.905701,584.636353 633.134399,552.141113 
	C633.173950,546.512573 630.967529,543.242188 626.302063,540.589722 
	C605.762878,528.912781 585.266968,517.155762 564.909302,505.166382 
	C559.978577,502.262451 555.652954,502.307526 550.896423,505.073792 
	C530.185730,517.118469 509.482208,529.177246 488.661194,541.029053 
	C484.521545,543.385437 482.828278,546.349854 482.845917,551.061707 
	C482.970551,584.391357 482.917389,617.721558 482.946106,651.051636 
	C482.951508,657.344666 485.505219,658.801697 490.978119,655.667419 
	C502.962524,648.804138 514.897034,641.852966 526.918274,635.054871 
	C531.118042,632.679993 533.066895,629.380981 533.008240,624.509521 
	C532.863831,612.512390 532.961182,600.512451 532.961487,587.520264 
M1135.108643,592.434753 
	C1135.108643,588.437012 1135.334595,584.422791 1135.045898,580.446045 
	C1134.749756,576.366699 1136.542480,573.923340 1139.931274,572.036011 
	C1145.450806,568.961975 1150.684448,565.319336 1156.381348,562.646851 
	C1158.683716,561.566833 1162.324707,561.481628 1164.595825,562.554382 
	C1170.587036,565.384338 1176.350830,568.823364 1181.801758,572.601807 
	C1183.768311,573.964966 1185.477783,576.885803 1185.745361,579.270691 
	C1186.335815,584.535095 1185.792969,589.915771 1185.984009,595.239258 
	C1186.142578,599.657104 1188.847290,601.077576 1192.694702,598.852417 
	C1205.651489,591.359070 1218.675049,583.968750 1231.388672,576.080566 
	C1233.626831,574.691833 1235.467651,571.216309 1235.796631,568.499268 
	C1236.472534,562.917725 1236.533569,557.126099 1235.790894,551.561951 
	C1235.381836,548.496948 1233.574219,544.478210 1231.124634,543.004578 
	C1209.751831,530.147095 1188.187134,517.595703 1166.396484,505.461456 
	C1163.618164,503.914307 1158.481323,503.964111 1155.679810,505.516571 
	C1134.300537,517.363586 1113.253418,529.808594 1092.043457,541.963928 
	C1087.695312,544.455872 1085.828125,547.731140 1085.882446,552.885498 
	C1086.106934,574.203979 1085.898682,595.526550 1086.000366,616.846924 
	C1086.085693,634.732300 1083.841064,631.477417 1099.468994,640.303223 
	C1099.902588,640.548157 1100.284790,640.884277 1100.717773,641.130737 
	C1118.784302,651.415894 1136.867432,661.671692 1154.910278,671.998047 
	C1158.141357,673.847290 1161.373657,674.791931 1164.815552,672.883423 
	C1178.050537,665.544617 1191.296143,658.222839 1204.438232,650.720581 
	C1208.068237,648.648499 1207.933594,645.746948 1204.495850,643.231079 
	C1203.558228,642.544800 1202.555420,641.939453 1201.545288,641.361755 
	C1182.344971,630.380432 1163.270752,619.167969 1143.860596,608.570862 
	C1137.399414,605.043335 1133.582886,601.038330 1135.108643,592.434753 
M1138.722046,243.499863 
	C1138.722046,264.907166 1138.722046,286.314453 1138.722046,307.792816 
	C1153.711914,307.792816 1168.130859,307.792816 1183.152588,307.792816 
	C1183.152588,290.816956 1183.152588,274.039001 1183.152588,255.880783 
	C1192.509399,272.923279 1201.212280,288.595184 1209.689819,304.387970 
	C1211.141357,307.091888 1212.670288,308.136292 1215.780762,308.081299 
	C1227.269653,307.878113 1238.764282,308.000488 1250.256836,308.000488 
	C1253.843384,308.000488 1257.429932,308.000488 1260.739746,308.000488 
	C1260.739746,267.917877 1260.739746,228.533218 1260.739746,189.274780 
	C1245.985840,189.274780 1231.570679,189.274780 1216.669678,189.274780 
	C1216.669678,206.333878 1216.669678,223.122238 1216.669678,241.177002 
	C1207.317627,224.114304 1198.554810,208.277283 1189.984619,192.336685 
	C1188.606934,189.774155 1187.079346,188.836166 1184.191650,188.929031 
	C1177.369873,189.148468 1170.536255,188.999481 1163.707397,188.999481 
	C1155.431030,188.999481 1147.154785,188.999481 1138.722046,188.999481 
	C1138.722046,207.212585 1138.722046,224.856216 1138.722046,243.499863 
M1281.324585,284.499756 
	C1281.324585,292.265381 1281.324585,300.030975 1281.324585,308.867737 
	C1303.517700,308.867737 1325.166016,309.652161 1346.723999,308.593750 
	C1361.253296,307.880402 1374.839844,302.330200 1384.884888,291.173706 
	C1402.810913,271.264221 1404.304810,247.845139 1396.040283,223.850800 
	C1388.013428,200.546143 1368.845215,190.138657 1345.681396,188.388855 
	C1326.668335,186.952606 1307.439209,188.354263 1288.306519,188.550812 
	C1286.048950,188.574005 1283.794800,188.931274 1281.324585,189.152924 
	C1281.324585,220.900375 1281.324585,252.200073 1281.324585,284.499756 
M588.533508,188.000824 
	C567.454041,188.000824 546.374634,188.000824 525.262817,188.000824 
	C525.262817,228.862152 525.262817,268.405731 525.262817,308.576874 
	C544.026855,308.962463 562.505676,309.741211 580.976868,309.588989 
	C594.495361,309.477600 607.940308,307.749359 619.805603,300.309265 
	C639.412903,288.014679 638.484985,260.987091 618.063904,250.089615 
	C614.583008,248.232086 610.748779,247.036743 606.790527,245.417999 
	C608.648010,244.669128 610.321289,244.012711 611.980530,243.322678 
	C621.446228,239.386017 627.860657,232.878311 628.590637,222.230896 
	C629.323059,211.547363 624.778320,203.167145 616.088562,197.094330 
	C608.105347,191.515259 598.896362,189.354904 588.533508,188.000824 
M944.959351,285.500000 
	C944.959351,277.841644 944.959351,270.183289 944.959351,262.524933 
	C951.283386,273.291931 957.544678,283.786804 961.848267,295.030945 
	C965.900452,305.618011 971.842957,309.458801 983.216919,308.274536 
	C994.994446,307.048248 1006.998962,308.001617 1019.733276,308.001617 
	C1011.351257,294.015137 1003.422241,280.804504 995.514648,267.581085 
	C991.760132,261.302643 985.195618,255.041046 985.103882,248.696625 
	C985.009338,242.156860 991.182007,235.496826 994.707703,228.940582 
	C1001.769165,215.809464 1008.895508,202.713211 1016.207458,189.210236 
	C998.906860,189.210236 982.156372,189.210236 965.191467,189.210236 
	C958.734253,204.211807 952.236084,219.308487 945.737976,234.405182 
	C945.419556,234.311386 945.101135,234.217575 944.782715,234.123779 
	C944.782715,219.187393 944.782715,204.251007 944.782715,189.346222 
	C929.910217,189.346222 915.363708,189.346222 900.888428,189.346222 
	C900.888428,228.979996 900.888428,268.265717 900.888428,307.711060 
	C915.609924,307.711060 930.161865,307.711060 944.959351,307.711060 
	C944.959351,300.448792 944.959351,293.474365 944.959351,285.500000 
M668.541138,211.921249 
	C659.213745,243.772995 649.886414,275.624756 640.464844,307.798157 
	C657.215271,307.798157 673.463806,307.798157 689.770569,307.798157 
	C690.947449,302.168915 692.092041,296.694275 693.252502,291.143555 
	C700.632324,291.143555 707.758789,291.143555 715.145691,291.143555 
	C716.310913,296.709534 717.459778,302.196960 718.634888,307.810211 
	C735.134155,307.810211 751.382324,307.810211 767.937805,307.810211 
	C756.292236,268.075348 744.720337,228.591949 733.155579,189.132843 
	C713.660583,189.132843 694.534668,189.132843 675.200256,189.132843 
	C673.059692,196.520981 670.938599,203.841934 668.541138,211.921249 
M1115.842163,231.606583 
	C1101.438110,231.606583 1087.034058,231.606583 1072.692383,231.606583 
	C1072.692383,228.173111 1072.692383,225.746887 1072.692383,222.937073 
	C1088.514038,222.937073 1104.095459,222.937073 1119.778809,222.937073 
	C1119.778809,211.474808 1119.778809,200.407944 1119.778809,189.270355 
	C1089.176758,189.270355 1058.800049,189.270355 1028.366943,189.270355 
	C1028.366943,228.921646 1028.366943,268.298706 1028.366943,307.667053 
	C1060.151245,307.667053 1091.670410,307.667053 1123.092773,307.667053 
	C1123.092773,296.276459 1123.092773,285.225555 1123.092773,273.737366 
	C1106.020752,273.737366 1089.300293,273.737366 1072.760986,273.737366 
	C1072.760986,270.856873 1072.760986,268.427887 1072.760986,265.521973 
	C1087.475098,265.521973 1101.884155,265.521973 1116.523560,265.521973 
	C1116.523560,254.083084 1116.523560,243.138992 1115.842163,231.606583 
M881.092773,282.344513 
	C876.322815,274.795135 871.552856,267.245728 867.492310,260.819092 
	C860.370361,263.599915 854.133545,266.939728 847.484070,268.399323 
	C839.423096,270.168762 832.144714,267.187073 827.591736,260.019684 
	C822.815857,252.501358 822.822205,244.406204 827.652466,236.904755 
	C832.251831,229.761887 839.531250,226.824142 847.585571,228.624786 
	C854.230591,230.110321 860.460388,233.452927 867.485779,236.212860 
	C873.581299,226.549377 880.352600,215.814438 887.042847,205.208008 
	C863.384705,180.278870 818.049377,180.344879 794.100037,204.901657 
	C769.871033,229.745026 770.987732,270.836853 796.164001,294.117004 
	C824.006226,319.862274 869.203247,312.395905 886.944031,291.643127 
	C885.159485,288.802551 883.322876,285.879150 881.092773,282.344513 
M1287.347046,630.763611 
	C1295.681152,640.128235 1306.519043,645.737976 1318.204712,648.929688 
	C1331.843140,652.654785 1341.591309,645.426819 1342.026978,631.303040 
	C1342.760986,607.501526 1342.469727,583.668518 1342.620605,559.848755 
	C1342.657227,554.077698 1338.287476,556.275513 1335.401489,555.854187 
	C1332.055298,555.365784 1330.738525,556.616699 1330.763306,560.247498 
	C1330.914185,582.411377 1330.885376,604.576782 1330.817017,626.741455 
	C1330.785522,636.958130 1324.281860,640.844666 1315.191772,636.045593 
	C1310.192261,633.406250 1305.235840,630.605774 1300.615112,627.370667 
	C1298.933838,626.193604 1297.328735,623.554565 1297.308105,621.565796 
	C1297.076904,599.236694 1297.213623,576.904114 1297.101074,554.573181 
	C1297.085815,551.537476 1298.026733,549.728027 1300.696655,548.205200 
	C1320.360718,536.990234 1339.914307,525.580994 1359.618286,514.437073 
	C1361.095581,513.601562 1363.875000,513.627441 1365.362061,514.468018 
	C1385.068604,525.607361 1404.631714,537.000183 1424.290405,548.224854 
	C1426.930176,549.732117 1427.920288,551.546997 1427.903564,554.610596 
	C1427.781860,576.774780 1427.762451,598.940430 1427.916382,621.104187 
	C1427.940674,624.612000 1426.670776,626.471863 1423.707153,628.153137 
	C1405.611328,638.418823 1387.479736,648.636963 1369.680176,659.400452 
	C1364.222290,662.700745 1359.986816,663.215820 1355.047241,659.051819 
	C1352.662231,657.041321 1349.715942,655.659729 1346.918701,654.194397 
	C1345.849121,653.634094 1344.274292,653.093872 1343.294434,653.477112 
	C1339.781494,654.851135 1336.424805,656.624329 1332.150513,658.654297 
	C1340.032593,663.352234 1347.300659,667.623718 1354.505981,671.998474 
	C1359.877686,675.259888 1365.079224,675.130188 1370.494263,671.984802 
	C1390.500366,660.363647 1410.528198,648.778198 1430.635132,637.332581 
	C1436.443970,634.026001 1439.127197,629.479553 1439.075928,622.724609 
	C1438.900024,599.561157 1438.907104,576.394836 1439.071411,553.231262 
	C1439.119385,546.475342 1436.382080,542.003296 1430.556763,538.688904 
	C1411.170654,527.659058 1391.812012,516.571106 1372.675171,505.117462 
	C1365.555298,500.856018 1359.337524,500.821259 1352.215576,505.071136 
	C1333.350464,516.328552 1314.304932,527.291809 1295.160889,538.069519 
	C1288.615356,541.754517 1285.686035,546.694885 1285.759399,554.208435 
	C1285.979004,576.704407 1285.797363,599.204102 1285.890747,621.701782 
	C1285.902344,624.478821 1286.629883,627.252808 1287.347046,630.763611 
M1364.816284,621.865112 
	C1367.420166,622.406982 1370.000366,623.188049 1372.632202,623.449341 
	C1384.021851,624.580261 1395.363525,624.837646 1405.445190,618.153442 
	C1412.089233,613.748352 1414.247925,607.180359 1413.414307,599.462402 
	C1412.612305,592.037354 1408.018188,587.954529 1401.282227,585.836792 
	C1398.908936,585.090637 1396.501953,584.387756 1394.060425,583.933350 
	C1385.398804,582.321167 1376.671631,581.023926 1368.075806,579.124939 
	C1366.248169,578.721130 1363.659668,576.350830 1363.573120,574.768921 
	C1363.449585,572.506287 1364.698853,569.424255 1366.431396,567.942932 
	C1371.831055,563.325745 1389.760132,564.105530 1394.970947,568.798767 
	C1396.055420,569.775391 1397.361206,571.062317 1397.566895,572.364014 
	C1398.562500,578.666382 1403.055420,578.106018 1407.599854,578.066406 
	C1410.739624,578.039001 1411.276367,576.478699 1410.864746,573.930298 
	C1409.741821,566.976868 1406.733887,561.003479 1400.148071,558.029724 
	C1387.057617,552.118958 1373.638184,551.862488 1360.552246,557.980530 
	C1352.922363,561.547668 1350.151978,568.215149 1350.801880,576.537170 
	C1351.427856,584.551453 1356.354858,588.667725 1363.368042,590.880127 
	C1366.521484,591.874878 1369.826538,592.433228 1373.094116,593.013245 
	C1380.615723,594.348511 1388.228882,595.272583 1395.642578,597.043396 
	C1397.694824,597.533569 1400.522949,600.359131 1400.593384,602.204773 
	C1400.689819,604.738770 1398.742432,607.522644 1397.177002,609.870178 
	C1396.472290,610.926880 1394.581543,611.704224 1393.215942,611.724182 
	C1385.289185,611.840149 1377.283447,612.294861 1369.467896,611.322388 
	C1366.560547,610.960693 1362.600342,607.496704 1361.753174,604.660767 
	C1360.212891,599.504517 1357.690430,598.469788 1352.897583,598.706482 
	C1348.977661,598.900024 1348.065918,600.233093 1348.565430,603.890137 
	C1349.849243,613.288391 1355.576660,618.613708 1364.816284,621.865112 
M1146.366699,592.164062 
	C1146.805786,594.016418 1146.633057,596.774475 1147.793823,597.558716 
	C1152.007446,600.405701 1156.688477,604.529358 1161.154175,604.482178 
	C1165.637573,604.434814 1170.424316,600.414185 1174.349976,597.235596 
	C1175.803955,596.058350 1175.059448,592.299866 1175.540405,589.760803 
	C1176.839233,582.902832 1174.311035,578.352600 1167.728760,575.922424 
	C1166.044556,575.300598 1164.622559,573.996704 1162.968506,573.254700 
	C1162.026855,572.832214 1160.740112,572.533020 1159.812134,572.824829 
	C1149.705566,576.002075 1146.364990,580.653137 1146.366699,592.164062 
M738.029053,813.220398 
	C739.019104,814.339844 740.991028,815.614075 740.842773,816.553955 
	C739.721375,823.666199 744.229675,831.542603 738.068848,837.993103 
	C737.781860,838.293579 738.093262,839.165527 738.128113,839.811707 
	C742.048340,839.811707 745.658813,839.811707 750.892090,839.811707 
	C743.660278,834.184265 746.484009,827.615540 746.403076,821.422852 
	C749.080261,825.404785 751.226135,829.507690 753.498718,833.539246 
	C755.832947,837.680176 757.754272,837.697205 760.052673,833.615662 
	C762.276733,829.666077 764.389282,825.653564 766.550720,821.668640 
	C766.828857,821.772400 767.106934,821.876160 767.385010,821.979980 
	C767.385010,826.388000 767.385010,830.796021 767.385010,834.929382 
	C766.066406,836.264282 764.774231,837.572510 762.620361,839.753052 
	C767.952942,839.753052 771.700684,839.753052 775.579407,839.753052 
	C770.979492,830.174866 771.041992,820.837097 775.474854,811.541382 
	C769.662903,809.783936 765.924988,811.271240 763.655579,817.040527 
	C761.939941,821.401855 759.226868,825.370789 756.744141,829.904419 
	C753.721863,824.299438 751.067383,819.321167 748.359253,814.372131 
	C746.203735,810.432800 742.280640,809.687134 738.029053,813.220398 
M828.675720,828.128723 
	C827.808960,827.943359 826.578430,828.060181 826.133606,827.524536 
	C822.840759,823.558960 819.424622,819.647705 816.599304,815.355957 
	C813.899902,811.255371 810.630188,810.010315 806.016968,811.497803 
	C810.649963,820.869202 810.627014,830.255371 805.975464,839.702637 
	C809.965454,839.702637 813.688354,839.702637 818.712158,839.702637 
	C811.897644,834.244629 814.127991,827.886230 814.208862,820.651978 
	C819.093689,826.869690 823.142456,832.285645 827.515991,837.425171 
	C828.774780,838.904419 830.969421,839.587341 833.661682,841.185364 
	C833.661682,837.182129 833.482117,834.691284 833.696045,832.234619 
	C834.282227,825.502014 831.607483,818.290527 836.533691,812.159790 
	C836.616577,812.056641 836.294373,811.627991 836.091187,811.205566 
	C832.533875,811.205566 828.925415,811.205566 823.509949,811.205566 
	C825.893433,813.572998 827.261902,814.932251 828.707092,816.367676 
	C828.707092,819.862976 828.707092,823.525208 828.675720,828.128723 
M919.834717,828.435974 
	C919.026184,832.206604 918.217590,835.977173 917.391968,839.827393 
	C920.766724,839.827393 924.349243,839.827393 928.055542,839.827393 
	C926.878357,836.304504 925.746521,832.917236 924.474792,829.111389 
	C930.414429,828.512756 931.088379,832.635437 932.554199,835.145264 
	C935.001709,839.336182 937.899719,841.223389 943.252014,839.402222 
	C939.975952,835.496033 936.783325,831.689392 933.492676,827.765808 
	C938.209167,825.346191 940.389771,822.130676 939.237183,817.353455 
	C938.030823,812.353027 934.005432,811.274414 929.661255,811.086243 
	C925.418274,810.902405 921.161072,811.046204 916.365540,811.046204 
	C917.732971,813.979370 919.276306,816.143372 919.708557,818.510315 
	C920.237244,821.405273 919.834595,824.470276 919.834717,828.435974 
M1141.098022,840.250916 
	C1149.591431,838.972473 1154.394165,833.688354 1154.420532,825.593140 
	C1154.444946,818.085205 1149.608765,812.053833 1142.703003,810.979675 
	C1134.469116,809.698975 1127.642944,813.638550 1125.591553,821.165405 
	C1122.467285,832.629333 1131.219727,841.329895 1141.098022,840.250916 
M951.815979,825.528687 
	C952.459534,835.114258 958.066528,840.566956 967.013611,840.308289 
	C975.238892,840.070435 980.987732,834.214050 981.124146,825.933655 
	C981.263123,817.496826 975.812866,811.314819 967.806274,810.827515 
	C958.637451,810.269592 952.787170,815.370667 951.815979,825.528687 
M1030.507568,822.579834 
	C1030.219360,828.349426 1032.156006,834.494446 1026.433105,839.710693 
	C1034.705200,839.710693 1041.764038,839.710693 1048.502930,839.710693 
	C1048.502930,837.022949 1048.502930,834.657410 1048.502930,832.936218 
	C1044.453857,834.166321 1040.605103,835.335571 1036.376587,836.620239 
	C1036.376587,832.862854 1036.376587,830.320801 1036.376587,827.472168 
	C1039.691528,827.472168 1042.650269,827.472168 1045.894165,827.472168 
	C1045.793945,825.910767 1045.715332,824.684998 1045.617432,823.156860 
	C1042.299683,823.156860 1039.365234,823.156860 1036.262085,823.156860 
	C1036.262085,820.405396 1036.262085,817.989258 1036.262085,814.270935 
	C1040.805420,815.756409 1044.738770,817.042419 1048.623779,818.312622 
	C1048.623779,816.026611 1048.623779,813.641052 1048.623779,811.325134 
	C1041.398926,811.325134 1034.498047,811.325134 1027.977661,811.325134 
	C1028.860229,814.914673 1029.683960,818.264282 1030.507568,822.579834 
M1163.698975,836.214722 
	C1163.921875,837.126221 1163.837769,838.424683 1164.418213,838.885437 
	C1167.777832,841.551697 1177.343262,840.509888 1180.295166,837.316711 
	C1184.583008,832.678589 1183.301147,826.486694 1177.461060,823.889832 
	C1175.649170,823.084229 1173.587524,822.741028 1171.933838,821.713623 
	C1170.840576,821.034363 1169.410156,819.242065 1169.665283,818.431274 
	C1170.062012,817.171509 1171.634766,815.714600 1172.943115,815.434387 
	C1175.252808,814.939758 1178.019287,814.487793 1178.771729,818.172363 
	C1178.940308,818.997620 1180.312744,819.577148 1181.821899,820.854797 
	C1181.821899,817.238403 1181.821899,814.792969 1181.821899,811.607727 
	C1178.293213,811.385925 1174.838989,810.752563 1171.472290,811.064514 
	C1167.447021,811.437622 1164.797241,814.120789 1164.248047,818.174255 
	C1163.688477,822.304871 1165.695435,825.192017 1169.605225,826.670898 
	C1171.461670,827.373047 1173.528198,827.710144 1175.159912,828.747070 
	C1176.198486,829.406921 1177.224243,831.094299 1177.137573,832.236206 
	C1177.049805,833.392944 1175.683472,835.272461 1174.706299,835.387756 
	C1171.803833,835.730164 1167.876465,837.922058 1166.858521,832.509399 
	C1166.741089,831.884888 1165.304565,831.508423 1163.976807,830.717468 
	C1163.851807,832.836731 1163.775391,834.132263 1163.698975,836.214722 
M892.580078,834.076721 
	C892.580078,832.804199 892.580078,831.531738 892.580078,830.107544 
	C894.841125,829.977356 896.665100,830.008179 898.445557,829.744812 
	C904.208191,828.892456 907.282227,825.456482 907.204529,820.121704 
	C907.128052,814.873169 903.844604,811.493896 897.913208,811.133057 
	C893.338013,810.854797 888.732300,811.077637 883.893982,811.077637 
	C888.587463,820.910583 888.621399,830.280884 883.977844,839.746399 
	C888.019104,839.746399 891.770630,839.746399 896.888306,839.746399 
	C894.961182,837.585876 893.792786,836.275940 892.580078,834.076721 
M1063.957275,824.695496 
	C1064.401978,819.915649 1066.566406,816.831970 1071.549683,815.546936 
	C1076.360718,814.306396 1078.527466,818.149292 1081.647949,820.916687 
	C1082.866821,812.168457 1082.236206,811.355469 1074.546387,810.881287 
	C1073.063110,810.789917 1071.545288,810.802185 1070.076782,811.006958 
	C1063.959473,811.859924 1059.233276,816.908630 1058.302246,823.460571 
	C1057.323364,830.349548 1060.863892,836.973877 1066.798462,839.357483 
	C1072.564941,841.673523 1078.726929,840.190308 1083.189697,834.564270 
	C1081.050903,834.349060 1079.387085,833.657532 1078.220581,834.148376 
	C1069.908203,837.645996 1064.818726,834.650085 1063.957275,824.695496 
M1009.713867,824.423340 
	C1012.573792,820.130798 1015.433777,815.838318 1018.436401,811.331665 
	C1014.134033,811.331665 1010.741028,811.331665 1008.878906,811.331665 
	C1007.548828,816.019348 1006.419006,820.001282 1005.289124,823.983276 
	C1004.580994,823.974487 1003.872803,823.965698 1003.164612,823.956909 
	C1002.071045,819.770813 1000.977539,815.584656 999.850586,811.270752 
	C997.251221,811.270752 993.836548,811.270752 990.185730,811.270752 
	C990.367676,812.352905 990.249084,813.326111 990.672729,813.896606 
	C993.543457,817.762390 996.766724,821.386292 999.409729,825.395874 
	C1002.028381,829.368408 1003.526245,833.637878 998.796631,837.472107 
	C998.388916,837.802673 998.611206,838.910461 998.522278,839.854492 
	C1002.501892,839.854492 1006.109802,839.854492 1011.451233,839.854492 
	C1006.180603,834.916077 1005.505310,830.045166 1009.713867,824.423340 
M1101.076904,824.507080 
	C1100.472412,829.595581 1099.867798,834.684082 1099.272583,839.693848 
	C1102.269653,839.693848 1105.993042,839.693848 1110.579224,839.693848 
	C1103.855469,832.101501 1108.008789,823.810608 1106.517334,814.889526 
	C1110.249146,816.141907 1112.914062,817.036255 1115.804199,818.006226 
	C1115.804199,815.590088 1115.804199,813.502686 1115.804199,811.208862 
	C1107.836792,811.208862 1100.065186,811.208862 1092.192627,811.208862 
	C1092.192627,813.427551 1092.192627,815.632019 1092.192627,817.938293 
	C1095.105347,816.971619 1097.769043,816.087585 1101.076904,814.989746 
	C1101.076904,818.578979 1101.076904,821.052734 1101.076904,824.507080 
M854.722473,815.222595 
	C855.708313,814.186890 856.694153,813.151245 858.499268,811.254822 
	C853.194031,811.254822 849.613464,811.254822 845.623596,811.254822 
	C850.757874,820.885315 850.155212,830.360046 845.955322,839.703491 
	C850.002563,839.703491 853.582092,839.703491 856.054871,839.703491 
	C855.423035,834.464600 854.700989,829.473816 854.263062,824.458313 
	C854.018250,821.654419 854.244751,818.809448 854.722473,815.222595 
M791.362427,811.002197 
	C789.281128,811.002197 787.199890,811.002197 784.845642,811.002197 
	C789.607727,820.934448 789.552429,830.284119 784.996155,839.790894 
	C788.958069,839.790894 792.711548,839.790894 796.657471,839.790894 
	C792.149902,830.261414 792.024353,820.974304 796.696228,811.265747 
	C795.108643,811.171387 793.684998,811.086792 791.362427,811.002197 
M883.178528,916.538086 
	C883.703674,918.007324 883.843445,920.366943 884.821228,920.790039 
	C888.826965,922.523376 893.043457,920.637695 894.389404,917.033813 
	C896.023499,912.658203 892.828308,911.648743 889.856201,910.286438 
	C888.811829,909.807739 887.692993,908.708069 887.405457,907.670837 
	C887.246155,907.096252 888.656738,905.491455 889.499146,905.376953 
	C890.692810,905.214905 892.072083,905.878418 893.256348,906.435242 
	C893.783630,906.683044 894.028809,907.531067 894.622070,908.446289 
	C896.309448,905.204163 896.357910,903.264038 892.521240,902.941528 
	C889.075867,902.651855 886.046448,903.226013 884.959290,906.988159 
	C883.813354,910.953308 886.609497,912.089905 889.636719,913.247314 
	C890.668457,913.641785 892.018127,915.534363 891.789185,916.329468 
	C891.477112,917.412781 889.606934,918.964783 888.733887,918.778015 
	C886.919861,918.389954 885.322327,916.989868 883.178528,916.538086 
M971.524841,905.085938 
	C971.723572,907.372620 971.400146,908.498352 968.399963,908.159180 
	C964.389404,907.705688 961.370361,910.974609 961.705505,915.503845 
	C961.849854,917.454285 963.535400,920.399658 965.129395,920.881958 
	C967.721069,921.666260 970.812927,920.797485 972.755249,920.682129 
	C973.260437,914.697998 973.756714,908.819763 974.252930,902.941528 
	C973.811707,902.650269 973.370483,902.358948 972.929260,902.067688 
	C972.279663,902.851257 971.630066,903.634766 971.524841,905.085938 
M1021.646118,908.469421 
	C1020.207275,908.513489 1018.029114,907.982971 1017.466064,908.707520 
	C1015.662415,911.028625 1013.977722,913.689270 1013.247925,916.480469 
	C1012.941223,917.653320 1014.949646,920.537659 1016.245972,920.773560 
	C1018.383301,921.162598 1020.797180,920.032227 1023.094543,919.542236 
	C1022.999634,919.065735 1022.904724,918.589233 1022.809814,918.112732 
	C1020.482971,917.545166 1016.695435,921.650330 1015.661499,916.341736 
	C1018.075439,913.729553 1025.808105,916.247864 1021.646118,908.469421 
M905.270874,919.041504 
	C904.513611,918.222839 903.756348,917.404175 902.619629,916.175293 
	C905.343872,915.332336 907.336365,914.993530 909.023071,914.086243 
	C909.985718,913.568420 910.880676,912.169922 910.997070,911.081360 
	C911.084412,910.264282 910.068359,908.827454 909.221558,908.500427 
	C905.809692,907.182983 903.381775,908.877808 901.888855,911.816162 
	C900.376709,914.792480 899.891357,917.972778 902.855103,920.423157 
	C905.031860,922.222900 908.323730,921.111145 910.548767,917.872803 
	C908.878296,918.335327 907.500122,918.716919 905.270874,919.041504 
M992.154663,916.538330 
	C993.361328,912.771118 992.998840,909.528442 988.693542,908.180054 
	C985.223083,907.093018 981.168213,909.552002 980.781555,913.599304 
	C980.561401,915.903564 981.662231,919.587524 983.361328,920.555237 
	C986.682251,922.446411 990.051331,920.926636 992.154663,916.538330 
M936.189636,910.293823 
	C936.513062,909.790161 936.836487,909.286560 937.159973,908.782959 
	C935.424316,908.571472 933.688660,908.359985 931.996887,908.153809 
	C933.666809,912.976685 935.078308,917.053345 937.016846,922.651917 
	C940.295715,917.257141 942.895508,912.979675 945.654236,908.440674 
	C943.943604,908.440674 942.241882,908.440674 941.488892,908.440674 
	C940.348328,911.453857 939.358398,914.068970 938.368530,916.684082 
	C938.012390,916.559998 937.656250,916.435913 937.300110,916.311768 
	C936.861389,914.542297 936.422668,912.772827 936.189636,910.293823 
M1038.417480,910.305603 
	C1036.916260,909.567322 1035.294067,908.078247 1033.946899,908.295471 
	C1032.511353,908.526978 1030.094116,911.162720 1030.239258,911.390930 
	C1031.676514,913.649536 1033.556885,915.625977 1036.173950,918.692444 
	C1033.642700,918.555237 1031.643921,918.446899 1029.172729,918.312927 
	C1029.446411,918.888855 1030.109131,920.897705 1030.422119,920.844543 
	C1032.860107,920.431091 1036.399536,920.368591 1037.406372,918.794922 
	C1040.617432,913.776917 1033.688599,914.451965 1031.945190,910.417114 
	C1034.579590,910.669617 1036.428711,910.846802 1038.417480,910.305603 
M917.947693,915.967590 
	C917.818420,917.620667 917.689148,919.273743 917.559875,920.926880 
	C918.158875,921.016479 918.757812,921.106079 919.356812,921.195679 
	C919.832336,918.750183 919.757324,915.986450 920.935730,913.947144 
	C922.155457,911.836060 924.591309,910.427673 926.653870,908.568970 
	C923.283997,908.568970 920.283691,908.568970 918.002930,908.568970 
	C918.002930,910.927368 918.002930,913.021484 917.947693,915.967590 
M1000.197876,921.026733 
	C1000.766724,919.611328 1001.270996,918.165588 1001.918579,916.787170 
	C1003.096558,914.279419 1004.359558,911.811584 1005.482605,909.538757 
	C1004.068115,909.229065 1001.529236,908.673218 999.247131,908.173645 
	C999.400330,910.713562 999.603882,912.660095 999.611816,914.607422 
	C999.620300,916.703857 999.445374,918.800964 1000.197876,921.026733 
M955.076904,919.333923 
	C955.076904,915.689880 955.076904,912.045837 955.076904,908.036438 
	C953.517090,908.258545 952.334717,908.426941 951.855774,908.495117 
	C951.855774,912.942322 951.855774,916.869263 951.855774,921.467712 
	C953.229492,920.893250 954.383301,920.410828 955.076904,919.333923 
z"/>
<path fill="#404137" opacity="1.000000" stroke="none" 
	d="
M1035.958984,577.000000 
	C1035.959473,593.663635 1035.851440,609.828369 1036.022827,625.990173 
	C1036.078613,631.243530 1034.108398,634.699219 1029.532227,637.311279 
	C1008.437744,649.351807 987.405945,661.504211 966.464050,673.807678 
	C962.349182,676.225281 958.699585,676.112915 954.797974,673.858093 
	C933.479553,661.537292 912.182861,649.178528 890.819153,636.936646 
	C886.906921,634.694946 885.111328,631.427856 885.102539,627.153870 
	C885.051697,602.325378 885.048706,577.496643 885.111511,552.668152 
	C885.121338,548.766296 886.820435,545.749146 890.398499,543.698242 
	C912.049011,531.288269 933.630249,518.757385 955.275269,506.337677 
	C959.001343,504.199646 962.768372,504.195007 966.561523,506.663696 
	C970.181641,509.019745 973.940735,511.207611 977.816895,513.105713 
	C979.762512,514.058411 982.401062,515.036194 984.159424,514.410278 
	C985.278320,514.011963 985.825012,510.692261 985.831360,508.679993 
	C985.931519,477.186218 985.900574,445.692078 985.902344,414.198029 
	C985.902893,404.884552 987.641296,403.859497 995.973450,408.477203 
	C1007.470642,414.848999 1018.869995,421.398438 1030.405518,427.699219 
	C1035.078491,430.251678 1035.991821,434.252930 1035.985474,439.026489 
	C1035.938599,474.186462 1035.958862,509.346497 1035.958252,544.506531 
	C1035.958130,555.171021 1035.958618,565.835510 1035.958984,577.000000 
M964.964905,616.479553 
	C970.558533,613.214600 976.273743,610.133789 981.671265,606.571716 
	C983.276550,605.512268 984.867065,603.144958 984.958374,601.302246 
	C985.328308,593.834839 985.325317,586.327942 984.960083,578.859985 
	C984.869568,577.007996 983.325806,574.588318 981.724426,573.564148 
	C975.995117,569.899841 970.077393,566.468323 963.960938,563.506409 
	C961.956970,562.535950 958.710266,562.410278 956.758179,563.372253 
	C950.515259,566.448486 944.475586,570.007935 938.663513,573.844299 
	C936.941711,574.980835 935.345825,577.593384 935.218262,579.625244 
	C934.791809,586.418884 934.728882,593.280212 935.234924,600.062866 
	C935.410828,602.419678 937.106323,605.428223 939.051453,606.742188 
	C944.539978,610.449646 950.663086,613.206604 956.244324,616.792480 
	C959.210449,618.698242 961.617188,618.825378 964.964905,616.479553 
z"/>
<path fill="#82CC29" opacity="1.000000" stroke="none" 
	d="
M709.239380,646.737183 
	C702.445251,642.801636 696.009949,638.971680 689.465515,635.338440 
	C685.732666,633.266113 683.961365,630.346619 683.971252,626.056396 
	C684.028687,601.071533 684.031372,576.086426 683.970947,551.101562 
	C683.960510,546.787964 685.835449,543.963257 689.518860,541.854065 
	C710.885620,529.618652 732.225342,517.335266 753.505432,504.949921 
	C757.388794,502.689789 760.773132,502.683411 764.686523,504.955902 
	C785.978943,517.320129 807.322571,529.598328 828.759338,541.710266 
	C832.942566,544.073792 834.639893,547.326050 834.640137,551.836670 
	C834.641541,576.321960 834.619751,600.807312 834.657349,625.292542 
	C834.664673,630.075073 832.744141,633.344910 828.468933,635.774048 
	C807.495483,647.690979 786.586975,659.724731 765.774536,671.920410 
	C761.199036,674.601440 757.273621,674.589233 752.753418,671.920654 
	C738.427185,663.463318 723.963196,655.239380 709.239380,646.737183 
z"/>
<path fill="#404137" opacity="1.000000" stroke="none" 
	d="
M532.961426,588.016968 
	C532.961182,600.512451 532.863831,612.512390 533.008240,624.509521 
	C533.066895,629.380981 531.118042,632.679993 526.918274,635.054871 
	C514.897034,641.852966 502.962524,648.804138 490.978119,655.667419 
	C485.505219,658.801697 482.951508,657.344666 482.946106,651.051636 
	C482.917389,617.721558 482.970551,584.391357 482.845917,551.061707 
	C482.828278,546.349854 484.521545,543.385437 488.661194,541.029053 
	C509.482208,529.177246 530.185730,517.118469 550.896423,505.073792 
	C555.652954,502.307526 559.978577,502.262451 564.909302,505.166382 
	C585.266968,517.155762 605.762878,528.912781 626.302063,540.589722 
	C630.967529,543.242188 633.173950,546.512573 633.134399,552.141113 
	C632.905701,584.636353 633.058960,617.134216 632.896545,649.630249 
	C632.884705,651.994995 632.008972,655.611572 630.433533,656.375854 
	C628.693054,657.220215 625.414368,655.929504 623.270752,654.734436 
	C611.645935,648.253906 600.235718,641.387817 588.597107,634.933105 
	C584.384399,632.596680 582.876038,629.450073 582.925171,624.799805 
	C583.080200,610.136230 582.849121,595.468140 583.053284,580.805725 
	C583.125244,575.636108 580.923279,572.289673 576.653992,569.887268 
	C572.448547,567.520874 568.219727,565.189636 564.094055,562.689636 
	C560.159973,560.305725 556.243347,560.165039 552.278625,562.383728 
	C547.922852,564.821350 543.738281,567.589355 539.278259,569.810120 
	C534.489136,572.194824 532.334839,575.689331 532.922913,581.025085 
	C533.158813,583.165588 532.961609,585.353760 532.961426,588.016968 
z"/>
<path fill="#404137" opacity="1.000000" stroke="none" 
	d="
M1135.108765,592.919678 
	C1133.582886,601.038330 1137.399414,605.043335 1143.860596,608.570862 
	C1163.270752,619.167969 1182.344971,630.380432 1201.545288,641.361755 
	C1202.555420,641.939453 1203.558228,642.544800 1204.495850,643.231079 
	C1207.933594,645.746948 1208.068237,648.648499 1204.438232,650.720581 
	C1191.296143,658.222839 1178.050537,665.544617 1164.815552,672.883423 
	C1161.373657,674.791931 1158.141357,673.847290 1154.910278,671.998047 
	C1136.867432,661.671692 1118.784302,651.415894 1100.717773,641.130737 
	C1100.284790,640.884277 1099.902588,640.548157 1099.468994,640.303223 
	C1083.841064,631.477417 1086.085693,634.732300 1086.000366,616.846924 
	C1085.898682,595.526550 1086.106934,574.203979 1085.882446,552.885498 
	C1085.828125,547.731140 1087.695312,544.455872 1092.043457,541.963928 
	C1113.253418,529.808594 1134.300537,517.363586 1155.679810,505.516571 
	C1158.481323,503.964111 1163.618164,503.914307 1166.396484,505.461456 
	C1188.187134,517.595703 1209.751831,530.147095 1231.124634,543.004578 
	C1233.574219,544.478210 1235.381836,548.496948 1235.790894,551.561951 
	C1236.533569,557.126099 1236.472534,562.917725 1235.796631,568.499268 
	C1235.467651,571.216309 1233.626831,574.691833 1231.388672,576.080566 
	C1218.675049,583.968750 1205.651489,591.359070 1192.694702,598.852417 
	C1188.847290,601.077576 1186.142578,599.657104 1185.984009,595.239258 
	C1185.792969,589.915771 1186.335815,584.535095 1185.745361,579.270691 
	C1185.477783,576.885803 1183.768311,573.964966 1181.801758,572.601807 
	C1176.350830,568.823364 1170.587036,565.384338 1164.595825,562.554382 
	C1162.324707,561.481628 1158.683716,561.566833 1156.381348,562.646851 
	C1150.684448,565.319336 1145.450806,568.961975 1139.931274,572.036011 
	C1136.542480,573.923340 1134.749756,576.366699 1135.045898,580.446045 
	C1135.334595,584.422791 1135.108643,588.437012 1135.108765,592.919678 
z"/>
<path fill="#FFFFFF" opacity="1.000000" stroke="none" 
	d="
M1138.722046,242.999847 
	C1138.722046,224.856216 1138.722046,207.212585 1138.722046,188.999481 
	C1147.154785,188.999481 1155.431030,188.999481 1163.707397,188.999481 
	C1170.536255,188.999481 1177.369873,189.148468 1184.191650,188.929031 
	C1187.079346,188.836166 1188.606934,189.774155 1189.984619,192.336685 
	C1198.554810,208.277283 1207.317627,224.114304 1216.669678,241.177002 
	C1216.669678,223.122238 1216.669678,206.333878 1216.669678,189.274780 
	C1231.570679,189.274780 1245.985840,189.274780 1260.739746,189.274780 
	C1260.739746,228.533218 1260.739746,267.917877 1260.739746,308.000488 
	C1257.429932,308.000488 1253.843384,308.000488 1250.256836,308.000488 
	C1238.764282,308.000488 1227.269653,307.878113 1215.780762,308.081299 
	C1212.670288,308.136292 1211.141357,307.091888 1209.689819,304.387970 
	C1201.212280,288.595184 1192.509399,272.923279 1183.152588,255.880783 
	C1183.152588,274.039001 1183.152588,290.816956 1183.152588,307.792816 
	C1168.130859,307.792816 1153.711914,307.792816 1138.722046,307.792816 
	C1138.722046,286.314453 1138.722046,264.907166 1138.722046,242.999847 
z"/>
<path fill="#FCFCFC" opacity="1.000000" stroke="none" 
	d="
M1281.324585,283.999756 
	C1281.324585,252.200073 1281.324585,220.900375 1281.324585,189.152924 
	C1283.794800,188.931274 1286.048950,188.574005 1288.306519,188.550812 
	C1307.439209,188.354263 1326.668335,186.952606 1345.681396,188.388855 
	C1368.845215,190.138657 1388.013428,200.546143 1396.040283,223.850800 
	C1404.304810,247.845139 1402.810913,271.264221 1384.884888,291.173706 
	C1374.839844,302.330200 1361.253296,307.880402 1346.723999,308.593750 
	C1325.166016,309.652161 1303.517700,308.867737 1281.324585,308.867737 
	C1281.324585,300.030975 1281.324585,292.265381 1281.324585,283.999756 
M1350.691650,260.853760 
	C1351.250244,254.945831 1352.751831,248.945038 1352.181030,243.148315 
	C1350.770264,228.821564 1340.195312,222.075714 1326.046875,225.515518 
	C1326.046875,240.970825 1326.046875,256.398590 1326.046875,271.797455 
	C1339.595093,273.139984 1345.681030,270.530579 1350.691650,260.853760 
z"/>
<path fill="#FEFEFE" opacity="1.000000" stroke="none" 
	d="
M588.979126,188.033798 
	C598.896362,189.354904 608.105347,191.515259 616.088562,197.094330 
	C624.778320,203.167145 629.323059,211.547363 628.590637,222.230896 
	C627.860657,232.878311 621.446228,239.386017 611.980530,243.322678 
	C610.321289,244.012711 608.648010,244.669128 606.790527,245.417999 
	C610.748779,247.036743 614.583008,248.232086 618.063904,250.089615 
	C638.484985,260.987091 639.412903,288.014679 619.805603,300.309265 
	C607.940308,307.749359 594.495361,309.477600 580.976868,309.588989 
	C562.505676,309.741211 544.026855,308.962463 525.262817,308.576874 
	C525.262817,268.405731 525.262817,228.862152 525.262817,188.000824 
	C546.374634,188.000824 567.454041,188.000824 588.979126,188.033798 
M569.768982,278.891968 
	C573.236511,278.746216 576.782837,279.005920 580.151367,278.351044 
	C584.265625,277.551147 586.182373,274.482574 586.053162,270.281403 
	C585.930542,266.291473 583.924316,263.527374 580.017517,262.814117 
	C576.540405,262.179291 572.943787,262.199249 569.172485,261.912964 
	C569.172485,267.879150 569.172485,273.019257 569.768982,278.891968 
M583.700500,228.718994 
	C585.299744,219.952713 580.703979,216.647430 569.347473,218.494736 
	C569.347473,223.231750 569.347473,227.983780 569.347473,232.963608 
	C574.479126,233.033310 579.609131,234.285309 583.700500,228.718994 
z"/>
<path fill="#FEFEFE" opacity="1.000000" stroke="none" 
	d="
M944.959351,285.999939 
	C944.959351,293.474365 944.959351,300.448792 944.959351,307.711060 
	C930.161865,307.711060 915.609924,307.711060 900.888428,307.711060 
	C900.888428,268.265717 900.888428,228.979996 900.888428,189.346222 
	C915.363708,189.346222 929.910217,189.346222 944.782715,189.346222 
	C944.782715,204.251007 944.782715,219.187393 944.782715,234.123779 
	C945.101135,234.217575 945.419556,234.311386 945.737976,234.405182 
	C952.236084,219.308487 958.734253,204.211807 965.191467,189.210236 
	C982.156372,189.210236 998.906860,189.210236 1016.207458,189.210236 
	C1008.895508,202.713211 1001.769165,215.809464 994.707703,228.940582 
	C991.182007,235.496826 985.009338,242.156860 985.103882,248.696625 
	C985.195618,255.041046 991.760132,261.302643 995.514648,267.581085 
	C1003.422241,280.804504 1011.351257,294.015137 1019.733276,308.001617 
	C1006.998962,308.001617 994.994446,307.048248 983.216919,308.274536 
	C971.842957,309.458801 965.900452,305.618011 961.848267,295.030945 
	C957.544678,283.786804 951.283386,273.291931 944.959351,262.524933 
	C944.959351,270.183289 944.959351,277.841644 944.959351,285.999939 
z"/>
<path fill="#FEFEFE" opacity="1.000000" stroke="none" 
	d="
M668.679321,211.542053 
	C670.938599,203.841934 673.059692,196.520981 675.200256,189.132843 
	C694.534668,189.132843 713.660583,189.132843 733.155579,189.132843 
	C744.720337,228.591949 756.292236,268.075348 767.937805,307.810211 
	C751.382324,307.810211 735.134155,307.810211 718.634888,307.810211 
	C717.459778,302.196960 716.310913,296.709534 715.145691,291.143555 
	C707.758789,291.143555 700.632324,291.143555 693.252502,291.143555 
	C692.092041,296.694275 690.947449,302.168915 689.770569,307.798157 
	C673.463806,307.798157 657.215271,307.798157 640.464844,307.798157 
	C649.886414,275.624756 659.213745,243.772995 668.679321,211.542053 
M705.068115,237.881958 
	C704.943665,237.060440 704.819153,236.238922 704.694702,235.417404 
	C704.431580,235.372131 704.168396,235.326859 703.905212,235.281586 
	C702.064697,244.611832 700.224121,253.942062 698.346252,263.461487 
	C702.493408,263.461487 706.159668,263.461487 710.082642,263.461487 
	C708.386841,254.897278 706.773560,246.750351 705.068115,237.881958 
z"/>
<path fill="#FDFDFD" opacity="1.000000" stroke="none" 
	d="
M1116.182861,231.900757 
	C1116.523560,243.138992 1116.523560,254.083084 1116.523560,265.521973 
	C1101.884155,265.521973 1087.475098,265.521973 1072.760986,265.521973 
	C1072.760986,268.427887 1072.760986,270.856873 1072.760986,273.737366 
	C1089.300293,273.737366 1106.020752,273.737366 1123.092773,273.737366 
	C1123.092773,285.225555 1123.092773,296.276459 1123.092773,307.667053 
	C1091.670410,307.667053 1060.151245,307.667053 1028.366943,307.667053 
	C1028.366943,268.298706 1028.366943,228.921646 1028.366943,189.270355 
	C1058.800049,189.270355 1089.176758,189.270355 1119.778809,189.270355 
	C1119.778809,200.407944 1119.778809,211.474808 1119.778809,222.937073 
	C1104.095459,222.937073 1088.514038,222.937073 1072.692383,222.937073 
	C1072.692383,225.746887 1072.692383,228.173111 1072.692383,231.606583 
	C1087.034058,231.606583 1101.438110,231.606583 1116.182861,231.900757 
z"/>
<path fill="#FDFDFD" opacity="1.000000" stroke="none" 
	d="
M881.289490,282.650146 
	C883.322876,285.879150 885.159485,288.802551 886.944031,291.643127 
	C869.203247,312.395905 824.006226,319.862274 796.164001,294.117004 
	C770.987732,270.836853 769.871033,229.745026 794.100037,204.901657 
	C818.049377,180.344879 863.384705,180.278870 887.042847,205.208008 
	C880.352600,215.814438 873.581299,226.549377 867.485779,236.212860 
	C860.460388,233.452927 854.230591,230.110321 847.585571,228.624786 
	C839.531250,226.824142 832.251831,229.761887 827.652466,236.904755 
	C822.822205,244.406204 822.815857,252.501358 827.591736,260.019684 
	C832.144714,267.187073 839.423096,270.168762 847.484070,268.399323 
	C854.133545,266.939728 860.370361,263.599915 867.492310,260.819092 
	C871.552856,267.245728 876.322815,274.795135 881.289490,282.650146 
z"/>
<path fill="#81C928" opacity="1.000000" stroke="none" 
	d="
M1287.186279,630.395874 
	C1286.629883,627.252808 1285.902344,624.478821 1285.890747,621.701782 
	C1285.797363,599.204102 1285.979004,576.704407 1285.759399,554.208435 
	C1285.686035,546.694885 1288.615356,541.754517 1295.160889,538.069519 
	C1314.304932,527.291809 1333.350464,516.328552 1352.215576,505.071136 
	C1359.337524,500.821259 1365.555298,500.856018 1372.675171,505.117462 
	C1391.812012,516.571106 1411.170654,527.659058 1430.556763,538.688904 
	C1436.382080,542.003296 1439.119385,546.475342 1439.071411,553.231262 
	C1438.907104,576.394836 1438.900024,599.561157 1439.075928,622.724609 
	C1439.127197,629.479553 1436.443970,634.026001 1430.635132,637.332581 
	C1410.528198,648.778198 1390.500366,660.363647 1370.494263,671.984802 
	C1365.079224,675.130188 1359.877686,675.259888 1354.505981,671.998474 
	C1347.300659,667.623718 1340.032593,663.352234 1332.150513,658.654297 
	C1336.424805,656.624329 1339.781494,654.851135 1343.294434,653.477112 
	C1344.274292,653.093872 1345.849121,653.634094 1346.918701,654.194397 
	C1349.715942,655.659729 1352.662231,657.041321 1355.047241,659.051819 
	C1359.986816,663.215820 1364.222290,662.700745 1369.680176,659.400452 
	C1387.479736,648.636963 1405.611328,638.418823 1423.707153,628.153137 
	C1426.670776,626.471863 1427.940674,624.612000 1427.916382,621.104187 
	C1427.762451,598.940430 1427.781860,576.774780 1427.903564,554.610596 
	C1427.920288,551.546997 1426.930176,549.732117 1424.290405,548.224854 
	C1404.631714,537.000183 1385.068604,525.607361 1365.362061,514.468018 
	C1363.875000,513.627441 1361.095581,513.601562 1359.618286,514.437073 
	C1339.914307,525.580994 1320.360718,536.990234 1300.696655,548.205200 
	C1298.026733,549.728027 1297.085815,551.537476 1297.101074,554.573181 
	C1297.213623,576.904114 1297.076904,599.236694 1297.308105,621.565796 
	C1297.328735,623.554565 1298.933838,626.193604 1300.615112,627.370667 
	C1305.235840,630.605774 1310.192261,633.406250 1315.191772,636.045593 
	C1324.281860,640.844666 1330.785522,636.958130 1330.817017,626.741455 
	C1330.885376,604.576782 1330.914185,582.411377 1330.763306,560.247498 
	C1330.738525,556.616699 1332.055298,555.365784 1335.401489,555.854187 
	C1338.287476,556.275513 1342.657227,554.077698 1342.620605,559.848755 
	C1342.469727,583.668518 1342.760986,607.501526 1342.026978,631.303040 
	C1341.591309,645.426819 1331.843140,652.654785 1318.204712,648.929688 
	C1306.519043,645.737976 1295.681152,640.128235 1287.186279,630.395874 
z"/>
<path fill="#81C928" opacity="1.000000" stroke="none" 
	d="
M1364.438354,621.743774 
	C1355.576660,618.613708 1349.849243,613.288391 1348.565430,603.890137 
	C1348.065918,600.233093 1348.977661,598.900024 1352.897583,598.706482 
	C1357.690430,598.469788 1360.212891,599.504517 1361.753174,604.660767 
	C1362.600342,607.496704 1366.560547,610.960693 1369.467896,611.322388 
	C1377.283447,612.294861 1385.289185,611.840149 1393.215942,611.724182 
	C1394.581543,611.704224 1396.472290,610.926880 1397.177002,609.870178 
	C1398.742432,607.522644 1400.689819,604.738770 1400.593384,602.204773 
	C1400.522949,600.359131 1397.694824,597.533569 1395.642578,597.043396 
	C1388.228882,595.272583 1380.615723,594.348511 1373.094116,593.013245 
	C1369.826538,592.433228 1366.521484,591.874878 1363.368042,590.880127 
	C1356.354858,588.667725 1351.427856,584.551453 1350.801880,576.537170 
	C1350.151978,568.215149 1352.922363,561.547668 1360.552246,557.980530 
	C1373.638184,551.862488 1387.057617,552.118958 1400.148071,558.029724 
	C1406.733887,561.003479 1409.741821,566.976868 1410.864746,573.930298 
	C1411.276367,576.478699 1410.739624,578.039001 1407.599854,578.066406 
	C1403.055420,578.106018 1398.562500,578.666382 1397.566895,572.364014 
	C1397.361206,571.062317 1396.055420,569.775391 1394.970947,568.798767 
	C1389.760132,564.105530 1371.831055,563.325745 1366.431396,567.942932 
	C1364.698853,569.424255 1363.449585,572.506287 1363.573120,574.768921 
	C1363.659668,576.350830 1366.248169,578.721130 1368.075806,579.124939 
	C1376.671631,581.023926 1385.398804,582.321167 1394.060425,583.933350 
	C1396.501953,584.387756 1398.908936,585.090637 1401.282227,585.836792 
	C1408.018188,587.954529 1412.612305,592.037354 1413.414307,599.462402 
	C1414.247925,607.180359 1412.089233,613.748352 1405.445190,618.153442 
	C1395.363525,624.837646 1384.021851,624.580261 1372.632202,623.449341 
	C1370.000366,623.188049 1367.420166,622.406982 1364.438354,621.743774 
z"/>
<path fill="#81C928" opacity="1.000000" stroke="none" 
	d="
M1146.366943,591.712097 
	C1146.364990,580.653137 1149.705566,576.002075 1159.812134,572.824829 
	C1160.740112,572.533020 1162.026855,572.832214 1162.968506,573.254700 
	C1164.622559,573.996704 1166.044556,575.300598 1167.728760,575.922424 
	C1174.311035,578.352600 1176.839233,582.902832 1175.540405,589.760803 
	C1175.059448,592.299866 1175.803955,596.058350 1174.349976,597.235596 
	C1170.424316,600.414185 1165.637573,604.434814 1161.154175,604.482178 
	C1156.688477,604.529358 1152.007446,600.405701 1147.793823,597.558716 
	C1146.633057,596.774475 1146.805786,594.016418 1146.366943,591.712097 
z"/>
<path fill="#F0F0F0" opacity="1.000000" stroke="none" 
	d="
M738.017700,812.781067 
	C742.280640,809.687134 746.203735,810.432800 748.359253,814.372131 
	C751.067383,819.321167 753.721863,824.299438 756.744141,829.904419 
	C759.226868,825.370789 761.939941,821.401855 763.655579,817.040527 
	C765.924988,811.271240 769.662903,809.783936 775.474854,811.541382 
	C771.041992,820.837097 770.979492,830.174866 775.579407,839.753052 
	C771.700684,839.753052 767.952942,839.753052 762.620361,839.753052 
	C764.774231,837.572510 766.066406,836.264282 767.385010,834.929382 
	C767.385010,830.796021 767.385010,826.388000 767.385010,821.979980 
	C767.106934,821.876160 766.828857,821.772400 766.550720,821.668640 
	C764.389282,825.653564 762.276733,829.666077 760.052673,833.615662 
	C757.754272,837.697205 755.832947,837.680176 753.498718,833.539246 
	C751.226135,829.507690 749.080261,825.404785 746.403076,821.422852 
	C746.484009,827.615540 743.660278,834.184265 750.892090,839.811707 
	C745.658813,839.811707 742.048340,839.811707 738.128113,839.811707 
	C738.093262,839.165527 737.781860,838.293579 738.068848,837.993103 
	C744.229675,831.542603 739.721375,823.666199 740.842773,816.553955 
	C740.991028,815.614075 739.019104,814.339844 738.017700,812.781067 
z"/>
<path fill="#F0F0F0" opacity="1.000000" stroke="none" 
	d="
M828.691406,827.658081 
	C828.707092,823.525208 828.707092,819.862976 828.707092,816.367676 
	C827.261902,814.932251 825.893433,813.572998 823.509949,811.205566 
	C828.925415,811.205566 832.533875,811.205566 836.091187,811.205566 
	C836.294373,811.627991 836.616577,812.056641 836.533691,812.159790 
	C831.607483,818.290527 834.282227,825.502014 833.696045,832.234619 
	C833.482117,834.691284 833.661682,837.182129 833.661682,841.185364 
	C830.969421,839.587341 828.774780,838.904419 827.515991,837.425171 
	C823.142456,832.285645 819.093689,826.869690 814.208862,820.651978 
	C814.127991,827.886230 811.897644,834.244629 818.712158,839.702637 
	C813.688354,839.702637 809.965454,839.702637 805.975464,839.702637 
	C810.627014,830.255371 810.649963,820.869202 806.016968,811.497803 
	C810.630188,810.010315 813.899902,811.255371 816.599304,815.355957 
	C819.424622,819.647705 822.840759,823.558960 826.133606,827.524536 
	C826.578430,828.060181 827.808960,827.943359 828.691406,827.658081 
z"/>
<path fill="#F3F3F3" opacity="1.000000" stroke="none" 
	d="
M919.834717,827.948853 
	C919.834595,824.470276 920.237244,821.405273 919.708557,818.510315 
	C919.276306,816.143372 917.732971,813.979370 916.365540,811.046204 
	C921.161072,811.046204 925.418274,810.902405 929.661255,811.086243 
	C934.005432,811.274414 938.030823,812.353027 939.237183,817.353455 
	C940.389771,822.130676 938.209167,825.346191 933.492676,827.765808 
	C936.783325,831.689392 939.975952,835.496033 943.252014,839.402222 
	C937.899719,841.223389 935.001709,839.336182 932.554199,835.145264 
	C931.088379,832.635437 930.414429,828.512756 924.474792,829.111389 
	C925.746521,832.917236 926.878357,836.304504 928.055542,839.827393 
	C924.349243,839.827393 920.766724,839.827393 917.391968,839.827393 
	C918.217590,835.977173 919.026184,832.206604 919.834717,827.948853 
M932.171265,823.749878 
	C932.641479,821.676941 934.133667,818.403870 933.383118,817.764771 
	C931.428345,816.100342 928.489868,815.591187 925.432251,814.426331 
	C925.432251,818.690918 925.432251,821.599854 925.432251,825.044922 
	C927.644897,824.694824 929.540894,824.394836 932.171265,823.749878 
z"/>
<path fill="#F3F3F3" opacity="1.000000" stroke="none" 
	d="
M1140.706787,840.277588 
	C1131.219727,841.329895 1122.467285,832.629333 1125.591553,821.165405 
	C1127.642944,813.638550 1134.469116,809.698975 1142.703003,810.979675 
	C1149.608765,812.053833 1154.444946,818.085205 1154.420532,825.593140 
	C1154.394165,833.688354 1149.591431,838.972473 1140.706787,840.277588 
M1147.949219,820.823364 
	C1144.955811,815.966003 1140.498901,814.230347 1135.920288,816.138672 
	C1131.880737,817.822510 1129.847656,822.866821 1130.953735,828.461365 
	C1131.828003,832.883301 1135.220093,835.670288 1139.729614,835.671814 
	C1146.536865,835.674133 1149.941895,829.978149 1147.949219,820.823364 
z"/>
<path fill="#F0F0F0" opacity="1.000000" stroke="none" 
	d="
M951.824768,825.141785 
	C952.787170,815.370667 958.637451,810.269592 967.806274,810.827515 
	C975.812866,811.314819 981.263123,817.496826 981.124146,825.933655 
	C980.987732,834.214050 975.238892,840.070435 967.013611,840.308289 
	C958.066528,840.566956 952.459534,835.114258 951.824768,825.141785 
M960.220215,833.280701 
	C965.030029,836.323975 969.364685,836.371155 972.561096,833.415039 
	C975.734192,830.480408 976.497803,823.444946 973.980835,819.461853 
	C971.461487,815.475098 967.666382,814.775696 963.480530,815.956299 
	C957.320557,817.693848 955.605591,825.557739 960.220215,833.280701 
z"/>
<path fill="#F3F3F3" opacity="1.000000" stroke="none" 
	d="
M1030.507568,822.096863 
	C1029.683960,818.264282 1028.860229,814.914673 1027.977661,811.325134 
	C1034.498047,811.325134 1041.398926,811.325134 1048.623779,811.325134 
	C1048.623779,813.641052 1048.623779,816.026611 1048.623779,818.312622 
	C1044.738770,817.042419 1040.805420,815.756409 1036.262085,814.270935 
	C1036.262085,817.989258 1036.262085,820.405396 1036.262085,823.156860 
	C1039.365234,823.156860 1042.299683,823.156860 1045.617432,823.156860 
	C1045.715332,824.684998 1045.793945,825.910767 1045.894165,827.472168 
	C1042.650269,827.472168 1039.691528,827.472168 1036.376587,827.472168 
	C1036.376587,830.320801 1036.376587,832.862854 1036.376587,836.620239 
	C1040.605103,835.335571 1044.453857,834.166321 1048.502930,832.936218 
	C1048.502930,834.657410 1048.502930,837.022949 1048.502930,839.710693 
	C1041.764038,839.710693 1034.705200,839.710693 1026.433105,839.710693 
	C1032.156006,834.494446 1030.219360,828.349426 1030.507568,822.096863 
z"/>
<path fill="#F3F3F3" opacity="1.000000" stroke="none" 
	d="
M1163.698975,835.821289 
	C1163.775391,834.132263 1163.851807,832.836731 1163.976807,830.717468 
	C1165.304565,831.508423 1166.741089,831.884888 1166.858521,832.509399 
	C1167.876465,837.922058 1171.803833,835.730164 1174.706299,835.387756 
	C1175.683472,835.272461 1177.049805,833.392944 1177.137573,832.236206 
	C1177.224243,831.094299 1176.198486,829.406921 1175.159912,828.747070 
	C1173.528198,827.710144 1171.461670,827.373047 1169.605225,826.670898 
	C1165.695435,825.192017 1163.688477,822.304871 1164.248047,818.174255 
	C1164.797241,814.120789 1167.447021,811.437622 1171.472290,811.064514 
	C1174.838989,810.752563 1178.293213,811.385925 1181.821899,811.607727 
	C1181.821899,814.792969 1181.821899,817.238403 1181.821899,820.854797 
	C1180.312744,819.577148 1178.940308,818.997620 1178.771729,818.172363 
	C1178.019287,814.487793 1175.252808,814.939758 1172.943115,815.434387 
	C1171.634766,815.714600 1170.062012,817.171509 1169.665283,818.431274 
	C1169.410156,819.242065 1170.840576,821.034363 1171.933838,821.713623 
	C1173.587524,822.741028 1175.649170,823.084229 1177.461060,823.889832 
	C1183.301147,826.486694 1184.583008,832.678589 1180.295166,837.316711 
	C1177.343262,840.509888 1167.777832,841.551697 1164.418213,838.885437 
	C1163.837769,838.424683 1163.921875,837.126221 1163.698975,835.821289 
z"/>
<path fill="#F3F3F3" opacity="1.000000" stroke="none" 
	d="
M892.602234,834.521362 
	C893.792786,836.275940 894.961182,837.585876 896.888306,839.746399 
	C891.770630,839.746399 888.019104,839.746399 883.977844,839.746399 
	C888.621399,830.280884 888.587463,820.910583 883.893982,811.077637 
	C888.732300,811.077637 893.338013,810.854797 897.913208,811.133057 
	C903.844604,811.493896 907.128052,814.873169 907.204529,820.121704 
	C907.282227,825.456482 904.208191,828.892456 898.445557,829.744812 
	C896.665100,830.008179 894.841125,829.977356 892.580078,830.107544 
	C892.580078,831.531738 892.580078,832.804199 892.602234,834.521362 
M899.962585,816.363831 
	C897.658325,815.910095 895.354126,815.456299 892.912231,814.975403 
	C892.912231,818.939270 892.912231,822.121765 892.912231,825.272888 
	C901.174133,825.747314 903.288574,823.297119 899.962585,816.363831 
z"/>
<path fill="#F3F3F3" opacity="1.000000" stroke="none" 
	d="
M1063.944824,825.103149 
	C1064.818726,834.650085 1069.908203,837.645996 1078.220581,834.148376 
	C1079.387085,833.657532 1081.050903,834.349060 1083.189697,834.564270 
	C1078.726929,840.190308 1072.564941,841.673523 1066.798462,839.357483 
	C1060.863892,836.973877 1057.323364,830.349548 1058.302246,823.460571 
	C1059.233276,816.908630 1063.959473,811.859924 1070.076782,811.006958 
	C1071.545288,810.802185 1073.063110,810.789917 1074.546387,810.881287 
	C1082.236206,811.355469 1082.866821,812.168457 1081.647949,820.916687 
	C1078.527466,818.149292 1076.360718,814.306396 1071.549683,815.546936 
	C1066.566406,816.831970 1064.401978,819.915649 1063.944824,825.103149 
z"/>
<path fill="#F3F3F3" opacity="1.000000" stroke="none" 
	d="
M1009.485962,824.729370 
	C1005.505310,830.045166 1006.180603,834.916077 1011.451233,839.854492 
	C1006.109802,839.854492 1002.501892,839.854492 998.522278,839.854492 
	C998.611206,838.910461 998.388916,837.802673 998.796631,837.472107 
	C1003.526245,833.637878 1002.028381,829.368408 999.409729,825.395874 
	C996.766724,821.386292 993.543457,817.762390 990.672729,813.896606 
	C990.249084,813.326111 990.367676,812.352905 990.185730,811.270752 
	C993.836548,811.270752 997.251221,811.270752 999.850586,811.270752 
	C1000.977539,815.584656 1002.071045,819.770813 1003.164612,823.956909 
	C1003.872803,823.965698 1004.580994,823.974487 1005.289124,823.983276 
	C1006.419006,820.001282 1007.548828,816.019348 1008.878906,811.331665 
	C1010.741028,811.331665 1014.134033,811.331665 1018.436401,811.331665 
	C1015.433777,815.838318 1012.573792,820.130798 1009.485962,824.729370 
z"/>
<path fill="#F0F0F0" opacity="1.000000" stroke="none" 
	d="
M1101.076904,824.016785 
	C1101.076904,821.052734 1101.076904,818.578979 1101.076904,814.989746 
	C1097.769043,816.087585 1095.105347,816.971619 1092.192627,817.938293 
	C1092.192627,815.632019 1092.192627,813.427551 1092.192627,811.208862 
	C1100.065186,811.208862 1107.836792,811.208862 1115.804199,811.208862 
	C1115.804199,813.502686 1115.804199,815.590088 1115.804199,818.006226 
	C1112.914062,817.036255 1110.249146,816.141907 1106.517334,814.889526 
	C1108.008789,823.810608 1103.855469,832.101501 1110.579224,839.693848 
	C1105.993042,839.693848 1102.269653,839.693848 1099.272583,839.693848 
	C1099.867798,834.684082 1100.472412,829.595581 1101.076904,824.016785 
z"/>
<path fill="#FCFCFC" opacity="1.000000" stroke="none" 
	d="
M854.490662,815.602783 
	C854.244751,818.809448 854.018250,821.654419 854.263062,824.458313 
	C854.700989,829.473816 855.423035,834.464600 856.054871,839.703491 
	C853.582092,839.703491 850.002563,839.703491 845.955322,839.703491 
	C850.155212,830.360046 850.757874,820.885315 845.623596,811.254822 
	C849.613464,811.254822 853.194031,811.254822 858.499268,811.254822 
	C856.694153,813.151245 855.708313,814.186890 854.490662,815.602783 
z"/>
<path fill="#F0F0F0" opacity="1.000000" stroke="none" 
	d="
M791.811890,811.002197 
	C793.684998,811.086792 795.108643,811.171387 796.696228,811.265747 
	C792.024353,820.974304 792.149902,830.261414 796.657471,839.790894 
	C792.711548,839.790894 788.958069,839.790894 784.996155,839.790894 
	C789.552429,830.284119 789.607727,820.934448 784.845642,811.002197 
	C787.199890,811.002197 789.281128,811.002197 791.811890,811.002197 
z"/>
<path fill="#DCDCDC" opacity="1.000000" stroke="none" 
	d="
M883.407166,916.271973 
	C885.322327,916.989868 886.919861,918.389954 888.733887,918.778015 
	C889.606934,918.964783 891.477112,917.412781 891.789185,916.329468 
	C892.018127,915.534363 890.668457,913.641785 889.636719,913.247314 
	C886.609497,912.089905 883.813354,910.953308 884.959290,906.988159 
	C886.046448,903.226013 889.075867,902.651855 892.521240,902.941528 
	C896.357910,903.264038 896.309448,905.204163 894.622070,908.446289 
	C894.028809,907.531067 893.783630,906.683044 893.256348,906.435242 
	C892.072083,905.878418 890.692810,905.214905 889.499146,905.376953 
	C888.656738,905.491455 887.246155,907.096252 887.405457,907.670837 
	C887.692993,908.708069 888.811829,909.807739 889.856201,910.286438 
	C892.828308,911.648743 896.023499,912.658203 894.389404,917.033813 
	C893.043457,920.637695 888.826965,922.523376 884.821228,920.790039 
	C883.843445,920.366943 883.703674,918.007324 883.407166,916.271973 
z"/>
<path fill="#DCDCDC" opacity="1.000000" stroke="none" 
	d="
M971.252625,904.752136 
	C971.630066,903.634766 972.279663,902.851257 972.929260,902.067688 
	C973.370483,902.358948 973.811707,902.650269 974.252930,902.941528 
	C973.756714,908.819763 973.260437,914.697998 972.755249,920.682129 
	C970.812927,920.797485 967.721069,921.666260 965.129395,920.881958 
	C963.535400,920.399658 961.849854,917.454285 961.705505,915.503845 
	C961.370361,910.974609 964.389404,907.705688 968.399963,908.159180 
	C971.400146,908.498352 971.723572,907.372620 971.252625,904.752136 
M970.322327,915.767395 
	C970.345337,913.622559 972.605896,910.397278 968.355408,910.219299 
	C967.070679,910.165527 965.010132,912.221802 964.542358,913.702454 
	C964.075439,915.180359 965.159302,917.148132 965.563293,918.901184 
	C967.102295,918.119812 968.641296,917.338501 970.322327,915.767395 
z"/>
<path fill="#DCDCDC" opacity="1.000000" stroke="none" 
	d="
M1021.955811,908.673096 
	C1025.808105,916.247864 1018.075439,913.729553 1015.661499,916.341736 
	C1016.695435,921.650330 1020.482971,917.545166 1022.809814,918.112732 
	C1022.904724,918.589233 1022.999634,919.065735 1023.094543,919.542236 
	C1020.797180,920.032227 1018.383301,921.162598 1016.245972,920.773560 
	C1014.949646,920.537659 1012.941223,917.653320 1013.247925,916.480469 
	C1013.977722,913.689270 1015.662415,911.028625 1017.466064,908.707520 
	C1018.029114,907.982971 1020.207275,908.513489 1021.955811,908.673096 
z"/>
<path fill="#DCDCDC" opacity="1.000000" stroke="none" 
	d="
M905.696411,919.070007 
	C907.500122,918.716919 908.878296,918.335327 910.548767,917.872803 
	C908.323730,921.111145 905.031860,922.222900 902.855103,920.423157 
	C899.891357,917.972778 900.376709,914.792480 901.888855,911.816162 
	C903.381775,908.877808 905.809692,907.182983 909.221558,908.500427 
	C910.068359,908.827454 911.084412,910.264282 910.997070,911.081360 
	C910.880676,912.169922 909.985718,913.568420 909.023071,914.086243 
	C907.336365,914.993530 905.343872,915.332336 902.619629,916.175293 
	C903.756348,917.404175 904.513611,918.222839 905.696411,919.070007 
z"/>
<path fill="#DCDCDC" opacity="1.000000" stroke="none" 
	d="
M992.054688,916.898804 
	C990.051331,920.926636 986.682251,922.446411 983.361328,920.555237 
	C981.662231,919.587524 980.561401,915.903564 980.781555,913.599304 
	C981.168213,909.552002 985.223083,907.093018 988.693542,908.180054 
	C992.998840,909.528442 993.361328,912.771118 992.054688,916.898804 
M987.945068,918.751831 
	C988.645386,916.834900 989.929260,914.913696 989.915283,913.002014 
	C989.891663,909.760986 987.231628,909.008484 985.194824,910.782471 
	C983.780518,912.014282 983.298035,914.747986 983.223938,916.839905 
	C983.199768,917.522400 985.776611,918.296997 987.945068,918.751831 
z"/>
<path fill="#DCDCDC" opacity="1.000000" stroke="none" 
	d="
M936.086792,910.648560 
	C936.422668,912.772827 936.861389,914.542297 937.300110,916.311768 
	C937.656250,916.435913 938.012390,916.559998 938.368530,916.684082 
	C939.358398,914.068970 940.348328,911.453857 941.488892,908.440674 
	C942.241882,908.440674 943.943604,908.440674 945.654236,908.440674 
	C942.895508,912.979675 940.295715,917.257141 937.016846,922.651917 
	C935.078308,917.053345 933.666809,912.976685 931.996887,908.153809 
	C933.688660,908.359985 935.424316,908.571472 937.159912,908.782959 
	C936.836487,909.286560 936.513062,909.790161 936.086792,910.648560 
z"/>
<path fill="#DCDCDC" opacity="1.000000" stroke="none" 
	d="
M1038.347656,910.664795 
	C1036.428711,910.846802 1034.579590,910.669617 1031.945190,910.417114 
	C1033.688599,914.451965 1040.617432,913.776917 1037.406372,918.794922 
	C1036.399536,920.368591 1032.860107,920.431091 1030.422119,920.844543 
	C1030.109131,920.897705 1029.446411,918.888855 1029.172729,918.312927 
	C1031.643921,918.446899 1033.642700,918.555237 1036.173950,918.692444 
	C1033.556885,915.625977 1031.676514,913.649536 1030.239258,911.390930 
	C1030.094116,911.162720 1032.511353,908.526978 1033.946899,908.295471 
	C1035.294067,908.078247 1036.916260,909.567322 1038.347656,910.664795 
z"/>
<path fill="#DCDCDC" opacity="1.000000" stroke="none" 
	d="
M917.975342,915.541626 
	C918.002930,913.021484 918.002930,910.927368 918.002930,908.568970 
	C920.283691,908.568970 923.283997,908.568970 926.653870,908.568970 
	C924.591309,910.427673 922.155457,911.836060 920.935730,913.947144 
	C919.757324,915.986450 919.832336,918.750183 919.356812,921.195679 
	C918.757812,921.106079 918.158875,921.016479 917.559875,920.926880 
	C917.689148,919.273743 917.818420,917.620667 917.975342,915.541626 
z"/>
<path fill="#DCDCDC" opacity="1.000000" stroke="none" 
	d="
M999.774170,920.962280 
	C999.445374,918.800964 999.620300,916.703857 999.611816,914.607422 
	C999.603882,912.660095 999.400330,910.713562 999.247131,908.173645 
	C1001.529236,908.673218 1004.068115,909.229065 1005.482605,909.538757 
	C1004.359558,911.811584 1003.096558,914.279419 1001.918579,916.787170 
	C1001.270996,918.165588 1000.766724,919.611328 999.774170,920.962280 
z"/>
<path fill="#DCDCDC" opacity="1.000000" stroke="none" 
	d="
M955.307007,919.631165 
	C954.383301,920.410828 953.229492,920.893250 951.855774,921.467712 
	C951.855774,916.869263 951.855774,912.942322 951.855774,908.495117 
	C952.334717,908.426941 953.517090,908.258545 955.076904,908.036438 
	C955.076904,912.045837 955.076904,915.689880 955.307007,919.631165 
z"/>
<path fill="#000000" opacity="1.000000" stroke="none" 
	d="
M964.645264,616.657837 
	C961.617188,618.825378 959.210449,618.698242 956.244324,616.792480 
	C950.663086,613.206604 944.539978,610.449646 939.051453,606.742188 
	C937.106323,605.428223 935.410828,602.419678 935.234924,600.062866 
	C934.728882,593.280212 934.791809,586.418884 935.218262,579.625244 
	C935.345825,577.593384 936.941711,574.980835 938.663513,573.844299 
	C944.475586,570.007935 950.515259,566.448486 956.758179,563.372253 
	C958.710266,562.410278 961.956970,562.535950 963.960938,563.506409 
	C970.077393,566.468323 975.995117,569.899841 981.724426,573.564148 
	C983.325806,574.588318 984.869568,577.007996 984.960083,578.859985 
	C985.325317,586.327942 985.328308,593.834839 984.958374,601.302246 
	C984.867065,603.144958 983.276550,605.512268 981.671265,606.571716 
	C976.273743,610.133789 970.558533,613.214600 964.645264,616.657837 
z"/>
<path fill="#000000" opacity="1.000000" stroke="none" 
	d="
M1350.495483,261.192810 
	C1345.681030,270.530579 1339.595093,273.139984 1326.046875,271.797455 
	C1326.046875,256.398590 1326.046875,240.970825 1326.046875,225.515518 
	C1340.195312,222.075714 1350.770264,228.821564 1352.181030,243.148315 
	C1352.751831,248.945038 1351.250244,254.945831 1350.495483,261.192810 
z"/>
<path fill="#080808" opacity="1.000000" stroke="none" 
	d="
M569.470703,278.525665 
	C569.172485,273.019257 569.172485,267.879150 569.172485,261.912964 
	C572.943787,262.199249 576.540405,262.179291 580.017517,262.814117 
	C583.924316,263.527374 585.930542,266.291473 586.053162,270.281403 
	C586.182373,274.482574 584.265625,277.551147 580.151367,278.351044 
	C576.782837,279.005920 573.236511,278.746216 569.470703,278.525665 
z"/>
<path fill="#080808" opacity="1.000000" stroke="none" 
	d="
M583.462524,229.048813 
	C579.609131,234.285309 574.479126,233.033310 569.347473,232.963608 
	C569.347473,227.983780 569.347473,223.231750 569.347473,218.494736 
	C580.703979,216.647430 585.299744,219.952713 583.462524,229.048813 
z"/>
<path fill="#080808" opacity="1.000000" stroke="none" 
	d="
M705.114258,238.242691 
	C706.773560,246.750351 708.386841,254.897278 710.082642,263.461487 
	C706.159668,263.461487 702.493408,263.461487 698.346252,263.461487 
	C700.224121,253.942062 702.064697,244.611832 703.905212,235.281586 
	C704.168396,235.326859 704.431580,235.372131 704.694702,235.417404 
	C704.819153,236.238922 704.943665,237.060440 705.114258,238.242691 
z"/>
<path fill="#080808" opacity="1.000000" stroke="none" 
	d="
M931.804077,823.922363 
	C929.540894,824.394836 927.644897,824.694824 925.432251,825.044922 
	C925.432251,821.599854 925.432251,818.690918 925.432251,814.426331 
	C928.489868,815.591187 931.428345,816.100342 933.383118,817.764771 
	C934.133667,818.403870 932.641479,821.676941 931.804077,823.922363 
z"/>
<path fill="#080808" opacity="1.000000" stroke="none" 
	d="
M1148.048462,821.206665 
	C1149.941895,829.978149 1146.536865,835.674133 1139.729614,835.671814 
	C1135.220093,835.670288 1131.828003,832.883301 1130.953735,828.461365 
	C1129.847656,822.866821 1131.880737,817.822510 1135.920288,816.138672 
	C1140.498901,814.230347 1144.955811,815.966003 1148.048462,821.206665 
z"/>
<path fill="#080808" opacity="1.000000" stroke="none" 
	d="
M959.959351,832.999268 
	C955.605591,825.557739 957.320557,817.693848 963.480530,815.956299 
	C967.666382,814.775696 971.461487,815.475098 973.980835,819.461853 
	C976.497803,823.444946 975.734192,830.480408 972.561096,833.415039 
	C969.364685,836.371155 965.030029,836.323975 959.959351,832.999268 
z"/>
<path fill="#080808" opacity="1.000000" stroke="none" 
	d="
M900.247742,816.630554 
	C903.288574,823.297119 901.174133,825.747314 892.912231,825.272888 
	C892.912231,822.121765 892.912231,818.939270 892.912231,814.975403 
	C895.354126,815.456299 897.658325,815.910095 900.247742,816.630554 
z"/>
<path fill="#080808" opacity="1.000000" stroke="none" 
	d="
M970.251343,916.162292 
	C968.641296,917.338501 967.102295,918.119812 965.563293,918.901184 
	C965.159302,917.148132 964.075439,915.180359 964.542358,913.702454 
	C965.010132,912.221802 967.070679,910.165527 968.355408,910.219299 
	C972.605896,910.397278 970.345337,913.622559 970.251343,916.162292 
z"/>
<path fill="#080808" opacity="1.000000" stroke="none" 
	d="
M987.554443,918.890625 
	C985.776611,918.296997 983.199768,917.522400 983.223938,916.839905 
	C983.298035,914.747986 983.780518,912.014282 985.194824,910.782471 
	C987.231628,909.008484 989.891663,909.760986 989.915283,913.002014 
	C989.929260,914.913696 988.645386,916.834900 987.554443,918.890625 
z"/>
</svg>