<svg version="1.1" id="Layer_1" xmlns="http://www.w3.org/2000/svg" xmlns:xlink="http://www.w3.org/1999/xlink" x="0px" y="0px"
	 width="100%" viewBox="0 0 1920 1080" enable-background="new 0 0 1920 1080" xml:space="preserve">
<path fill="#000000" opacity="1.000000" stroke="none" 
	d="
M1220.000000,1081.000000 
	C813.333435,1081.000000 407.166809,1081.000000 1.000164,1081.000000 
	C1.000109,721.000122 1.000109,361.000275 1.000054,1.000309 
	C640.999756,1.000206 1280.999512,1.000206 1920.999512,1.000103 
	C1920.999634,360.999664 1920.999634,720.999329 1920.999756,1080.999512 
	C1687.500000,1081.000000 1454.000000,1081.000000 1220.000000,1081.000000 
M402.223145,552.090149 
	C402.432404,552.776062 402.641663,553.461975 402.548920,554.499268 
	C402.930298,554.876282 403.311646,555.253235 403.754730,556.474304 
	C403.790710,556.805298 403.763763,557.158447 403.871643,557.464050 
	C413.643585,585.140869 435.824707,599.863281 461.935364,602.534241 
	C477.141541,604.089722 491.184875,599.273804 503.712799,590.877808 
	C528.059814,574.560791 538.255371,543.505615 528.786377,515.829590 
	C522.554565,497.615265 510.722412,484.401245 493.005005,476.767731 
	C487.437622,474.369049 481.527679,472.765350 476.494598,470.320312 
	C484.752411,467.093933 493.564392,464.826385 501.152313,460.440948 
	C516.788025,451.404236 526.295715,437.157104 530.580383,419.749237 
	C534.680542,403.090881 532.135376,386.947113 523.489746,372.264648 
	C512.959290,354.381256 497.560425,342.993256 476.106201,339.980194 
	C475.433014,339.981201 474.759796,339.982208 473.251190,339.509827 
	C449.165009,339.463623 425.078827,339.417419 400.084717,339.134155 
	C377.759155,339.115479 355.433411,339.040955 333.108063,339.099487 
	C320.115387,339.133545 308.164948,343.111481 297.556519,350.343414 
	C282.524139,360.591309 273.162811,374.816406 269.744812,392.858124 
	C266.241882,411.348114 270.283325,428.156738 281.025177,443.352631 
	C291.738831,458.508636 306.797150,466.827179 324.052155,470.463440 
	C323.227844,471.179291 322.403564,471.895142 321.044281,472.569977 
	C320.697205,472.648590 320.350098,472.727203 319.423462,472.478912 
	C317.361206,473.005890 315.243866,473.377472 313.246033,474.086121 
	C303.211700,477.645203 293.892853,482.334106 286.731812,491.324066 
	C286.391907,491.770813 286.052032,492.217590 285.070740,492.878265 
	C277.580414,500.166382 273.345215,509.227753 270.453217,519.868774 
	C270.442139,520.614258 270.431091,521.359802 269.901764,522.569946 
	C269.563171,525.044556 269.224579,527.519165 268.748932,530.912781 
	C268.788300,534.943298 268.827698,538.973755 268.528046,543.619080 
	C269.140045,546.045349 269.752045,548.471680 270.300201,551.651123 
	C270.462402,552.381653 270.624573,553.112183 270.528320,554.534546 
	C271.156738,556.413757 271.543213,558.421631 272.460449,560.147278 
	C274.889008,564.716553 277.547211,569.163635 280.371216,574.138489 
	C280.577698,574.435852 280.784149,574.733276 281.017151,575.723206 
	C290.454651,588.848877 303.225189,596.946533 318.776062,600.969116 
	C320.905426,601.519958 322.836151,602.838623 323.833435,604.004761 
	C311.685822,604.722412 301.321747,610.184387 292.416077,617.705505 
	C265.487305,640.447632 260.020691,679.035217 281.859253,708.095703 
	C298.059540,729.653320 325.210785,739.779541 350.925049,732.325134 
	C377.816772,724.529419 394.636261,706.364807 399.639038,678.360901 
	C399.765808,678.296143 399.892609,678.231384 400.019379,678.166565 
	C399.888336,678.019043 399.757294,677.871521 399.968842,676.824524 
	C400.193115,674.343079 400.604370,671.862244 400.611877,669.380188 
	C400.667664,650.901917 400.666656,632.423401 400.624420,613.945129 
	C400.616089,610.301331 400.352020,606.658081 400.501190,602.153259 
	C400.411835,600.049316 400.322479,597.945374 400.429077,594.951050 
	C400.394440,580.755127 400.359802,566.559265 400.918762,551.869263 
	C401.337555,551.581604 401.756378,551.293884 402.223145,552.090149 
M1429.500366,556.555969 
	C1421.432861,556.555969 1413.365356,556.555969 1405.420654,556.555969 
	C1405.420654,590.157654 1405.420654,622.919495 1405.420654,655.729187 
	C1417.773560,655.729187 1429.851562,655.729187 1442.255493,655.729187 
	C1442.255493,638.289368 1442.255493,621.119507 1442.255493,603.949585 
	C1442.525635,603.899475 1442.795776,603.849304 1443.065796,603.799194 
	C1448.439331,621.161194 1453.812744,638.523254 1459.170410,655.834595 
	C1469.279053,655.834595 1479.070435,655.834595 1489.119873,655.834595 
	C1494.508179,638.395752 1499.872803,621.033142 1505.237549,603.670593 
	C1505.554565,603.716675 1505.871460,603.762695 1506.188477,603.808777 
	C1506.188477,621.153870 1506.188477,638.498962 1506.188477,655.663940 
	C1518.763916,655.663940 1530.834717,655.663940 1542.819824,655.663940 
	C1542.819824,622.540833 1542.819824,589.756165 1542.819824,556.866577 
	C1525.219482,556.866577 1507.813599,556.866577 1490.349854,556.866577 
	C1485.048950,574.344238 1479.828735,591.555237 1474.151245,610.274170 
	C1468.418945,591.431152 1463.123413,574.024231 1457.809326,556.556030 
	C1448.487793,556.556030 1439.494141,556.556030 1429.500366,556.555969 
M1018.639893,656.003906 
	C1029.075439,656.003906 1039.511108,656.003906 1050.355103,656.003906 
	C1050.355103,641.626099 1050.355103,627.797913 1050.355103,612.760437 
	C1051.812500,615.251099 1052.664673,616.635010 1053.447632,618.057129 
	C1059.857788,629.699341 1066.215210,641.370972 1072.713989,652.963379 
	C1073.410522,654.205872 1074.895020,655.852539 1076.036499,655.870422 
	C1089.122192,656.075378 1102.212280,656.000977 1115.252197,656.000977 
	C1115.252197,622.559021 1115.252197,589.704651 1115.252197,556.949646 
	C1102.816650,556.949646 1090.767212,556.949646 1078.073730,556.949646 
	C1078.073730,570.919189 1078.073730,584.496765 1078.073730,599.537048 
	C1070.339233,585.455872 1063.428467,572.779724 1056.383301,560.178650 
	C1055.588135,558.756531 1054.054932,556.742432 1052.831299,556.718994 
	C1039.716431,556.468079 1026.594971,556.562805 1013.443115,556.562805 
	C1013.443115,589.972595 1013.443115,622.852234 1013.443115,656.003906 
	C1015.051270,656.003906 1016.362549,656.003906 1018.639893,656.003906 
M1590.189941,475.154602 
	C1593.090210,481.628876 1594.937134,488.890411 1599.081055,494.435089 
	C1613.621582,513.890808 1634.050293,518.793396 1656.929077,514.907532 
	C1693.348145,508.721863 1711.608032,468.396851 1692.404663,437.280060 
	C1679.010254,415.575806 1649.478516,406.507477 1622.976318,416.139740 
	C1599.310669,424.741150 1585.297119,448.071838 1590.189941,475.154602 
M1179.202881,434.329803 
	C1165.215210,416.128082 1146.238770,410.725983 1124.322632,413.076538 
	C1087.614258,417.013580 1066.424927,456.369110 1084.026611,488.646790 
	C1095.165161,509.072723 1113.777100,516.767517 1136.220947,515.939941 
	C1156.368774,515.196960 1172.837646,506.978577 1182.510010,488.786652 
	C1192.182739,470.594299 1190.860962,452.314789 1179.202881,434.329803 
M1020.388611,491.143768 
	C1022.787354,495.704346 1025.779785,500.059082 1027.448730,504.872681 
	C1030.096558,512.510010 1034.707153,514.840088 1042.689941,514.206482 
	C1053.174194,513.374329 1063.774414,514.002197 1075.021851,514.002197 
	C1066.704102,500.747528 1058.870728,488.264709 1051.105225,475.889954 
	C1062.974487,465.780914 1065.684204,453.035675 1062.559692,438.972809 
	C1059.499634,425.198975 1049.447388,417.629822 1036.344116,415.388397 
	C1025.284302,413.496490 1013.837341,413.575134 1002.551880,413.391357 
	C994.111267,413.253876 985.654907,414.087158 977.281006,414.484589 
	C977.281006,447.928040 977.281006,480.849335 977.281006,513.696411 
	C989.634033,513.696411 1001.703430,513.696411 1014.254150,513.696411 
	C1014.254150,502.874268 1014.254150,492.351898 1014.254150,481.829498 
	C1014.605774,481.725098 1014.957458,481.620667 1015.309082,481.516235 
	C1016.893005,484.503510 1018.476929,487.490784 1020.388611,491.143768 
M1595.299561,649.948242 
	C1595.918579,647.271729 1596.537476,644.595215 1597.118286,642.083496 
	C1603.459961,642.083496 1609.250244,642.083496 1615.321899,642.083496 
	C1616.300781,646.698914 1617.255249,651.199280 1618.211182,655.706787 
	C1631.901367,655.706787 1645.435547,655.706787 1659.369751,655.706787 
	C1649.835938,623.151611 1640.434082,590.970886 1630.892944,558.831360 
	C1630.602539,557.852722 1628.868042,556.662476 1627.796631,556.652405 
	C1612.663818,556.510254 1597.529297,556.555664 1581.999023,556.555664 
	C1572.318237,589.600220 1562.666504,622.546021 1552.929565,655.782288 
	C1566.805664,655.782288 1580.358765,655.782288 1594.145264,655.782288 
	C1594.489746,654.023560 1594.806641,652.405579 1595.299561,649.948242 
M1302.146118,438.499969 
	C1302.146118,463.593719 1302.146118,488.687500 1302.146118,513.740540 
	C1329.039185,513.740540 1355.297852,513.740540 1381.556763,513.740540 
	C1381.556763,504.270447 1381.556763,495.067169 1381.556763,485.368042 
	C1367.314087,485.368042 1353.406372,485.368042 1339.399658,485.368042 
	C1339.399658,482.933380 1339.399658,481.009918 1339.399658,478.549500 
	C1351.698364,478.549500 1363.773193,478.549500 1375.780151,478.549500 
	C1375.780151,468.759674 1375.780151,459.514374 1375.780151,449.792450 
	C1363.403442,449.792450 1351.331543,449.792450 1339.357300,449.792450 
	C1339.357300,447.358704 1339.357300,445.411682 1339.357300,442.963379 
	C1352.604736,442.963379 1365.667725,442.963379 1378.649414,442.963379 
	C1378.649414,433.241089 1378.649414,424.029144 1378.649414,414.821136 
	C1353.039429,414.821136 1327.764038,414.821136 1302.146118,414.821136 
	C1302.146118,422.556030 1302.146118,430.028015 1302.146118,438.499969 
M987.420288,592.039551 
	C977.655090,592.039551 967.889893,592.039551 958.263733,592.039551 
	C958.263733,589.368347 958.263733,587.296814 958.263733,584.731689 
	C971.598755,584.731689 984.649902,584.731689 997.552124,584.731689 
	C997.552124,575.141296 997.552124,566.056641 997.552124,556.912231 
	C971.909729,556.912231 946.545959,556.912231 921.358765,556.912231 
	C921.358765,590.156799 921.358765,623.042969 921.358765,655.655396 
	C947.950500,655.655396 974.182129,655.655396 1000.413635,655.655396 
	C1000.413635,646.220154 1000.413635,637.134277 1000.413635,627.639160 
	C986.244385,627.639160 972.323669,627.639160 958.200317,627.639160 
	C958.200317,625.133850 958.200317,623.042786 958.200317,620.482910 
	C970.495239,620.482910 982.571838,620.482910 994.629700,620.482910 
	C994.629700,610.772827 994.629700,601.535217 994.629700,592.039551 
	C992.350952,592.039551 990.374268,592.039551 987.420288,592.039551 
M1377.490234,606.169495 
	C1370.729370,606.169495 1363.968506,606.169495 1356.820068,606.169495 
	C1356.820068,612.270020 1356.820068,617.691895 1356.820068,623.144714 
	C1355.414917,623.144714 1354.415527,623.188660 1353.420898,623.137939 
	C1343.970093,622.656128 1337.607422,616.252869 1337.233276,606.866699 
	C1336.867310,597.691833 1342.990356,590.541931 1352.315674,589.542053 
	C1360.143433,588.702759 1366.465698,592.363953 1372.754272,597.018494 
	C1378.423340,588.048340 1384.064209,579.122742 1389.625000,570.323730 
	C1381.323364,560.777588 1368.193848,555.314514 1352.125000,554.472290 
	C1317.583008,552.661621 1290.958984,584.128357 1298.627441,617.607788 
	C1307.886597,658.032593 1353.401245,667.848450 1382.572388,648.830627 
	C1388.565308,644.923645 1392.105103,640.524963 1391.327026,632.628906 
	C1390.473145,623.964111 1391.132446,615.150208 1391.132446,606.169495 
	C1386.441650,606.169495 1382.463867,606.169495 1377.490234,606.169495 
M913.161865,486.794098 
	C913.161865,485.322327 913.161865,483.850525 913.161865,481.977753 
	C920.866516,481.977753 928.250671,482.737976 935.421143,481.823242 
	C951.506836,479.771240 962.774719,467.780731 964.040649,452.517059 
	C965.555969,434.247498 957.733032,421.793549 941.078003,416.322510 
	C937.625977,415.188538 933.959595,414.070770 930.385925,414.051300 
	C912.925476,413.956055 895.462830,414.228363 878.001404,414.412354 
	C877.419556,414.418488 876.842468,414.871094 876.364990,415.072571 
	C876.364990,448.057556 876.364990,480.810699 876.364990,513.783203 
	C888.650818,513.783203 900.717468,513.783203 913.161926,513.783203 
	C913.161926,504.966614 913.161926,496.351196 913.161865,486.794098 
M1472.670654,509.197266 
	C1476.538452,506.465576 1480.406250,503.733856 1484.332275,500.961060 
	C1478.270264,491.392120 1472.691895,482.586761 1467.422729,474.269257 
	C1462.444946,476.546295 1458.135010,479.196136 1453.450317,480.499878 
	C1446.648315,482.392975 1440.105713,481.140228 1435.361694,475.324799 
	C1430.838135,469.779633 1430.459229,463.377655 1433.096802,456.970978 
	C1435.801270,450.401978 1441.487183,446.817261 1448.144409,447.599030 
	C1454.623169,448.359833 1460.839478,451.354553 1467.902100,453.600952 
	C1472.766357,445.903229 1478.396118,436.993927 1484.069824,428.015167 
	C1473.377441,417.406677 1460.604858,413.168274 1446.339722,412.462860 
	C1424.979004,411.406555 1405.156006,423.253235 1396.340576,442.429443 
	C1387.471436,461.722260 1391.388916,485.175018 1406.023560,500.397949 
	C1422.231079,517.257080 1448.435181,520.911560 1472.670654,509.197266 
M1160.999390,559.822998 
	C1160.999390,591.757202 1160.999390,623.691406 1160.999390,655.776978 
	C1173.481323,655.776978 1185.545288,655.776978 1198.092773,655.776978 
	C1198.092773,646.327026 1198.092773,637.090576 1198.092773,627.544922 
	C1208.184937,627.544922 1217.795166,627.544922 1227.621094,627.544922 
	C1227.621094,617.988647 1227.621094,608.762207 1227.621094,599.036133 
	C1217.655640,599.036133 1207.932007,599.036133 1198.200562,599.036133 
	C1198.200562,595.111816 1198.200562,591.691772 1198.200562,587.823242 
	C1210.482666,587.823242 1222.546753,587.823242 1234.765625,587.823242 
	C1234.765625,577.263062 1234.765625,567.158691 1234.765625,557.118347 
	C1234.315063,556.913574 1234.015991,556.658936 1233.716431,556.658325 
	C1210.396729,556.611816 1187.076782,556.558533 1163.757568,556.656006 
	C1162.835449,556.659851 1161.919189,558.114014 1160.999390,559.822998 
M1278.082520,447.638153 
	C1284.106567,436.837311 1290.130615,426.036438 1296.535156,414.553284 
	C1282.535156,414.553284 1269.427734,414.470398 1256.325195,414.692200 
	C1255.125244,414.712524 1253.377930,416.459381 1252.871216,417.782349 
	C1249.878418,425.596832 1247.177856,433.523224 1243.935913,442.660248 
	C1240.684814,433.452698 1237.974854,425.528839 1235.030640,417.693085 
	C1234.561523,416.444702 1233.053589,414.706512 1232.002930,414.690308 
	C1218.745972,414.485809 1205.484863,414.556000 1191.588745,414.556000 
	C1192.622559,416.615265 1193.283569,418.065918 1194.057617,419.453491 
	C1203.609253,436.574768 1213.293457,453.623901 1222.631470,470.860657 
	C1224.276489,473.896973 1225.139404,477.688446 1225.245605,481.165405 
	C1225.575317,491.944855 1225.365967,502.740814 1225.365967,513.778564 
	C1226.719849,513.871887 1227.673706,513.993713 1228.627930,513.994873 
	C1239.757080,514.008240 1250.886230,514.003418 1262.447144,514.003418 
	C1262.447144,511.192383 1262.722778,508.688385 1262.403931,506.262512 
	C1259.610718,485.012238 1264.807617,465.892731 1277.490601,448.717987 
	C1277.589478,448.583984 1277.682129,448.445496 1278.082520,447.638153 
M1516.840576,466.501007 
	C1516.840576,482.250275 1516.840576,497.999573 1516.840576,513.680176 
	C1529.483032,513.680176 1541.544067,513.680176 1554.002197,513.680176 
	C1554.002197,491.453979 1554.002197,469.546875 1554.002197,447.100983 
	C1563.114990,447.100983 1571.835449,447.100983 1580.516113,447.100983 
	C1580.516113,436.005707 1580.516113,425.458557 1580.516113,414.921448 
	C1550.157104,414.921448 1520.125854,414.921448 1490.175049,414.921448 
	C1490.175049,425.872925 1490.175049,436.456604 1490.175049,447.530853 
	C1499.209595,447.530853 1507.945312,447.530853 1516.840576,447.530853 
	C1516.840576,453.852142 1516.840576,459.677032 1516.840576,466.501007 
M1246.146729,638.498413 
	C1246.146729,644.265015 1246.146729,650.031677 1246.146729,655.688354 
	C1258.867188,655.688354 1270.950684,655.688354 1283.147095,655.688354 
	C1283.147095,623.052246 1283.148315,590.730286 1283.134033,558.408325 
	C1283.133911,557.931702 1282.941284,557.455200 1282.805420,556.825317 
	C1270.680664,556.825317 1258.584961,556.825317 1246.146729,556.825317 
	C1246.146729,583.895996 1246.146729,610.697571 1246.146729,638.498413 
z"/>
<path fill="#F04E1F" opacity="1.000000" stroke="none" 
	d="
M324.862457,470.067505 
	C306.797150,466.827179 291.738831,458.508636 281.025177,443.352631 
	C270.283325,428.156738 266.241882,411.348114 269.744812,392.858124 
	C273.162811,374.816406 282.524139,360.591309 297.556519,350.343414 
	C308.164948,343.111481 320.115387,339.133545 333.108063,339.099487 
	C355.433411,339.040955 377.759155,339.115479 400.541687,339.695465 
	C400.962036,383.811951 400.925415,427.367157 400.750061,471.035828 
	C400.611328,471.149292 400.257690,471.217194 400.035126,471.080536 
	C399.638763,470.954529 399.464996,470.965149 398.809296,470.897736 
	C374.953918,470.877350 351.580444,470.935028 327.990540,470.789551 
	C326.803528,470.413391 325.833008,470.240448 324.862457,470.067505 
z"/>
<path fill="#FE7162" opacity="1.000000" stroke="none" 
	d="
M400.888794,470.922333 
	C400.925415,427.367157 400.962036,383.811951 400.995667,339.813995 
	C425.078827,339.417419 449.165009,339.463623 473.801910,339.982422 
	C475.042511,340.455139 475.732391,340.455261 476.422272,340.455383 
	C497.560425,342.993256 512.959290,354.381256 523.489746,372.264648 
	C532.135376,386.947113 534.680542,403.090881 530.580383,419.749237 
	C526.295715,437.157104 516.788025,451.404236 501.152313,460.440948 
	C493.564392,464.826385 484.752411,467.093933 475.783997,470.588196 
	C468.627045,470.939667 462.180725,471.023224 455.290771,471.071045 
	C436.877747,471.026428 418.908295,471.017609 400.922607,470.989349 
	C400.906311,470.969910 400.888794,470.922333 400.888794,470.922333 
z"/>
<path fill="#A159FE" opacity="1.000000" stroke="none" 
	d="
M400.257690,471.217224 
	C400.257690,471.217194 400.611328,471.149292 400.750061,471.035828 
	C400.888794,470.922333 400.906311,470.969910 400.739685,471.427917 
	C400.543732,489.416565 400.514374,506.947174 400.321716,524.862061 
	C400.367401,526.554321 400.576416,527.862305 400.825958,529.622925 
	C400.834717,534.673706 400.802917,539.271851 400.548004,544.219360 
	C400.324951,547.166870 400.325043,549.765076 400.325165,552.363342 
	C400.359802,566.559265 400.394440,580.755127 400.043274,595.518555 
	C398.072144,598.257507 396.486786,600.428955 394.446899,602.683228 
	C374.364441,602.719666 354.736511,602.673340 335.054016,602.260437 
	C333.519958,600.957642 332.090973,599.340820 330.550537,599.226562 
	C327.314453,598.986633 323.883270,600.236145 320.774902,599.629883 
	C311.505157,597.821777 302.913757,594.070190 295.530396,588.105591 
	C290.467255,584.015381 285.822449,579.407227 280.990631,575.030640 
	C280.784149,574.733276 280.577698,574.435852 280.230133,573.542480 
	C279.379913,571.297913 278.744629,569.612671 277.947784,568.007751 
	C275.595062,563.269104 273.178406,558.562073 270.786774,553.842712 
	C270.624573,553.112183 270.462402,552.381653 270.557129,550.994995 
	C270.165039,547.894043 269.516052,545.449158 268.867065,543.004272 
	C268.827698,538.973755 268.788300,534.943298 269.143005,530.277100 
	C269.831421,527.129395 270.125732,524.617310 270.420013,522.105286 
	C270.431091,521.359802 270.442139,520.614258 270.927643,519.453857 
	C271.902924,518.446167 272.681915,517.927368 272.862305,517.249329 
	C275.024048,509.121704 278.919769,501.970367 284.534821,495.708496 
	C285.214081,494.950989 285.333344,493.691284 285.712158,492.664337 
	C286.052032,492.217590 286.391907,491.770813 287.336914,491.179474 
	C288.951294,490.457764 290.197205,490.092285 290.932556,489.270142 
	C296.850098,482.653534 304.571014,479.004639 312.603760,475.828369 
	C315.081238,474.848785 317.537201,473.814850 320.003021,472.805786 
	C320.350098,472.727203 320.697205,472.648590 321.711975,472.733429 
	C324.322113,472.262146 326.264526,471.627411 328.206970,470.992706 
	C351.580444,470.935028 374.953918,470.877350 398.826569,471.074524 
	C399.636383,471.291962 399.947052,471.254578 400.257690,471.217224 
z"/>
<path fill="#0ACD82" opacity="1.000000" stroke="none" 
	d="
M335.108582,602.627075 
	C354.736511,602.673340 374.364441,602.719666 394.813660,602.821777 
	C397.158600,602.923279 398.682251,602.968933 400.205902,603.014587 
	C400.352020,606.658081 400.616089,610.301331 400.624420,613.945129 
	C400.666656,632.423401 400.667664,650.901917 400.611877,669.380188 
	C400.604370,671.862244 400.193115,674.343079 399.730896,677.282715 
	C399.492981,677.740845 399.471100,678.136292 399.471100,678.136292 
	C394.636261,706.364807 377.816772,724.529419 350.925049,732.325134 
	C325.210785,739.779541 298.059540,729.653320 281.859253,708.095703 
	C260.020691,679.035217 265.487305,640.447632 292.416077,617.705505 
	C301.321747,610.184387 311.685822,604.722412 324.569305,603.867676 
	C328.572968,603.362732 331.840790,602.994873 335.108582,602.627075 
z"/>
<path fill="#1ABAFC" opacity="1.000000" stroke="none" 
	d="
M400.771149,543.870056 
	C400.802917,539.271851 400.834717,534.673706 401.121979,529.409912 
	C401.559204,527.623230 401.740906,526.502075 401.954773,524.954712 
	C403.190521,520.289856 403.990387,515.883606 405.668701,511.842194 
	C412.414917,495.597351 423.649658,483.552460 440.033569,476.721161 
	C445.156799,474.585022 450.494720,472.963715 455.734375,471.106750 
	C462.180725,471.023224 468.627045,470.939667 475.423950,470.826965 
	C481.527679,472.765350 487.437622,474.369049 493.005005,476.767731 
	C510.722412,484.401245 522.554565,497.615265 528.786377,515.829590 
	C538.255371,543.505615 528.059814,574.560791 503.712799,590.877808 
	C491.184875,599.273804 477.141541,604.089722 461.935364,602.534241 
	C435.824707,599.863281 413.643585,585.140869 403.871643,557.464050 
	C403.763763,557.158447 403.790710,556.805298 403.808929,555.872864 
	C403.525726,554.896912 403.188324,554.522400 402.850891,554.147888 
	C402.641663,553.461975 402.432404,552.776062 402.241089,551.212830 
	C401.763092,548.180359 401.267120,546.025208 400.771149,543.870056 
z"/>
<path fill="#FEFEFE" opacity="1.000000" stroke="none" 
	d="
M1430.000488,556.556030 
	C1439.494141,556.556030 1448.487793,556.556030 1457.809326,556.556030 
	C1463.123413,574.024231 1468.418945,591.431152 1474.151245,610.274170 
	C1479.828735,591.555237 1485.048950,574.344238 1490.349854,556.866577 
	C1507.813599,556.866577 1525.219482,556.866577 1542.819824,556.866577 
	C1542.819824,589.756165 1542.819824,622.540833 1542.819824,655.663940 
	C1530.834717,655.663940 1518.763916,655.663940 1506.188477,655.663940 
	C1506.188477,638.498962 1506.188477,621.153870 1506.188477,603.808777 
	C1505.871460,603.762695 1505.554565,603.716675 1505.237549,603.670593 
	C1499.872803,621.033142 1494.508179,638.395752 1489.119873,655.834595 
	C1479.070435,655.834595 1469.279053,655.834595 1459.170410,655.834595 
	C1453.812744,638.523254 1448.439331,621.161194 1443.065796,603.799194 
	C1442.795776,603.849304 1442.525635,603.899475 1442.255493,603.949585 
	C1442.255493,621.119507 1442.255493,638.289368 1442.255493,655.729187 
	C1429.851562,655.729187 1417.773560,655.729187 1405.420654,655.729187 
	C1405.420654,622.919495 1405.420654,590.157654 1405.420654,556.555969 
	C1413.365356,556.555969 1421.432861,556.555969 1430.000488,556.556030 
z"/>
<path fill="#FDFDFD" opacity="1.000000" stroke="none" 
	d="
M1018.156860,656.003906 
	C1016.362549,656.003906 1015.051270,656.003906 1013.443115,656.003906 
	C1013.443115,622.852234 1013.443115,589.972595 1013.443115,556.562805 
	C1026.594971,556.562805 1039.716431,556.468079 1052.831299,556.718994 
	C1054.054932,556.742432 1055.588135,558.756531 1056.383301,560.178650 
	C1063.428467,572.779724 1070.339233,585.455872 1078.073730,599.537048 
	C1078.073730,584.496765 1078.073730,570.919189 1078.073730,556.949646 
	C1090.767212,556.949646 1102.816650,556.949646 1115.252197,556.949646 
	C1115.252197,589.704651 1115.252197,622.559021 1115.252197,656.000977 
	C1102.212280,656.000977 1089.122192,656.075378 1076.036499,655.870422 
	C1074.895020,655.852539 1073.410522,654.205872 1072.713989,652.963379 
	C1066.215210,641.370972 1059.857788,629.699341 1053.447632,618.057129 
	C1052.664673,616.635010 1051.812500,615.251099 1050.355103,612.760437 
	C1050.355103,627.797913 1050.355103,641.626099 1050.355103,656.003906 
	C1039.511108,656.003906 1029.075439,656.003906 1018.156860,656.003906 
z"/>
<path fill="#FDFDFD" opacity="1.000000" stroke="none" 
	d="
M1590.129150,474.729980 
	C1585.297119,448.071838 1599.310669,424.741150 1622.976318,416.139740 
	C1649.478516,406.507477 1679.010254,415.575806 1692.404663,437.280060 
	C1711.608032,468.396851 1693.348145,508.721863 1656.929077,514.907532 
	C1634.050293,518.793396 1613.621582,513.890808 1599.081055,494.435089 
	C1594.937134,488.890411 1593.090210,481.628876 1590.129150,474.729980 
M1654.135376,477.748810 
	C1663.865112,467.727448 1661.028320,451.549835 1648.922974,448.023132 
	C1642.093384,446.033386 1634.951050,448.921661 1631.368530,455.121643 
	C1627.385254,462.015045 1628.514038,471.403137 1633.977295,476.819397 
	C1639.303711,482.100067 1646.199829,482.588531 1654.135376,477.748810 
z"/>
<path fill="#FDFDFD" opacity="1.000000" stroke="none" 
	d="
M1179.431519,434.609619 
	C1190.860962,452.314789 1192.182739,470.594299 1182.510010,488.786652 
	C1172.837646,506.978577 1156.368774,515.196960 1136.220947,515.939941 
	C1113.777100,516.767517 1095.165161,509.072723 1084.026611,488.646790 
	C1066.424927,456.369110 1087.614258,417.013580 1124.322632,413.076538 
	C1146.238770,410.725983 1165.215210,416.128082 1179.431519,434.609619 
M1128.802979,448.053314 
	C1127.468994,448.712463 1126.040039,449.230560 1124.817383,450.054871 
	C1119.096680,453.911682 1116.431274,461.930298 1118.379272,469.131927 
	C1120.230713,475.977051 1125.577637,480.669861 1132.010620,481.117401 
	C1138.473877,481.567139 1143.390015,478.888214 1146.477905,473.338959 
	C1150.090210,466.847076 1149.889526,460.156952 1145.690063,454.019867 
	C1141.851318,448.409973 1136.306519,446.353638 1128.802979,448.053314 
z"/>
<path fill="#FEFEFE" opacity="1.000000" stroke="none" 
	d="
M1020.224731,490.810913 
	C1018.476929,487.490784 1016.893005,484.503510 1015.309082,481.516235 
	C1014.957458,481.620667 1014.605774,481.725098 1014.254150,481.829498 
	C1014.254150,492.351898 1014.254150,502.874268 1014.254150,513.696411 
	C1001.703430,513.696411 989.634033,513.696411 977.281006,513.696411 
	C977.281006,480.849335 977.281006,447.928040 977.281006,414.484589 
	C985.654907,414.087158 994.111267,413.253876 1002.551880,413.391357 
	C1013.837341,413.575134 1025.284302,413.496490 1036.344116,415.388397 
	C1049.447388,417.629822 1059.499634,425.198975 1062.559692,438.972809 
	C1065.684204,453.035675 1062.974487,465.780914 1051.105225,475.889954 
	C1058.870728,488.264709 1066.704102,500.747528 1075.021851,514.002197 
	C1063.774414,514.002197 1053.174194,513.374329 1042.689941,514.206482 
	C1034.707153,514.840088 1030.096558,512.510010 1027.448730,504.872681 
	C1025.779785,500.059082 1022.787354,495.704346 1020.224731,490.810913 
M1022.065369,441.093719 
	C1019.540955,440.673035 1017.016541,440.252319 1014.260437,439.792999 
	C1014.260437,445.542511 1014.260437,450.590851 1014.260437,455.692932 
	C1019.225708,456.078705 1023.741272,455.782898 1025.958496,450.847687 
	C1027.695923,446.980011 1026.336182,443.746399 1022.065369,441.093719 
z"/>
<path fill="#FDFDFD" opacity="1.000000" stroke="none" 
	d="
M1595.211426,650.367920 
	C1594.806641,652.405579 1594.489746,654.023560 1594.145264,655.782288 
	C1580.358765,655.782288 1566.805664,655.782288 1552.929565,655.782288 
	C1562.666504,622.546021 1572.318237,589.600220 1581.999023,556.555664 
	C1597.529297,556.555664 1612.663818,556.510254 1627.796631,556.652405 
	C1628.868042,556.662476 1630.602539,557.852722 1630.892944,558.831360 
	C1640.434082,590.970886 1649.835938,623.151611 1659.369751,655.706787 
	C1645.435547,655.706787 1631.901367,655.706787 1618.211182,655.706787 
	C1617.255249,651.199280 1616.300781,646.698914 1615.321899,642.083496 
	C1609.250244,642.083496 1603.459961,642.083496 1597.118286,642.083496 
	C1596.537476,644.595215 1595.918579,647.271729 1595.211426,650.367920 
M1604.985229,599.651489 
	C1603.775269,605.967285 1602.565308,612.283081 1601.312012,618.825439 
	C1604.686157,618.825439 1607.778442,618.825439 1611.061890,618.825439 
	C1609.532593,610.934143 1608.053833,603.303162 1606.431396,594.931519 
	C1605.818481,596.736938 1605.450562,597.820923 1604.985229,599.651489 
z"/>
<path fill="#FDFDFD" opacity="1.000000" stroke="none" 
	d="
M1302.146118,438.000000 
	C1302.146118,430.028015 1302.146118,422.556030 1302.146118,414.821136 
	C1327.764038,414.821136 1353.039429,414.821136 1378.649414,414.821136 
	C1378.649414,424.029144 1378.649414,433.241089 1378.649414,442.963379 
	C1365.667725,442.963379 1352.604736,442.963379 1339.357300,442.963379 
	C1339.357300,445.411682 1339.357300,447.358704 1339.357300,449.792450 
	C1351.331543,449.792450 1363.403442,449.792450 1375.780151,449.792450 
	C1375.780151,459.514374 1375.780151,468.759674 1375.780151,478.549500 
	C1363.773193,478.549500 1351.698364,478.549500 1339.399658,478.549500 
	C1339.399658,481.009918 1339.399658,482.933380 1339.399658,485.368042 
	C1353.406372,485.368042 1367.314087,485.368042 1381.556763,485.368042 
	C1381.556763,495.067169 1381.556763,504.270447 1381.556763,513.740540 
	C1355.297852,513.740540 1329.039185,513.740540 1302.146118,513.740540 
	C1302.146118,488.687500 1302.146118,463.593719 1302.146118,438.000000 
z"/>
<path fill="#FDFDFD" opacity="1.000000" stroke="none" 
	d="
M987.908936,592.039551 
	C990.374268,592.039551 992.350952,592.039551 994.629700,592.039551 
	C994.629700,601.535217 994.629700,610.772827 994.629700,620.482910 
	C982.571838,620.482910 970.495239,620.482910 958.200317,620.482910 
	C958.200317,623.042786 958.200317,625.133850 958.200317,627.639160 
	C972.323669,627.639160 986.244385,627.639160 1000.413635,627.639160 
	C1000.413635,637.134277 1000.413635,646.220154 1000.413635,655.655396 
	C974.182129,655.655396 947.950500,655.655396 921.358765,655.655396 
	C921.358765,623.042969 921.358765,590.156799 921.358765,556.912231 
	C946.545959,556.912231 971.909729,556.912231 997.552124,556.912231 
	C997.552124,566.056641 997.552124,575.141296 997.552124,584.731689 
	C984.649902,584.731689 971.598755,584.731689 958.263733,584.731689 
	C958.263733,587.296814 958.263733,589.368347 958.263733,592.039551 
	C967.889893,592.039551 977.655090,592.039551 987.908936,592.039551 
z"/>
<path fill="#FDFDFD" opacity="1.000000" stroke="none" 
	d="
M1377.988159,606.169495 
	C1382.463867,606.169495 1386.441650,606.169495 1391.132446,606.169495 
	C1391.132446,615.150208 1390.473145,623.964111 1391.327026,632.628906 
	C1392.105103,640.524963 1388.565308,644.923645 1382.572388,648.830627 
	C1353.401245,667.848450 1307.886597,658.032593 1298.627441,617.607788 
	C1290.958984,584.128357 1317.583008,552.661621 1352.125000,554.472290 
	C1368.193848,555.314514 1381.323364,560.777588 1389.625000,570.323730 
	C1384.064209,579.122742 1378.423340,588.048340 1372.754272,597.018494 
	C1366.465698,592.363953 1360.143433,588.702759 1352.315674,589.542053 
	C1342.990356,590.541931 1336.867310,597.691833 1337.233276,606.866699 
	C1337.607422,616.252869 1343.970093,622.656128 1353.420898,623.137939 
	C1354.415527,623.188660 1355.414917,623.144714 1356.820068,623.144714 
	C1356.820068,617.691895 1356.820068,612.270020 1356.820068,606.169495 
	C1363.968506,606.169495 1370.729370,606.169495 1377.988159,606.169495 
z"/>
<path fill="#FDFDFD" opacity="1.000000" stroke="none" 
	d="
M913.161865,487.264954 
	C913.161926,496.351196 913.161926,504.966614 913.161926,513.783203 
	C900.717468,513.783203 888.650818,513.783203 876.364990,513.783203 
	C876.364990,480.810699 876.364990,448.057556 876.364990,415.072571 
	C876.842468,414.871094 877.419556,414.418488 878.001404,414.412354 
	C895.462830,414.228363 912.925476,413.956055 930.385925,414.051300 
	C933.959595,414.070770 937.625977,415.188538 941.078003,416.322510 
	C957.733032,421.793549 965.555969,434.247498 964.040649,452.517059 
	C962.774719,467.780731 951.506836,479.771240 935.421143,481.823242 
	C928.250671,482.737976 920.866516,481.977753 913.161865,481.977753 
	C913.161865,483.850525 913.161865,485.322327 913.161865,487.264954 
M919.904480,440.211029 
	C917.803162,440.211029 915.701843,440.211029 913.469727,440.211029 
	C913.469727,445.573730 913.469727,450.585022 913.469727,455.562073 
	C921.595886,456.196503 925.917419,454.356232 927.035095,449.956116 
	C928.143921,445.591034 926.258789,442.729340 919.904480,440.211029 
z"/>
<path fill="#FDFDFD" opacity="1.000000" stroke="none" 
	d="
M1472.361084,509.401917 
	C1448.435181,520.911560 1422.231079,517.257080 1406.023560,500.397949 
	C1391.388916,485.175018 1387.471436,461.722260 1396.340576,442.429443 
	C1405.156006,423.253235 1424.979004,411.406555 1446.339722,412.462860 
	C1460.604858,413.168274 1473.377441,417.406677 1484.069824,428.015167 
	C1478.396118,436.993927 1472.766357,445.903229 1467.902100,453.600952 
	C1460.839478,451.354553 1454.623169,448.359833 1448.144409,447.599030 
	C1441.487183,446.817261 1435.801270,450.401978 1433.096802,456.970978 
	C1430.459229,463.377655 1430.838135,469.779633 1435.361694,475.324799 
	C1440.105713,481.140228 1446.648315,482.392975 1453.450317,480.499878 
	C1458.135010,479.196136 1462.444946,476.546295 1467.422729,474.269257 
	C1472.691895,482.586761 1478.270264,491.392120 1484.332275,500.961060 
	C1480.406250,503.733856 1476.538452,506.465576 1472.361084,509.401917 
z"/>
<path fill="#FDFDFD" opacity="1.000000" stroke="none" 
	d="
M1160.999756,559.357727 
	C1161.919189,558.114014 1162.835449,556.659851 1163.757568,556.656006 
	C1187.076782,556.558533 1210.396729,556.611816 1233.716431,556.658325 
	C1234.015991,556.658936 1234.315063,556.913574 1234.765625,557.118347 
	C1234.765625,567.158691 1234.765625,577.263062 1234.765625,587.823242 
	C1222.546753,587.823242 1210.482666,587.823242 1198.200562,587.823242 
	C1198.200562,591.691772 1198.200562,595.111816 1198.200562,599.036133 
	C1207.932007,599.036133 1217.655640,599.036133 1227.621094,599.036133 
	C1227.621094,608.762207 1227.621094,617.988647 1227.621094,627.544922 
	C1217.795166,627.544922 1208.184937,627.544922 1198.092773,627.544922 
	C1198.092773,637.090576 1198.092773,646.327026 1198.092773,655.776978 
	C1185.545288,655.776978 1173.481323,655.776978 1160.999390,655.776978 
	C1160.999390,623.691406 1160.999390,591.757202 1160.999756,559.357727 
z"/>
<path fill="#FDFDFD" opacity="1.000000" stroke="none" 
	d="
M1277.930176,447.973633 
	C1277.682129,448.445496 1277.589478,448.583984 1277.490601,448.717987 
	C1264.807617,465.892731 1259.610718,485.012238 1262.403931,506.262512 
	C1262.722778,508.688385 1262.447144,511.192383 1262.447144,514.003418 
	C1250.886230,514.003418 1239.757080,514.008240 1228.627930,513.994873 
	C1227.673706,513.993713 1226.719849,513.871887 1225.365967,513.778564 
	C1225.365967,502.740814 1225.575317,491.944855 1225.245605,481.165405 
	C1225.139404,477.688446 1224.276489,473.896973 1222.631470,470.860657 
	C1213.293457,453.623901 1203.609253,436.574768 1194.057617,419.453491 
	C1193.283569,418.065918 1192.622559,416.615265 1191.588745,414.556000 
	C1205.484863,414.556000 1218.745972,414.485809 1232.002930,414.690308 
	C1233.053589,414.706512 1234.561523,416.444702 1235.030640,417.693085 
	C1237.974854,425.528839 1240.684814,433.452698 1243.935913,442.660248 
	C1247.177856,433.523224 1249.878418,425.596832 1252.871216,417.782349 
	C1253.377930,416.459381 1255.125244,414.712524 1256.325195,414.692200 
	C1269.427734,414.470398 1282.535156,414.553284 1296.535156,414.553284 
	C1290.130615,426.036438 1284.106567,436.837311 1277.930176,447.973633 
z"/>
<path fill="#FEFEFE" opacity="1.000000" stroke="none" 
	d="
M1516.840576,466.001465 
	C1516.840576,459.677032 1516.840576,453.852142 1516.840576,447.530853 
	C1507.945312,447.530853 1499.209595,447.530853 1490.175049,447.530853 
	C1490.175049,436.456604 1490.175049,425.872925 1490.175049,414.921448 
	C1520.125854,414.921448 1550.157104,414.921448 1580.516113,414.921448 
	C1580.516113,425.458557 1580.516113,436.005707 1580.516113,447.100983 
	C1571.835449,447.100983 1563.114990,447.100983 1554.002197,447.100983 
	C1554.002197,469.546875 1554.002197,491.453979 1554.002197,513.680176 
	C1541.544067,513.680176 1529.483032,513.680176 1516.840576,513.680176 
	C1516.840576,497.999573 1516.840576,482.250275 1516.840576,466.001465 
z"/>
<path fill="#FDFDFD" opacity="1.000000" stroke="none" 
	d="
M1246.146729,637.998779 
	C1246.146729,610.697571 1246.146729,583.895996 1246.146729,556.825317 
	C1258.584961,556.825317 1270.680664,556.825317 1282.805420,556.825317 
	C1282.941284,557.455200 1283.133911,557.931702 1283.134033,558.408325 
	C1283.148315,590.730286 1283.147095,623.052246 1283.147095,655.688354 
	C1270.950684,655.688354 1258.867188,655.688354 1246.146729,655.688354 
	C1246.146729,650.031677 1246.146729,644.265015 1246.146729,637.998779 
z"/>
<path fill="#6B54B8" opacity="1.000000" stroke="none" 
	d="
M335.054016,602.260498 
	C331.840790,602.994873 328.572968,603.362732 325.082001,603.766235 
	C322.836151,602.838623 320.905426,601.519958 318.776062,600.969116 
	C303.225189,596.946533 290.454651,588.848877 281.003906,575.376953 
	C285.822449,579.407227 290.467255,584.015381 295.530396,588.105591 
	C302.913757,594.070190 311.505157,597.821777 320.774902,599.629883 
	C323.883270,600.236145 327.314453,598.986633 330.550537,599.226562 
	C332.090973,599.340820 333.519958,600.957642 335.054016,602.260498 
z"/>
<path fill="#6B54B8" opacity="1.000000" stroke="none" 
	d="
M319.713257,472.642334 
	C317.537201,473.814850 315.081238,474.848785 312.603760,475.828369 
	C304.571014,479.004639 296.850098,482.653534 290.932556,489.270142 
	C290.197205,490.092285 288.951294,490.457764 287.606506,491.074890 
	C293.892853,482.334106 303.211700,477.645203 313.246033,474.086121 
	C315.243866,473.377472 317.361206,473.005890 319.713257,472.642334 
z"/>
<path fill="#6B54B8" opacity="1.000000" stroke="none" 
	d="
M285.391449,492.771301 
	C285.333344,493.691284 285.214081,494.950989 284.534821,495.708496 
	C278.919769,501.970367 275.024048,509.121704 272.862305,517.249329 
	C272.681915,517.927368 271.902924,518.446167 271.072632,519.108887 
	C273.345215,509.227753 277.580414,500.166382 285.391449,492.771301 
z"/>
<path fill="#6B54B8" opacity="1.000000" stroke="none" 
	d="
M270.657532,554.188599 
	C273.178406,558.562073 275.595062,563.269104 277.947784,568.007751 
	C278.744629,569.612671 279.379913,571.297913 280.101562,573.302856 
	C277.547211,569.163635 274.889008,564.716553 272.460449,560.147278 
	C271.543213,558.421631 271.156738,556.413757 270.657532,554.188599 
z"/>
<path fill="#6B54B8" opacity="1.000000" stroke="none" 
	d="
M400.353546,602.583923 
	C398.682251,602.968933 397.158600,602.923279 395.268188,602.739014 
	C396.486786,600.428955 398.072144,598.257507 399.945282,595.963745 
	C400.322479,597.945374 400.411835,600.049316 400.353546,602.583923 
z"/>
<path fill="#6B54B8" opacity="1.000000" stroke="none" 
	d="
M270.160889,522.337646 
	C270.125732,524.617310 269.831421,527.129395 269.211548,529.817627 
	C269.224579,527.519165 269.563171,525.044556 270.160889,522.337646 
z"/>
<path fill="#6B54B8" opacity="1.000000" stroke="none" 
	d="
M268.697571,543.311646 
	C269.516052,545.449158 270.165039,547.894043 270.589050,550.618408 
	C269.752045,548.471680 269.140045,546.045349 268.697571,543.311646 
z"/>
<path fill="#6B54B8" opacity="1.000000" stroke="none" 
	d="
M400.548004,544.219360 
	C401.267120,546.025208 401.763092,548.180359 402.217102,550.670898 
	C401.756378,551.293884 401.337555,551.581604 400.621948,552.116333 
	C400.325043,549.765076 400.324951,547.166870 400.548004,544.219360 
z"/>
<path fill="#6B54B8" opacity="1.000000" stroke="none" 
	d="
M327.990540,470.789551 
	C326.264526,471.627411 324.322113,472.262146 321.979462,472.753937 
	C322.403564,471.895142 323.227844,471.179291 324.457306,470.265472 
	C325.833008,470.240448 326.803528,470.413391 327.990540,470.789551 
z"/>
<path fill="#F04E1F" opacity="1.000000" stroke="none" 
	d="
M476.264221,340.217773 
	C475.732391,340.455261 475.042511,340.455139 474.219604,340.219116 
	C474.759796,339.982208 475.433014,339.981201 476.264221,340.217773 
z"/>
<path fill="#6B54B8" opacity="1.000000" stroke="none" 
	d="
M399.555054,678.248596 
	C399.471100,678.136292 399.492981,677.740845 399.559631,677.732422 
	C399.757294,677.871521 399.888336,678.019043 400.019409,678.166626 
	C399.892609,678.231384 399.765808,678.296143 399.555054,678.248596 
z"/>
<path fill="#6B54B8" opacity="1.000000" stroke="none" 
	d="
M402.699890,554.323608 
	C403.188324,554.522400 403.525726,554.896912 403.778076,555.450806 
	C403.311646,555.253235 402.930298,554.876282 402.699890,554.323608 
z"/>
<path fill="#6B54B8" opacity="1.000000" stroke="none" 
	d="
M400.035126,471.080566 
	C399.947052,471.254578 399.636383,471.291962 399.308472,471.152557 
	C399.464996,470.965149 399.638763,470.954529 400.035126,471.080566 
z"/>
<path fill="#05080B" opacity="1.000000" stroke="none" 
	d="
M455.290771,471.071014 
	C450.494720,472.963715 445.156799,474.585022 440.033569,476.721161 
	C423.649658,483.552460 412.414917,495.597351 405.668701,511.842194 
	C403.990387,515.883606 403.190521,520.289856 401.718414,524.791382 
	C401.128296,524.862183 400.806671,524.669983 400.485046,524.477783 
	C400.514374,506.947174 400.543732,489.416565 400.755981,471.447388 
	C418.908295,471.017609 436.877747,471.026428 455.290771,471.071014 
z"/>
<path fill="#6B54B8" opacity="1.000000" stroke="none" 
	d="
M400.321716,524.862061 
	C400.806671,524.669983 401.128296,524.862183 401.686279,525.217651 
	C401.740906,526.502075 401.559204,527.623230 401.081451,528.957397 
	C400.576416,527.862305 400.367401,526.554321 400.321716,524.862061 
z"/>
<path fill="#040404" opacity="1.000000" stroke="none" 
	d="
M1653.835693,477.976746 
	C1646.199829,482.588531 1639.303711,482.100067 1633.977295,476.819397 
	C1628.514038,471.403137 1627.385254,462.015045 1631.368530,455.121643 
	C1634.951050,448.921661 1642.093384,446.033386 1648.922974,448.023132 
	C1661.028320,451.549835 1663.865112,467.727448 1653.835693,477.976746 
z"/>
<path fill="#040404" opacity="1.000000" stroke="none" 
	d="
M1129.187256,447.973694 
	C1136.306519,446.353638 1141.851318,448.409973 1145.690063,454.019867 
	C1149.889526,460.156952 1150.090210,466.847076 1146.477905,473.338959 
	C1143.390015,478.888214 1138.473877,481.567139 1132.010620,481.117401 
	C1125.577637,480.669861 1120.230713,475.977051 1118.379272,469.131927 
	C1116.431274,461.930298 1119.096680,453.911682 1124.817383,450.054871 
	C1126.040039,449.230560 1127.468994,448.712463 1129.187256,447.973694 
z"/>
<path fill="#05080B" opacity="1.000000" stroke="none" 
	d="
M1022.398804,441.297546 
	C1026.336182,443.746399 1027.695923,446.980011 1025.958496,450.847687 
	C1023.741272,455.782898 1019.225708,456.078705 1014.260437,455.692932 
	C1014.260437,450.590851 1014.260437,445.542511 1014.260437,439.792999 
	C1017.016541,440.252319 1019.540955,440.673035 1022.398804,441.297546 
z"/>
<path fill="#0C0C0C" opacity="1.000000" stroke="none" 
	d="
M1605.033936,599.278198 
	C1605.450562,597.820923 1605.818481,596.736938 1606.431396,594.931519 
	C1608.053833,603.303162 1609.532593,610.934143 1611.061890,618.825439 
	C1607.778442,618.825439 1604.686157,618.825439 1601.312012,618.825439 
	C1602.565308,612.283081 1603.775269,605.967285 1605.033936,599.278198 
z"/>
<path fill="#0C0C0C" opacity="1.000000" stroke="none" 
	d="
M920.310791,440.287964 
	C926.258789,442.729340 928.143921,445.591034 927.035095,449.956116 
	C925.917419,454.356232 921.595886,456.196503 913.469727,455.562073 
	C913.469727,450.585022 913.469727,445.573730 913.469727,440.211029 
	C915.701843,440.211029 917.803162,440.211029 920.310791,440.287964 
z"/>
</svg>