<svg version="1.1" id="Layer_1" xmlns="http://www.w3.org/2000/svg" xmlns:xlink="http://www.w3.org/1999/xlink" x="0px" y="0px"
	 width="100%" viewBox="0 0 1000 1000" enable-background="new 0 0 1000 1000" xml:space="preserve">
<path fill="#FFFFFF" opacity="1.000000" stroke="none" 
	d="
M581.000000,1001.000000 
	C387.333344,1001.000000 194.166672,1001.000000 1.000000,1001.000000 
	C1.000000,667.666687 1.000000,334.333344 1.000000,1.000000 
	C334.333344,1.000000 667.666687,1.000000 1001.000000,1.000000 
	C1001.000000,334.333344 1001.000000,667.666687 1001.000000,1001.000000 
	C861.166687,1001.000000 721.333313,1001.000000 581.000000,1001.000000 
M772.125610,429.005646 
	C765.883850,429.005646 759.642029,429.005646 753.068970,429.005646 
	C753.068970,436.277527 753.068970,443.176666 752.125427,450.005341 
	C745.533325,450.005341 738.941284,450.005341 732.075378,450.005341 
	C732.075378,470.978516 732.075378,491.523895 731.130249,512.004883 
	C717.728394,512.026367 704.326477,512.047791 690.994629,511.125854 
	C690.994629,504.857635 690.994629,498.589447 690.994629,491.944946 
	C697.854065,491.944946 704.258179,491.944946 710.789429,491.944946 
	C710.789429,484.828094 710.789429,478.099365 710.789429,470.985168 
	C704.187500,470.985168 697.781677,470.985168 690.828430,470.985168 
	C690.828430,463.753082 690.828430,456.889435 690.828430,450.356567 
	C683.528442,450.356567 676.793457,450.356567 670.068970,450.356567 
	C670.068970,471.167328 670.068970,491.621552 669.125427,512.005371 
	C662.526306,512.005371 655.927185,512.005371 648.953491,512.005371 
	C648.953491,505.153595 648.953491,498.749664 648.953491,491.978455 
	C641.845886,491.978455 635.109497,491.978455 628.366089,491.978455 
	C628.366089,484.742126 628.366089,477.896118 628.366089,470.677673 
	C635.466187,470.677673 642.201721,470.677673 648.659790,470.677673 
	C648.659790,463.558777 648.659790,456.826202 648.659790,449.729370 
	C641.587402,449.729370 634.852661,449.729370 627.924194,449.729370 
	C627.924194,442.541199 627.924194,435.736084 628.869324,428.995117 
	C635.565979,428.995117 642.262634,428.995117 648.930847,428.995117 
	C648.930847,421.822174 648.930847,415.373169 649.874573,408.994659 
	C663.482971,408.994659 677.091370,408.994659 691.094727,408.994659 
	C691.094727,415.890869 691.094727,422.305847 691.094727,428.748840 
	C704.901611,428.748840 718.306458,428.748840 732.109070,428.748840 
	C732.109070,415.093597 732.109070,401.683990 732.109070,387.884888 
	C759.913025,387.884888 787.319458,387.884888 814.739319,387.884888 
	C814.739319,374.079010 814.739319,360.674011 814.739319,347.264099 
	C800.738586,347.264099 787.000244,347.264099 772.864502,347.264099 
	C772.864502,353.933319 772.864502,360.348083 772.864502,366.728027 
	C766.055054,366.728027 759.649780,366.728027 752.848755,366.728027 
	C752.848755,360.051453 752.848755,353.638916 752.848755,347.279816 
	C745.705505,347.279816 738.965881,347.279816 731.833069,347.279816 
	C731.833069,353.964508 731.833069,360.376068 731.833069,367.174744 
	C724.693054,367.174744 717.949158,367.174744 710.817444,367.174744 
	C710.817444,374.315155 710.817444,381.059082 710.817444,387.704407 
	C704.006287,387.704407 697.598877,387.704407 690.802124,387.704407 
	C690.802124,374.003082 690.802124,360.593445 690.802124,347.302917 
	C683.657166,347.302917 676.916443,347.302917 669.786743,347.302917 
	C669.786743,354.013489 669.786743,360.425995 669.786743,366.689728 
	C655.644836,366.689728 641.905334,366.689728 627.924194,366.689728 
	C627.924194,359.897400 627.924194,353.414185 628.869324,346.995117 
	C635.474731,346.995117 642.080078,346.995117 648.786621,346.995117 
	C648.786621,325.808899 648.786621,305.087463 648.786621,283.973999 
	C641.844360,283.973999 635.101624,283.973999 628.197205,283.973999 
	C628.197205,270.187012 628.197205,256.792938 628.197205,243.006363 
	C635.122009,243.006363 641.864746,243.006363 648.651001,243.006363 
	C648.651001,222.105301 648.651001,201.598740 648.651001,181.328156 
	C627.911072,181.328156 607.520996,181.328156 586.743896,181.328156 
	C586.743896,188.060913 586.743896,194.469742 586.743896,201.073486 
	C572.546631,201.073486 558.741943,201.073486 544.995544,200.128830 
	C544.995544,193.870255 544.995544,187.611679 544.995544,181.367126 
	C538.058472,181.367126 531.553650,181.367126 525.342163,181.367126 
	C525.342163,188.128601 525.342163,194.520874 525.342163,200.931610 
	C532.149292,200.931610 538.614380,200.931610 545.005615,201.874847 
	C545.005615,208.466232 545.005615,215.057632 545.005615,222.158508 
	C559.249756,222.158508 573.075317,222.158508 587.075806,222.158508 
	C587.075806,229.474197 587.075806,236.271576 586.130676,243.004898 
	C579.433105,243.004898 572.735535,243.004898 566.069153,243.004898 
	C566.069153,250.513046 566.069153,257.294434 565.125549,264.005341 
	C558.528320,264.005341 551.931152,264.005341 544.962891,264.005341 
	C544.962891,256.828369 544.962891,250.095749 544.962891,243.349808 
	C531.082214,243.349808 517.585266,243.349808 504.075867,243.349808 
	C504.075867,257.156067 504.075867,270.612549 503.130554,284.004883 
	C489.885345,284.004883 476.640106,284.004883 462.868591,284.004883 
	C462.868591,298.218109 462.868591,312.051605 462.868591,326.073334 
	C455.538574,326.073334 448.738037,326.073334 441.995514,325.128540 
	C441.995514,318.536865 441.995514,311.945221 441.995514,305.367249 
	C434.724884,305.367249 427.886993,305.367249 421.342346,305.367249 
	C421.342346,312.461548 421.342346,319.186737 421.342346,325.931458 
	C428.482910,325.931458 435.281281,325.931458 442.005615,326.874603 
	C442.028198,333.603912 442.050751,340.333191 441.128540,347.004486 
	C434.537354,347.004486 427.946167,347.004486 421.367249,347.004486 
	C421.367249,353.940735 421.367249,360.445984 421.367249,366.658417 
	C428.461212,366.658417 435.185913,366.658417 441.931458,366.658417 
	C441.931458,359.851440 441.931458,353.385895 442.874817,346.994385 
	C456.275146,346.973236 469.675507,346.952087 483.005341,347.874298 
	C483.005341,354.126434 483.005341,360.378601 483.005341,367.160614 
	C476.088989,367.160614 469.573669,367.160614 463.075867,367.160614 
	C463.075867,374.489319 463.075867,381.279175 462.130554,388.004883 
	C448.547485,388.004883 434.964417,388.004883 421.365356,388.004883 
	C421.365356,395.258942 421.365356,402.103729 421.365356,409.319092 
	C428.463226,409.319092 435.197205,409.319092 442.069061,409.319092 
	C442.069061,423.159058 442.069061,436.617432 441.125397,450.005341 
	C420.877289,450.005341 400.629150,450.005341 380.345734,450.005341 
	C380.345734,429.091583 380.345734,408.594910 380.345734,387.713379 
	C387.093872,387.713379 393.496307,387.713379 399.671509,387.713379 
	C399.671509,380.587738 399.671509,373.853363 399.671509,366.747986 
	C392.941589,366.747986 386.536041,366.747986 379.926666,366.747986 
	C379.926666,359.886230 379.926666,353.411865 380.871277,346.995514 
	C387.136841,346.995514 393.402435,346.995514 399.632782,346.995514 
	C399.632782,332.715607 399.632782,318.885101 399.632782,305.352783 
	C392.864044,305.352783 386.464508,305.352783 380.068542,305.352783 
	C380.068542,319.496918 380.068542,333.288300 379.125183,347.005615 
	C358.547150,347.005615 337.969086,347.005615 316.829895,347.005615 
	C316.829895,353.911713 316.829895,360.444183 316.829895,366.643127 
	C309.861298,366.643127 303.458588,366.643127 296.692505,366.643127 
	C296.692505,359.883820 296.692505,353.479553 296.692505,347.321564 
	C282.583282,347.321564 268.862366,347.321564 255.073425,347.321564 
	C255.073425,354.115997 255.073425,360.589294 254.128830,367.004517 
	C247.860977,367.004517 241.593140,367.004517 234.949951,367.004517 
	C234.949951,360.150513 234.949951,353.745605 234.949951,347.206604 
	C227.835052,347.206604 221.107086,347.206604 214.356155,347.206604 
	C214.356155,360.919006 214.356155,374.421844 214.356155,387.670746 
	C228.100540,387.670746 241.487610,387.670746 254.931549,387.670746 
	C254.931549,380.534668 254.931549,373.727539 255.874786,366.994385 
	C262.469940,366.994385 269.065094,366.994385 276.028503,366.994385 
	C276.028503,374.163574 276.028503,380.893707 276.028503,388.079651 
	C296.958679,388.079651 317.513611,388.079651 337.999878,388.006317 
	C337.999878,388.006317 337.926666,387.937500 337.994843,388.880280 
	C337.970032,395.609711 337.945190,402.339111 337.993683,408.999878 
	C337.993683,408.999878 338.062500,408.926666 337.119507,408.994843 
	C323.860046,408.994843 310.600586,408.994843 297.216919,408.994843 
	C297.216919,415.846832 297.216919,422.244659 297.216919,429.030426 
	C303.827667,429.030426 310.235535,429.030426 317.016266,429.030426 
	C317.016266,436.146637 317.016266,442.887024 317.016266,450.165955 
	C331.245392,450.165955 345.095459,450.165955 358.647430,450.165955 
	C358.647430,457.458923 358.647430,464.195862 358.647430,471.277405 
	C337.911377,471.277405 317.526917,471.277405 297.075867,471.277405 
	C297.075867,478.451599 297.075867,485.260315 296.130554,492.004883 
	C282.399475,492.027740 268.668396,492.050598 254.995499,491.128632 
	C254.995499,484.456116 254.995499,477.783600 254.995499,470.872803 
	C247.932785,470.872803 241.525940,470.872803 235.008362,469.957489 
	C235.008362,463.380188 235.008362,456.802887 235.008362,450.257568 
	C227.717560,450.257568 220.995560,450.257568 214.236282,450.257568 
	C214.236282,457.239685 214.236282,463.961456 214.236282,470.720459 
	C221.399231,470.720459 228.326447,470.720459 235.019012,471.713226 
	C235.019012,478.443481 235.019012,485.173737 235.019012,491.931610 
	C242.143814,491.931610 248.611633,491.931610 255.005615,492.874969 
	C255.005615,506.231201 255.005615,519.587463 255.005615,533.303101 
	C247.883728,533.303101 241.490173,533.303101 235.073486,533.303101 
	C235.073486,540.471069 235.073486,547.266846 234.128662,554.004456 
	C227.537003,554.004456 220.945328,554.004456 214.367188,554.004456 
	C214.367188,561.274536 214.367188,568.112732 214.367188,574.657715 
	C221.461395,574.657715 228.186615,574.657715 234.931610,574.657715 
	C234.931610,567.517212 234.931610,560.718872 235.874664,553.994385 
	C242.127151,553.994385 248.379639,553.994385 255.160675,553.994385 
	C255.160675,561.245178 255.160675,568.091797 255.160675,574.924194 
	C262.488495,574.924194 269.278748,574.924194 276.004883,575.869141 
	C276.004883,582.122620 276.004883,588.376099 276.004883,594.651367 
	C283.251373,594.651367 290.082977,594.651367 296.930878,594.651367 
	C296.930878,587.843323 296.930878,581.383850 297.874542,574.994629 
	C318.124176,574.994629 338.373810,574.994629 358.801178,574.994629 
	C358.801178,567.855530 358.801178,561.125549 358.801178,553.843811 
	C344.764008,553.843811 330.915161,553.843811 317.345947,553.843811 
	C317.345947,546.553406 317.345947,539.817444 317.345947,532.726135 
	C331.416016,532.726135 345.141815,532.726135 358.930939,532.726135 
	C358.930939,525.541992 358.930939,518.733093 359.874390,511.994629 
	C366.605774,512.022949 373.337189,512.051270 379.999908,512.006287 
	C379.999908,512.006287 379.926727,511.937469 379.994843,512.880371 
	C379.994843,519.464966 379.994843,526.049500 379.994843,532.924194 
	C393.967010,532.924194 407.518005,532.924194 421.004883,533.869324 
	C421.004883,540.455017 421.004883,547.040710 421.004883,554.156860 
	C428.240723,554.156860 435.088348,554.156860 442.075836,554.156860 
	C442.075836,561.486572 442.075836,568.277832 441.130585,575.004883 
	C427.532593,575.004883 413.934631,575.004883 400.222443,575.004883 
	C400.222443,581.853821 400.222443,588.253723 400.222443,595.044250 
	C407.174530,595.044250 413.917206,595.044250 421.279388,595.044250 
	C421.279388,602.371948 421.279388,609.312744 420.286499,616.018982 
	C406.886963,616.018982 393.487427,616.018982 380.324768,616.018982 
	C380.324768,637.083923 380.324768,657.473022 380.324768,677.679199 
	C387.056824,677.679199 393.460663,677.679199 400.240417,677.679199 
	C400.240417,670.621704 400.240417,663.880127 400.240417,656.926758 
	C407.441956,656.926758 414.252197,656.926758 421.004486,657.871582 
	C421.004486,671.459778 421.004486,685.047913 421.004486,698.798462 
	C428.154083,698.798462 434.882233,698.798462 442.172180,698.798462 
	C442.172180,691.752136 442.172180,684.888977 442.172180,677.674866 
	C449.469727,677.674866 456.206451,677.674866 462.655212,677.674866 
	C462.655212,670.551941 462.655212,663.817871 462.655212,657.068604 
	C448.513763,657.068604 434.717010,657.068604 420.994385,656.125244 
	C421.038635,642.789795 421.082855,629.454407 422.042389,616.008301 
	C428.638947,616.008301 435.235504,616.008301 442.215149,616.008301 
	C442.215149,623.348877 442.215149,630.096252 442.215149,636.687805 
	C456.024750,636.687805 469.431396,636.687805 482.930878,636.687805 
	C482.930878,629.558899 482.930878,622.741577 483.874542,615.994629 
	C504.231812,615.994629 524.589111,615.994629 545.075867,615.994629 
	C545.075867,637.177124 545.075867,657.623047 544.130981,678.004883 
	C537.733154,678.027710 531.335266,678.050537 524.995544,677.128418 
	C524.995544,663.873291 524.995544,650.618164 524.995544,637.201782 
	C517.845276,637.201782 511.117218,637.201782 503.826569,637.201782 
	C503.826569,643.914490 503.826569,650.445801 503.826569,657.325684 
	C496.528290,657.325684 489.791870,657.325684 483.345154,657.325684 
	C483.345154,664.449219 483.345154,671.183105 483.345154,677.931519 
	C497.486694,677.931519 511.283142,677.931519 525.005615,678.874878 
	C525.005615,692.463623 525.005615,706.052368 525.005615,719.647827 
	C545.926697,719.647827 566.420715,719.647827 586.673218,719.647827 
	C586.673218,705.573181 586.673218,691.851990 586.673218,678.068909 
	C579.539307,678.068909 572.731689,678.068909 565.994629,677.125183 
	C565.994629,656.867493 565.994629,636.609741 565.994629,615.971436 
	C580.163391,615.971436 593.894958,615.971436 607.798035,615.971436 
	C607.798035,608.854492 607.798035,602.121765 607.798035,594.997009 
	C600.868164,594.997009 594.125549,594.997009 587.004944,594.997009 
	C587.004944,588.210205 587.004944,581.800110 587.004944,574.845093 
	C572.768311,574.845093 558.913696,574.845093 544.694580,574.845093 
	C544.694580,560.554626 544.694580,546.823059 544.694580,532.711182 
	C537.905151,532.711182 531.497192,532.711182 525.336670,532.711182 
	C525.336670,525.577515 525.336670,518.839661 525.336670,511.727234 
	C532.078430,511.727234 538.486267,511.727234 544.670898,511.727234 
	C544.670898,504.926361 544.670898,498.521942 544.670898,492.069061 
	C530.869385,492.069061 517.396790,492.069061 503.994690,491.125610 
	C503.971161,484.394073 503.947662,477.662506 504.869446,470.995117 
	C525.271545,470.973694 545.673584,470.952301 566.005371,471.874420 
	C566.005371,478.479065 566.005371,485.083679 566.005371,492.070374 
	C573.202087,492.070374 579.943787,492.070374 587.052490,492.070374 
	C587.052490,505.854401 587.052490,519.252380 587.052490,533.025879 
	C600.827332,533.025879 614.225464,533.025879 627.659607,533.025879 
	C627.659607,567.903442 627.659607,602.396484 627.659607,637.280029 
	C620.914062,637.280029 614.506775,637.280029 608.332031,637.280029 
	C608.332031,644.080383 608.332031,650.484863 608.332031,657.263428 
	C615.068726,657.263428 621.476990,657.263428 628.075867,657.263428 
	C628.075867,671.460022 628.075867,685.264465 627.130859,699.004883 
	C620.877380,699.004883 614.623901,699.004883 608.348633,699.004883 
	C608.348633,706.251038 608.348633,713.082581 608.348633,719.931030 
	C615.156799,719.931030 621.616333,719.931030 628.005371,720.874695 
	C628.005371,741.231384 628.005371,761.588135 628.005371,781.669006 
	C642.446472,781.669006 656.162354,781.669006 669.931030,781.669006 
	C669.931030,774.533630 669.931030,767.728882 670.874695,760.994629 
	C698.207275,760.994629 725.539795,760.994629 752.926636,760.994629 
	C752.926636,753.539062 752.926636,746.738281 753.871155,739.995605 
	C760.207520,740.039612 766.543945,740.083679 772.991638,741.043030 
	C772.991638,754.636230 772.991638,768.229431 772.991638,781.692017 
	C780.352661,781.692017 787.093872,781.692017 793.926697,781.692017 
	C793.926697,767.568787 793.926697,753.753113 794.871399,739.995544 
	C801.469482,739.995544 808.067505,739.995544 814.632812,739.995544 
	C814.632812,726.049988 814.632812,712.552185 814.632812,699.351807 
	C807.531921,699.351807 800.800110,699.351807 794.068542,699.351807 
	C794.068542,713.162231 794.068542,726.620911 793.125366,740.005615 
	C786.332214,740.097107 779.539001,740.188599 772.980957,739.287354 
	C772.980957,732.884338 772.980957,726.481262 772.980957,720.331665 
	C765.907227,720.331665 759.508911,720.331665 753.068481,720.331665 
	C753.068481,727.135254 753.068481,733.607422 752.125122,740.005615 
	C738.533386,740.005615 724.941711,740.005615 711.212158,740.005615 
	C711.212158,733.162048 711.212158,726.764771 711.212158,719.980469 
	C718.150391,719.980469 724.890198,719.980469 732.141968,719.980469 
	C732.141968,692.103088 732.141968,664.609558 732.141968,636.924133 
	C746.135498,636.924133 759.602234,636.924133 773.004883,637.869141 
	C773.004883,644.212219 773.004883,650.555298 773.004883,657.127686 
	C780.405640,657.127686 787.143005,657.127686 793.991638,658.042908 
	C793.991638,664.620178 793.991638,671.197510 793.991638,677.742188 
	C801.282837,677.742188 808.004822,677.742188 814.763489,677.742188 
	C814.763489,670.759949 814.763489,664.037964 814.763489,657.280029 
	C807.600281,657.280029 800.673035,657.280029 793.980957,656.287537 
	C793.964294,649.833069 793.947693,643.378601 794.874573,636.994629 
	C801.477905,636.994629 808.081238,636.994629 814.793701,636.994629 
	C814.793701,616.147705 814.793701,595.764038 814.793701,574.835571 
	C794.086487,574.835571 773.578796,574.835571 753.348572,574.835571 
	C753.348572,567.550476 753.348572,560.813232 753.348572,553.716553 
	C767.090942,553.716553 780.486450,553.716553 793.924194,553.716553 
	C793.924194,539.534790 793.924194,525.732849 794.869385,511.995117 
	C801.467957,511.995117 808.066528,511.995117 814.651733,511.995117 
	C814.651733,491.064026 814.651733,470.578552 814.651733,450.075836 
	C800.512695,450.075836 786.721863,450.075836 772.995117,449.130768 
	C772.972290,442.399689 772.949524,435.668610 773.871460,428.995514 
	C780.462646,428.995514 787.053833,428.995514 793.632690,428.995514 
	C793.632690,422.058624 793.632690,415.553375 793.632690,409.341583 
	C786.538879,409.341583 779.814148,409.341583 773.068604,409.341583 
	C773.068604,416.148560 773.068604,422.614136 772.125610,429.005646 
M400.004883,264.869171 
	C400.004883,271.122650 400.004883,277.376129 400.004883,283.651306 
	C407.250977,283.651306 414.082550,283.651306 420.930939,283.651306 
	C420.930939,276.843201 420.930939,270.383698 421.874603,263.994659 
	C435.459839,263.994659 449.045105,263.994659 462.644531,263.994659 
	C462.644531,249.743729 462.644531,235.910172 462.644531,222.342499 
	C455.554016,222.342499 448.821289,222.342499 441.724731,222.342499 
	C441.724731,229.417404 441.724731,236.151352 441.724731,243.069046 
	C434.536072,243.069046 427.730103,243.069046 420.994659,242.125397 
	C420.994659,221.878586 420.994659,201.631760 420.994659,181.356110 
	C407.085968,181.356110 393.580750,181.356110 380.332764,181.356110 
	C380.332764,195.102921 380.332764,208.492462 380.332764,222.260040 
	C387.066833,222.260040 393.471558,222.260040 400.075867,222.260040 
	C400.075867,229.454285 400.075867,236.261627 399.130859,243.004898 
	C392.877869,243.004898 386.624878,243.004898 380.347168,243.004898 
	C380.347168,250.248947 380.347168,257.079987 380.347168,263.924133 
	C387.152527,263.924133 393.610779,263.924133 400.004883,264.869171 
M306.500000,181.000000 
	C275.739227,181.000000 244.978424,181.000000 214.286148,181.000000 
	C214.286148,229.641968 214.286148,277.711060 214.286148,325.713867 
	C262.641937,325.713867 310.711029,325.713867 358.713867,325.713867 
	C358.713867,277.358093 358.713867,229.288986 358.713867,181.000000 
	C341.452454,181.000000 324.476227,181.000000 306.500000,181.000000 
M237.500031,782.000000 
	C277.926605,782.000000 318.353149,782.000000 358.714722,782.000000 
	C358.714722,733.359802 358.714722,685.290710 358.714722,637.285278 
	C310.359833,637.285278 262.290710,637.285278 214.285248,637.285278 
	C214.285248,685.640198 214.285248,733.709290 214.285248,782.000000 
	C221.879379,782.000000 229.189713,782.000000 237.500031,782.000000 
M698.500000,326.000000 
	C737.260071,326.000000 776.020081,326.000000 814.714600,326.000000 
	C814.714600,277.359497 814.714600,229.290390 814.714600,181.285400 
	C766.359497,181.285400 718.290405,181.285400 670.285400,181.285400 
	C670.285400,229.640442 670.285400,277.709534 670.285400,326.000000 
	C679.546082,326.000000 688.523010,326.000000 698.500000,326.000000 
M516.466064,740.000000 
	C512.368652,740.000000 508.271179,740.000000 503.795532,740.000000 
	C503.795532,732.995056 503.795532,726.585022 503.795532,720.303650 
	C496.653381,720.303650 489.913483,720.303650 482.787231,720.303650 
	C482.787231,727.013733 482.787231,733.424744 482.787231,739.692078 
	C475.977692,739.692078 469.571167,739.692078 462.778656,739.692078 
	C462.778656,732.977295 462.778656,726.565369 462.778656,720.312134 
	C455.636047,720.312134 448.895782,720.312134 442.309448,720.312134 
	C442.309448,741.026978 442.309448,761.428467 442.309448,781.695679 
	C470.019379,781.695679 497.418884,781.695679 524.695923,781.695679 
	C524.695923,767.652893 524.695923,753.916321 524.695923,740.000000 
	C522.079651,740.000000 519.763550,740.000000 516.466064,740.000000 
M463.000000,194.434143 
	C463.000000,196.538254 463.000000,198.642365 463.000000,201.134827 
	C469.933350,201.134827 476.346649,201.134827 483.138428,201.134827 
	C483.138428,208.269745 483.138428,215.014053 483.138428,221.729767 
	C490.277313,221.729767 497.014557,221.729767 503.730560,221.729767 
	C503.730560,208.055466 503.730560,194.653137 503.730560,181.268585 
	C490.057037,181.268585 476.654694,181.268585 463.000000,181.268585 
	C463.000000,185.505188 463.000000,189.477859 463.000000,194.434143 
M317.057709,595.731750 
	C317.057709,602.354004 317.057709,608.976257 317.057709,615.796021 
	C331.122650,615.796021 344.859955,615.796021 358.798706,615.796021 
	C358.798706,608.871277 358.798706,602.133423 358.798706,595.056213 
	C344.986053,595.056213 331.367126,595.056213 317.057709,595.731750 
M380.000000,771.501526 
	C380.000000,774.937927 380.000000,778.374329 380.000000,781.711304 
	C393.982239,781.711304 407.385712,781.711304 420.708954,781.711304 
	C420.708954,774.680054 420.708954,767.940613 420.708954,761.291321 
	C407.012512,761.291321 393.608978,761.291321 380.000000,761.291321 
	C380.000000,764.559387 380.000000,767.537964 380.000000,771.501526 
M400.000000,710.517212 
	C400.000000,706.746704 400.000000,702.976196 400.000000,699.283203 
	C393.028839,699.283203 386.625092,699.283203 380.282349,699.283203 
	C380.282349,712.971008 380.282349,726.373596 380.282349,739.715698 
	C386.972809,739.715698 393.377655,739.715698 400.000000,739.715698 
	C400.000000,730.125732 400.000000,720.818420 400.000000,710.517212 
M587.003967,762.709106 
	C587.003967,769.124756 587.003967,775.540344 587.003967,781.635254 
	C594.470093,781.635254 601.214478,781.635254 607.631470,781.635254 
	C607.631470,774.525024 607.631470,767.781555 607.631470,760.627625 
	C600.516235,761.013672 593.786316,761.378784 587.003967,762.709106 
M276.000000,432.650543 
	C275.816010,431.044281 276.871674,428.864624 273.638367,428.953186 
	C267.531891,429.120331 261.417542,429.001434 255.240570,429.001434 
	C255.240570,436.215973 255.240570,442.953644 255.240570,449.756805 
	C262.221313,449.756805 268.959015,449.756805 276.000000,449.756805 
	C276.000000,444.219543 276.000000,438.920197 276.000000,432.650543 
M754.708984,698.996033 
	C760.791809,698.996033 766.874695,698.996033 772.635376,698.996033 
	C772.635376,691.530212 772.635376,684.785889 772.635376,678.368530 
	C765.857849,678.368530 759.447144,678.368530 752.627747,678.368530 
	C753.013733,685.484924 753.378662,692.214233 754.708984,698.996033 
M235.057709,595.731934 
	C235.057709,602.353882 235.057709,608.975830 235.057709,615.795654 
	C241.788696,615.795654 248.193008,615.795654 254.798843,615.795654 
	C254.798843,608.871460 254.798843,602.133850 254.798843,595.056335 
	C248.322266,595.056335 242.035019,595.056335 235.057709,595.731934 
z"/>
<path fill="#000000" opacity="1.000000" stroke="none" 
	d="
M773.068970,636.924133 
	C759.602234,636.924133 746.135498,636.924133 732.141968,636.924133 
	C732.141968,664.609558 732.141968,692.103088 732.141968,719.980469 
	C724.890198,719.980469 718.150391,719.980469 711.212158,719.980469 
	C711.212158,726.764771 711.212158,733.162048 711.212158,740.005615 
	C724.941711,740.005615 738.533386,740.005615 752.562500,740.005981 
	C752.999817,740.006287 752.926636,739.937439 752.926636,739.937439 
	C752.926636,746.738281 752.926636,753.539062 752.926636,760.994629 
	C725.539795,760.994629 698.207275,760.994629 670.437378,760.996094 
	C670.000000,760.997559 670.069946,761.069946 670.037476,760.597900 
	C670.004944,753.527405 670.004944,746.928955 670.004944,739.957886 
	C677.175903,739.957886 683.911377,739.957886 690.643311,739.957886 
	C690.643311,726.072815 690.643311,712.573425 690.643311,699.342590 
	C683.552185,699.342590 676.820190,699.342590 669.725586,699.342590 
	C669.725586,706.416809 669.725586,713.150024 669.725586,719.930054 
	C662.538879,719.930054 655.734436,719.930054 648.965027,719.965027 
	C649.000000,720.000000 649.069946,720.069946 649.037476,719.597900 
	C649.004944,712.429626 649.004944,705.733459 649.004944,698.930054 
	C641.489258,698.930054 634.709656,698.930054 627.966248,698.965027 
	C628.002441,699.000000 628.075867,699.068970 628.075867,699.068970 
	C628.075867,685.264465 628.075867,671.460022 628.075867,657.263428 
	C621.476990,657.263428 615.068726,657.263428 608.332031,657.263428 
	C608.332031,650.484863 608.332031,644.080383 608.332031,637.280029 
	C614.506775,637.280029 620.914062,637.280029 627.659607,637.280029 
	C627.659607,602.396484 627.659607,567.903442 627.659607,533.025879 
	C614.225464,533.025879 600.827332,533.025879 587.052490,533.025879 
	C587.052490,519.252380 587.052490,505.854401 587.052490,492.070374 
	C579.943787,492.070374 573.202087,492.070374 566.005371,492.070374 
	C566.005371,485.083679 566.005371,478.479065 566.003784,471.437103 
	C566.002258,470.999786 565.930054,471.069946 566.402100,471.037415 
	C580.566650,471.004913 594.259094,471.004913 607.931030,471.004913 
	C607.931030,456.485352 607.931030,442.704773 608.402649,428.959412 
	C615.272827,429.019775 621.671387,429.044861 628.033813,429.034912 
	C627.997620,428.999878 627.924194,428.930969 627.924194,428.930969 
	C627.924194,435.736084 627.924194,442.541199 627.924194,449.729370 
	C634.852661,449.729370 641.587402,449.729370 648.659790,449.729370 
	C648.659790,456.826202 648.659790,463.558777 648.659790,470.677673 
	C642.201721,470.677673 635.466187,470.677673 628.366089,470.677673 
	C628.366089,477.896118 628.366089,484.742126 628.366089,491.978455 
	C635.109497,491.978455 641.845886,491.978455 648.953491,491.978455 
	C648.953491,498.749664 648.953491,505.153595 648.953491,512.005371 
	C655.927185,512.005371 662.526306,512.005371 669.562744,512.003906 
	C670.000061,512.002441 669.930054,511.930054 669.962524,512.402100 
	C669.995056,519.472778 669.995056,526.071289 669.995056,533.042480 
	C662.823425,533.042480 656.089355,533.042480 649.356262,533.042480 
	C649.356262,547.260498 649.356262,561.092773 649.356262,574.657654 
	C656.446960,574.657654 663.179077,574.657654 670.274048,574.657654 
	C670.274048,567.583618 670.274048,560.850220 670.274048,554.069946 
	C677.460876,554.069946 684.265442,554.069946 691.034973,554.034973 
	C691.000000,554.000000 690.930054,553.930054 690.962524,554.402100 
	C690.995056,568.125854 690.995056,581.377563 690.995056,594.645569 
	C704.921509,594.645569 718.421509,594.645569 731.658264,594.645569 
	C731.658264,587.889404 731.658264,581.492126 731.658264,574.726929 
	C724.584656,574.726929 717.850830,574.726929 711.069946,574.726929 
	C711.069946,567.539429 711.069946,560.734741 711.034973,553.965027 
	C711.000000,554.000000 710.930054,554.069946 711.402100,554.037476 
	C718.570312,554.004944 725.266479,554.004944 732.069946,554.004944 
	C732.069946,546.489258 732.069946,539.709656 732.034973,532.965027 
	C732.000000,533.000000 731.930054,533.069946 732.402161,533.037476 
	C746.231995,533.005005 759.589661,533.005005 773.306274,533.005005 
	C773.306274,525.546875 773.306274,518.820312 773.306274,512.069946 
	C780.475403,512.069946 787.272644,512.069946 794.033813,512.034912 
	C793.997620,511.999847 793.924194,511.930878 793.924194,511.930878 
	C793.924194,525.732849 793.924194,539.534790 793.924194,553.716553 
	C780.486450,553.716553 767.090942,553.716553 753.348572,553.716553 
	C753.348572,560.813232 753.348572,567.550476 753.348572,574.835571 
	C773.578796,574.835571 794.086487,574.835571 814.793701,574.835571 
	C814.793701,595.764038 814.793701,616.147705 814.793701,636.994629 
	C808.081238,636.994629 801.477905,636.994629 794.437256,636.996094 
	C794.000000,636.997559 794.069946,637.069946 794.037476,636.597900 
	C794.004944,629.540955 794.004944,622.956055 794.004944,616.348572 
	C786.749268,616.348572 779.917847,616.348572 772.930054,616.348572 
	C772.930054,623.487854 772.930054,630.278870 772.965027,637.033752 
	C773.000000,636.997559 773.068970,636.924133 773.068970,636.924133 
M710.268127,616.057739 
	C689.980957,616.057739 669.693848,616.057739 649.204346,616.057739 
	C649.204346,636.788879 649.204346,657.193115 649.204346,677.798706 
	C669.795166,677.798706 690.199402,677.798706 710.943787,677.798706 
	C710.943787,657.319397 710.943787,637.033752 710.268127,616.057739 
z"/>
<path fill="#000000" opacity="1.000000" stroke="none" 
	d="
M337.920349,409.068542 
	C337.945190,402.339111 337.970032,395.609711 338.433167,388.437897 
	C345.463135,387.995514 352.054779,387.995514 358.632751,387.995514 
	C358.632751,380.724884 358.632751,373.886993 358.632751,367.342346 
	C351.538452,367.342346 344.813263,367.342346 338.068542,367.342346 
	C338.068542,374.482910 338.068542,381.281281 338.068542,388.079651 
	C317.513611,388.079651 296.958679,388.079651 276.028503,388.079651 
	C276.028503,380.893707 276.028503,374.163574 276.028503,366.994385 
	C269.065094,366.994385 262.469940,366.994385 255.437500,366.994080 
	C255.000214,366.993744 255.073425,367.062561 255.073425,367.062561 
	C255.073425,360.589294 255.073425,354.115997 255.073425,347.321564 
	C268.862366,347.321564 282.583282,347.321564 296.692505,347.321564 
	C296.692505,353.479553 296.692505,359.883820 296.692505,366.643127 
	C303.458588,366.643127 309.861298,366.643127 316.829895,366.643127 
	C316.829895,360.444183 316.829895,353.911713 316.829895,347.005615 
	C337.969086,347.005615 358.547150,347.005615 379.562531,347.005981 
	C379.999878,347.006317 379.926666,346.937500 379.926666,346.937500 
	C379.926666,353.411865 379.926666,359.886230 379.926666,366.747986 
	C386.536041,366.747986 392.941589,366.747986 399.671509,366.747986 
	C399.671509,373.853363 399.671509,380.587738 399.671509,387.713379 
	C393.496307,387.713379 387.093872,387.713379 380.345734,387.713379 
	C380.345734,408.594910 380.345734,429.091583 380.345734,450.005341 
	C400.629150,450.005341 420.877289,450.005341 441.562744,450.003876 
	C442.000122,450.002411 441.930054,449.930054 441.962585,450.402100 
	C441.995087,457.459015 441.995087,464.043945 441.995087,470.651428 
	C449.251099,470.651428 456.082642,470.651428 463.069946,470.651428 
	C463.069946,463.512268 463.069946,456.721161 463.034973,449.965027 
	C463.000000,450.000000 462.930054,450.069946 463.401978,450.037445 
	C470.126587,450.004944 476.379242,450.004944 483.160583,450.004944 
	C483.160583,457.244507 483.160583,464.091217 483.160583,471.069946 
	C490.488556,471.069946 497.279236,471.069946 504.033752,471.034912 
	C503.997559,470.999908 503.924133,470.930969 503.924133,470.930969 
	C503.947662,477.662506 503.971161,484.394073 503.996155,491.562866 
	C503.997589,492.000122 504.069946,491.930054 503.597900,491.962585 
	C496.526093,491.995087 489.926300,491.995087 482.951050,491.995087 
	C482.951050,498.848541 482.951050,505.253082 482.951050,511.634430 
	C469.060059,511.634430 455.557648,511.634430 441.676575,511.634430 
	C441.676575,504.866760 441.676575,498.463898 441.676575,492.342468 
	C434.555420,492.342468 427.822113,492.342468 420.930054,492.342468 
	C420.930054,506.146393 420.930054,519.608154 420.965088,533.033813 
	C421.000122,532.997620 421.069031,532.924194 421.069031,532.924194 
	C407.518005,532.924194 393.967010,532.924194 379.994843,532.924194 
	C379.994843,526.049500 379.994843,519.464966 380.433075,512.437927 
	C387.136688,511.995514 393.402069,511.995514 399.632751,511.995514 
	C399.632751,498.049225 399.632751,484.551849 399.632751,471.352478 
	C392.864227,471.352478 386.464905,471.352478 380.068573,471.352478 
	C380.068573,485.163177 380.068573,498.621429 380.068573,512.079651 
	C373.337189,512.051270 366.605774,512.022949 359.437134,511.996094 
	C358.999878,511.997589 359.069946,512.069946 359.037445,511.597961 
	C359.004944,504.866272 359.004944,498.606567 359.004944,491.930054 
	C338.020477,491.930054 317.475250,491.930054 296.966248,491.965088 
	C297.002441,492.000092 297.075867,492.069031 297.075867,492.069031 
	C297.075867,485.260315 297.075867,478.451599 297.075867,471.277405 
	C317.526917,471.277405 337.911377,471.277405 358.647430,471.277405 
	C358.647430,464.195862 358.647430,457.458923 358.647430,450.165955 
	C345.095459,450.165955 331.245392,450.165955 317.016266,450.165955 
	C317.016266,442.887024 317.016266,436.146637 317.016266,429.030426 
	C310.235535,429.030426 303.827667,429.030426 297.216919,429.030426 
	C297.216919,422.244659 297.216919,415.846832 297.216919,408.994843 
	C310.600586,408.994843 323.860046,408.994843 337.562012,409.433044 
	C338.004486,416.130310 338.004486,422.389343 338.004486,428.632782 
	C345.276001,428.632782 352.113495,428.632782 358.656952,428.632782 
	C358.656952,421.870789 358.656952,415.478088 358.656952,409.068542 
	C351.516205,409.068542 344.718262,409.068542 337.920349,409.068542 
z"/>
<path fill="#000000" opacity="1.000000" stroke="none" 
	d="
M627.924194,346.930969 
	C627.924194,353.414185 627.924194,359.897400 627.924194,366.689728 
	C641.905334,366.689728 655.644836,366.689728 669.786743,366.689728 
	C669.786743,360.425995 669.786743,354.013489 669.786743,347.302917 
	C676.916443,347.302917 683.657166,347.302917 690.802124,347.302917 
	C690.802124,360.593445 690.802124,374.003082 690.802124,387.704407 
	C697.598877,387.704407 704.006287,387.704407 710.817444,387.704407 
	C710.817444,381.059082 710.817444,374.315155 710.817444,367.174744 
	C717.949158,367.174744 724.693054,367.174744 731.833069,367.174744 
	C731.833069,360.376068 731.833069,353.964508 731.833069,347.279816 
	C738.965881,347.279816 745.705505,347.279816 752.848755,347.279816 
	C752.848755,353.638916 752.848755,360.051453 752.848755,366.728027 
	C759.649780,366.728027 766.055054,366.728027 772.864502,366.728027 
	C772.864502,360.348083 772.864502,353.933319 772.864502,347.264099 
	C787.000244,347.264099 800.738586,347.264099 814.739319,347.264099 
	C814.739319,360.674011 814.739319,374.079010 814.739319,387.884888 
	C787.319458,387.884888 759.913025,387.884888 732.109070,387.884888 
	C732.109070,401.683990 732.109070,415.093597 732.109070,428.748840 
	C718.306458,428.748840 704.901611,428.748840 691.094727,428.748840 
	C691.094727,422.305847 691.094727,415.890869 691.094727,408.994659 
	C677.091370,408.994659 663.482971,408.994659 649.437195,408.996155 
	C648.999817,408.997620 649.069946,409.069946 649.037476,408.597900 
	C649.004944,401.534149 649.004944,394.942444 649.004944,388.073334 
	C628.024658,388.073334 607.480957,388.073334 586.966431,387.600952 
	C586.995544,380.536896 586.995544,373.945251 586.995544,367.367249 
	C579.725403,367.367249 572.887207,367.367249 566.342285,367.367249 
	C566.342285,374.461456 566.342285,381.186646 566.342285,387.931458 
	C573.482727,387.931458 580.281067,387.931458 587.042542,388.403015 
	C587.028992,395.606079 587.052368,402.337555 586.603271,409.036957 
	C579.434021,409.004883 572.737366,409.004883 566.069153,409.004883 
	C566.069153,416.177826 566.069153,422.626831 565.597351,429.040588 
	C558.540222,429.005341 551.954895,429.005341 545.349915,429.005341 
	C545.349915,436.252655 545.349915,443.084595 545.349915,449.930878 
	C552.491699,449.930878 559.283691,449.930878 566.040527,450.402618 
	C565.980225,457.606232 565.955139,464.338074 565.930054,471.069946 
	C565.930054,471.069946 566.002258,470.999786 566.038940,470.965332 
	C545.673584,470.952301 525.271545,470.973694 504.396790,470.963043 
	C503.924133,470.930969 503.997559,470.999908 504.001251,470.562805 
	C504.004944,456.538910 504.004944,442.952148 504.004944,428.984802 
	C511.147278,428.984802 517.884399,428.984802 525.168579,428.984802 
	C525.168579,422.088593 525.168579,415.556702 525.168579,408.677185 
	C532.132446,408.677185 538.535156,408.677185 544.674500,408.677185 
	C544.674500,394.571320 544.674500,380.852234 544.674500,366.930054 
	C537.876770,366.930054 531.403442,366.930054 524.965027,366.965027 
	C525.000000,367.000000 525.069946,367.069946 525.037476,366.597961 
	C525.004944,359.867065 525.004944,353.608185 525.004944,346.840149 
	C538.917725,346.840149 552.410339,346.840149 566.069946,346.840149 
	C566.069946,339.524414 566.069946,332.727234 566.034973,325.965027 
	C566.000000,326.000000 565.930054,326.069946 566.402039,326.037415 
	C573.607910,325.980255 580.341797,325.955566 587.040527,326.402649 
	C587.005371,333.460052 587.005371,340.045685 587.005371,347.069946 
	C600.965149,347.069946 614.517578,347.069946 628.033813,347.034912 
	C627.997620,346.999878 627.924194,346.930969 627.924194,346.930969 
z"/>
<path fill="#000000" opacity="1.000000" stroke="none" 
	d="
M503.960876,492.034607 
	C517.396790,492.069061 530.869385,492.069061 544.670898,492.069061 
	C544.670898,498.521942 544.670898,504.926361 544.670898,511.727234 
	C538.486267,511.727234 532.078430,511.727234 525.336670,511.727234 
	C525.336670,518.839661 525.336670,525.577515 525.336670,532.711182 
	C531.497192,532.711182 537.905151,532.711182 544.694580,532.711182 
	C544.694580,546.823059 544.694580,560.554626 544.694580,574.845093 
	C558.913696,574.845093 572.768311,574.845093 587.004944,574.845093 
	C587.004944,581.800110 587.004944,588.210205 587.004944,594.997009 
	C594.125549,594.997009 600.868164,594.997009 607.798035,594.997009 
	C607.798035,602.121765 607.798035,608.854492 607.798035,615.971436 
	C593.894958,615.971436 580.163391,615.971436 565.994629,615.971436 
	C565.994629,636.609741 565.994629,656.867493 565.996094,677.562622 
	C565.997559,678.000000 566.069946,677.930054 565.597961,677.962524 
	C558.393982,677.973328 551.662048,677.951660 544.966248,677.964966 
	C545.002441,678.000000 545.075867,678.068970 545.075867,678.068970 
	C545.075867,657.623047 545.075867,637.177124 545.075867,615.994629 
	C524.589111,615.994629 504.231812,615.994629 483.437164,615.996216 
	C482.999786,615.997742 483.069946,616.069946 483.037415,615.597900 
	C483.004913,608.430664 483.004913,601.735352 483.004913,594.930054 
	C475.824615,594.930054 469.377319,594.930054 462.965027,594.965027 
	C463.000000,595.000000 463.069946,595.069946 463.037445,594.598022 
	C463.004944,587.762085 463.004944,581.398132 463.004944,574.930054 
	C455.486877,574.930054 448.708466,574.930054 441.966217,574.965088 
	C442.002380,575.000061 442.075836,575.069031 442.075836,575.069031 
	C442.075836,568.277832 442.075836,561.486572 442.075836,554.156860 
	C435.088348,554.156860 428.240723,554.156860 421.004883,554.156860 
	C421.004883,547.040710 421.004883,540.455017 421.036957,533.396729 
	C421.069031,532.924194 421.000122,532.997620 421.437225,533.001282 
	C435.462799,533.004944 449.051270,533.004944 463.021698,533.004944 
	C463.021698,540.153503 463.021698,546.891541 463.021698,553.644897 
	C476.914612,553.644897 490.418518,553.644897 504.069946,553.644897 
	C504.069946,532.836609 504.069946,512.383362 504.069946,491.930054 
	C504.069946,491.930054 503.997589,492.000122 503.960876,492.034607 
z"/>
<path fill="#000000" opacity="1.000000" stroke="none" 
	d="
M307.000000,181.000000 
	C324.476227,181.000000 341.452454,181.000000 358.713867,181.000000 
	C358.713867,229.288986 358.713867,277.358093 358.713867,325.713867 
	C310.711029,325.713867 262.641937,325.713867 214.286148,325.713867 
	C214.286148,277.711060 214.286148,229.641968 214.286148,181.000000 
	C244.978424,181.000000 275.739227,181.000000 307.000000,181.000000 
M235.000000,246.500000 
	C235.000000,265.928345 235.000000,285.356720 235.000000,304.713501 
	C269.642944,304.713501 303.712189,304.713501 337.713562,304.713501 
	C337.713562,270.023743 337.713562,235.621201 337.713562,201.286453 
	C303.357117,201.286453 269.287872,201.286453 235.000000,201.286453 
	C235.000000,216.214600 235.000000,230.857300 235.000000,246.500000 
z"/>
<path fill="#000000" opacity="1.000000" stroke="none" 
	d="
M237.000046,782.000000 
	C229.189713,782.000000 221.879379,782.000000 214.285248,782.000000 
	C214.285248,733.709290 214.285248,685.640198 214.285248,637.285278 
	C262.290710,637.285278 310.359833,637.285278 358.714722,637.285278 
	C358.714722,685.290710 358.714722,733.359802 358.714722,782.000000 
	C318.353149,782.000000 277.926605,782.000000 237.000046,782.000000 
M235.000000,684.500000 
	C235.000000,709.927368 235.000000,735.354797 235.000000,760.714294 
	C269.641418,760.714294 303.710663,760.714294 337.714325,760.714294 
	C337.714325,726.025330 337.714325,691.622742 337.714325,657.285645 
	C303.358673,657.285645 269.289429,657.285645 235.000000,657.285645 
	C235.000000,666.213074 235.000000,674.856506 235.000000,684.500000 
z"/>
<path fill="#000000" opacity="1.000000" stroke="none" 
	d="
M698.000000,326.000000 
	C688.523010,326.000000 679.546082,326.000000 670.285400,326.000000 
	C670.285400,277.709534 670.285400,229.640442 670.285400,181.285400 
	C718.290405,181.285400 766.359497,181.285400 814.714600,181.285400 
	C814.714600,229.290390 814.714600,277.359497 814.714600,326.000000 
	C776.020081,326.000000 737.260071,326.000000 698.000000,326.000000 
M734.500000,201.000000 
	C720.070557,201.000000 705.641113,201.000000 691.287109,201.000000 
	C691.287109,235.977570 691.287109,270.380096 691.287109,304.712891 
	C725.644226,304.712891 759.713440,304.712891 793.712952,304.712891 
	C793.712952,270.022522 793.712952,235.619965 793.712952,201.000000 
	C774.117798,201.000000 754.808899,201.000000 734.500000,201.000000 
z"/>
<path fill="#000000" opacity="1.000000" stroke="none" 
	d="
M544.937317,201.073486 
	C558.741943,201.073486 572.546631,201.073486 586.743896,201.073486 
	C586.743896,194.469742 586.743896,188.060913 586.743896,181.328156 
	C607.520996,181.328156 627.911072,181.328156 648.651001,181.328156 
	C648.651001,201.598740 648.651001,222.105301 648.651001,243.006363 
	C641.864746,243.006363 635.122009,243.006363 628.197205,243.006363 
	C628.197205,256.792938 628.197205,270.187012 628.197205,283.973999 
	C635.101624,283.973999 641.844360,283.973999 648.786621,283.973999 
	C648.786621,305.087463 648.786621,325.808899 648.786621,346.995117 
	C642.080078,346.995117 635.474731,346.995117 628.396729,346.963043 
	C627.924194,346.930969 627.997620,346.999878 628.001282,346.562775 
	C628.004944,332.447327 628.004944,318.768982 628.004944,305.075836 
	C620.849854,305.075836 614.390381,305.075836 607.963013,304.603210 
	C607.995117,283.790741 607.995117,263.450897 607.995117,242.930054 
	C600.527100,242.930054 593.728577,242.930054 586.966248,242.965057 
	C587.002441,243.000046 587.075806,243.068954 587.075806,243.068954 
	C587.075806,236.271576 587.075806,229.474197 587.075806,222.158508 
	C573.075317,222.158508 559.249756,222.158508 545.005615,222.158508 
	C545.005615,215.057632 545.005615,208.466232 545.005859,201.437546 
	C545.006104,201.000244 544.937317,201.073486 544.937317,201.073486 
M608.003906,220.286316 
	C608.601746,220.856369 609.189514,221.908905 609.799011,221.921631 
	C615.746948,222.045883 621.698547,221.996460 627.781006,221.996460 
	C627.781006,214.828903 627.781006,208.091278 627.781006,201.222046 
	C621.155945,201.222046 614.751587,201.222046 608.000244,201.222046 
	C608.000244,207.398163 608.000244,213.358978 608.003906,220.286316 
z"/>
<path fill="#000000" opacity="1.000000" stroke="none" 
	d="
M358.965393,511.960876 
	C358.930939,518.733093 358.930939,525.541992 358.930939,532.726135 
	C345.141815,532.726135 331.416016,532.726135 317.345947,532.726135 
	C317.345947,539.817444 317.345947,546.553406 317.345947,553.843811 
	C330.915161,553.843811 344.764008,553.843811 358.801178,553.843811 
	C358.801178,561.125549 358.801178,567.855530 358.801178,574.994629 
	C338.373810,574.994629 318.124176,574.994629 297.437195,574.996216 
	C296.999817,574.997742 297.069946,575.069946 297.037415,574.597900 
	C297.004913,567.541016 297.004913,560.956055 297.004913,554.348511 
	C289.749329,554.348511 282.917847,554.348511 275.930054,554.348511 
	C275.930054,561.487793 275.930054,568.278870 275.965088,575.033813 
	C276.000122,574.997620 276.069031,574.924194 276.069031,574.924194 
	C269.278748,574.924194 262.488495,574.924194 255.160675,574.924194 
	C255.160675,568.091797 255.160675,561.245178 255.160675,553.994385 
	C248.379639,553.994385 242.127151,553.994385 235.437454,553.994141 
	C235.000244,553.993896 235.073486,554.062683 235.073486,554.062683 
	C235.073486,547.266846 235.073486,540.471069 235.073486,533.303101 
	C241.490173,533.303101 247.883728,533.303101 255.005615,533.303101 
	C255.005615,519.587463 255.005615,506.231201 255.005859,492.437622 
	C255.006104,492.000275 254.937302,492.073486 254.937302,492.073486 
	C268.668396,492.050598 282.399475,492.027740 296.603210,492.036957 
	C297.075867,492.069031 297.002441,492.000092 296.998779,492.437012 
	C297.021179,499.270172 297.047272,505.666412 296.601013,512.033569 
	C289.536926,512.004456 282.945282,512.004456 276.367249,512.004456 
	C276.367249,519.274597 276.367249,526.112793 276.367249,532.657715 
	C283.461456,532.657715 290.186646,532.657715 296.931488,532.657715 
	C296.931488,525.517212 296.931488,518.718872 297.403168,511.957458 
	C318.273224,512.019592 338.671570,512.044739 359.069946,512.069946 
	C359.069946,512.069946 358.999878,511.997589 358.965393,511.960876 
z"/>
<path fill="#000000" opacity="1.000000" stroke="none" 
	d="
M516.956787,740.000000 
	C519.763550,740.000000 522.079651,740.000000 524.695923,740.000000 
	C524.695923,753.916321 524.695923,767.652893 524.695923,781.695679 
	C497.418884,781.695679 470.019379,781.695679 442.309448,781.695679 
	C442.309448,761.428467 442.309448,741.026978 442.309448,720.312134 
	C448.895782,720.312134 455.636047,720.312134 462.778656,720.312134 
	C462.778656,726.565369 462.778656,732.977295 462.778656,739.692078 
	C469.571167,739.692078 475.977692,739.692078 482.787231,739.692078 
	C482.787231,733.424744 482.787231,727.013733 482.787231,720.303650 
	C489.913483,720.303650 496.653381,720.303650 503.795532,720.303650 
	C503.795532,726.585022 503.795532,732.995056 503.795532,740.000000 
	C508.271179,740.000000 512.368652,740.000000 516.956787,740.000000 
z"/>
<path fill="#000000" opacity="1.000000" stroke="none" 
	d="
M504.075867,284.069031 
	C504.075867,270.612549 504.075867,257.156067 504.075867,243.349808 
	C517.585266,243.349808 531.082214,243.349808 544.962891,243.349808 
	C544.962891,250.095749 544.962891,256.828369 544.962891,264.005341 
	C551.931152,264.005341 558.528320,264.005341 565.562866,264.003845 
	C566.000183,264.002380 565.930054,263.930054 565.962524,264.401978 
	C565.995056,271.127014 565.995056,277.380127 565.995056,284.162598 
	C573.246887,284.162598 580.094116,284.162598 587.068970,284.162598 
	C587.068970,291.492371 587.068970,298.284088 586.597168,305.040588 
	C579.429688,305.005341 572.733948,305.005341 565.930054,305.005341 
	C565.930054,312.510834 565.930054,319.290405 565.930054,326.069946 
	C565.930054,326.069946 566.000000,326.000000 565.562866,325.997528 
	C558.530457,325.995056 551.935181,325.995056 544.819092,325.995056 
	C544.819092,311.731354 544.819092,297.897614 544.819092,283.930054 
	C530.835815,283.930054 517.382935,283.930054 503.966248,283.965088 
	C504.002441,284.000092 504.075867,284.069031 504.075867,284.069031 
z"/>
<path fill="#000000" opacity="1.000000" stroke="none" 
	d="
M421.279388,616.253540 
	C421.279388,609.312744 421.279388,602.371948 421.279388,595.044250 
	C413.917206,595.044250 407.174530,595.044250 400.222443,595.044250 
	C400.222443,588.253723 400.222443,581.853821 400.222443,575.004883 
	C413.934631,575.004883 427.532593,575.004883 441.603210,575.036987 
	C442.075836,575.069031 442.002380,575.000061 441.998718,575.437012 
	C441.995056,582.237976 441.995056,588.601868 441.995056,595.069946 
	C449.513153,595.069946 456.291534,595.069946 463.069946,595.069946 
	C463.069946,595.069946 463.000000,595.000000 462.997528,595.437134 
	C462.995056,602.569458 462.995056,609.264709 462.995056,616.069946 
	C470.175476,616.069946 476.622711,616.069946 483.069946,616.069946 
	C483.069946,616.069946 482.999786,615.997742 482.965332,615.961060 
	C482.930878,622.741577 482.930878,629.558899 482.930878,636.687805 
	C469.431396,636.687805 456.024750,636.687805 442.215149,636.687805 
	C442.215149,630.096252 442.215149,623.348877 442.215149,616.008301 
	C435.235504,616.008301 428.638947,616.008301 421.619629,616.094360 
	C421.196869,616.180481 421.279388,616.253540 421.279388,616.253540 
z"/>
<path fill="#000000" opacity="1.000000" stroke="none" 
	d="
M772.930969,450.075836 
	C786.721863,450.075836 800.512695,450.075836 814.651733,450.075836 
	C814.651733,470.578552 814.651733,491.064026 814.651733,511.995117 
	C808.066528,511.995117 801.467957,511.995117 794.396790,511.963013 
	C793.924194,511.930878 793.997620,511.999847 794.001282,511.562927 
	C794.004944,504.866852 794.004944,498.607758 794.004944,491.986450 
	C786.849976,491.986450 780.122009,491.986450 773.069946,491.986450 
	C773.069946,477.721832 773.069946,463.825928 773.034912,449.966217 
	C772.999939,450.002380 772.930969,450.075836 772.930969,450.075836 
z"/>
<path fill="#000000" opacity="1.000000" stroke="none" 
	d="
M524.937439,678.073364 
	C531.335266,678.050537 537.733154,678.027710 544.603394,678.036926 
	C545.075867,678.068970 545.002441,678.000000 544.998779,678.437134 
	C544.995056,685.459106 544.995056,692.044006 544.995056,698.651428 
	C552.250732,698.651428 559.082153,698.651428 566.069946,698.651428 
	C566.069946,691.512146 566.069946,684.721130 566.069946,677.930054 
	C566.069946,677.930054 565.997559,678.000000 565.960815,678.034424 
	C572.731689,678.068909 579.539307,678.068909 586.673218,678.068909 
	C586.673218,691.851990 586.673218,705.573181 586.673218,719.647827 
	C566.420715,719.647827 545.926697,719.647827 525.005615,719.647827 
	C525.005615,706.052368 525.005615,692.463623 525.005981,678.437500 
	C525.006287,678.000183 524.937439,678.073364 524.937439,678.073364 
z"/>
<path fill="#000000" opacity="1.000000" stroke="none" 
	d="
M463.075867,388.069031 
	C463.075867,381.279175 463.075867,374.489319 463.075867,367.160614 
	C469.573669,367.160614 476.088989,367.160614 483.005341,367.160614 
	C483.005341,360.378601 483.005341,354.126434 483.003845,347.437073 
	C483.002380,346.999847 482.930054,347.069946 483.402100,347.037415 
	C490.458618,347.004913 497.043091,347.004913 504.158752,347.004913 
	C504.158752,353.908417 504.158752,360.423004 504.158752,367.069946 
	C511.488678,367.069946 518.279297,367.069946 525.069946,367.069946 
	C525.069946,367.069946 525.000000,367.000000 524.997559,367.437103 
	C524.995056,374.470520 524.995056,381.066833 524.995056,388.032745 
	C517.832703,388.032745 511.099365,388.032745 503.825470,388.032745 
	C503.825470,395.252930 503.825470,402.113190 503.825470,408.652100 
	C496.537415,408.652100 489.806946,408.652100 482.718201,408.652100 
	C482.718201,401.574371 482.718201,394.844513 482.718201,387.930054 
	C475.869659,387.930054 469.399872,387.930054 462.966248,387.965088 
	C463.002441,388.000092 463.075867,388.069031 463.075867,388.069031 
z"/>
<path fill="#000000" opacity="1.000000" stroke="none" 
	d="
M441.937500,326.073334 
	C448.738037,326.073334 455.538574,326.073334 462.868591,326.073334 
	C462.868591,312.051605 462.868591,298.218109 462.868591,284.004883 
	C476.640106,284.004883 489.885345,284.004883 503.603210,284.036957 
	C504.075867,284.069031 504.002441,284.000092 503.998779,284.437073 
	C503.970184,291.605560 503.945282,298.337067 503.957031,305.034210 
	C503.993683,304.999878 504.062500,304.926666 503.591064,304.960754 
	C496.534576,304.994843 489.949524,304.994843 482.930054,304.994843 
	C482.930054,319.301300 482.930054,333.185608 482.930054,347.069946 
	C482.930054,347.069946 483.002380,346.999847 483.039124,346.965393 
	C469.675507,346.952087 456.275146,346.973236 442.437469,346.994019 
	C442.000122,346.993683 442.073334,347.062500 442.073334,347.062500 
	C442.050751,340.333191 442.028198,333.603912 442.005981,326.437378 
	C442.006317,326.000122 441.937500,326.073334 441.937500,326.073334 
z"/>
<path fill="#000000" opacity="1.000000" stroke="none" 
	d="
M400.075867,243.068985 
	C400.075867,236.261627 400.075867,229.454285 400.075867,222.260040 
	C393.471558,222.260040 387.066833,222.260040 380.332764,222.260040 
	C380.332764,208.492462 380.332764,195.102921 380.332764,181.356110 
	C393.580750,181.356110 407.085968,181.356110 420.994659,181.356110 
	C420.994659,201.631760 420.994659,221.878586 420.996155,242.562744 
	C420.997620,243.000107 421.069946,242.930054 420.597931,242.962555 
	C413.393951,242.973373 406.662018,242.951706 399.966248,242.965057 
	C400.002441,243.000061 400.075867,243.068985 400.075867,243.068985 
z"/>
<path fill="#000000" opacity="1.000000" stroke="none" 
	d="
M421.062469,656.926758 
	C414.252197,656.926758 407.441956,656.926758 400.240417,656.926758 
	C400.240417,663.880127 400.240417,670.621704 400.240417,677.679199 
	C393.460663,677.679199 387.056824,677.679199 380.324768,677.679199 
	C380.324768,657.473022 380.324768,637.083923 380.324768,616.018982 
	C393.487427,616.018982 406.886963,616.018982 420.782959,616.136230 
	C421.279388,616.253540 421.196869,616.180481 421.161987,616.149719 
	C421.082855,629.454407 421.038635,642.789795 420.994019,656.562622 
	C420.993652,656.999939 421.062469,656.926758 421.062469,656.926758 
z"/>
<path fill="#000000" opacity="1.000000" stroke="none" 
	d="
M669.965515,760.960815 
	C669.931030,767.728882 669.931030,774.533630 669.931030,781.669006 
	C656.162354,781.669006 642.446472,781.669006 628.005371,781.669006 
	C628.005371,761.588135 628.005371,741.231384 628.003906,720.437378 
	C628.002441,720.000000 627.930054,720.069946 628.402039,720.037476 
	C635.606018,720.026672 642.337952,720.048340 649.069946,720.069946 
	C649.069946,720.069946 649.000000,720.000000 648.997498,720.437134 
	C648.994995,734.220703 648.994995,747.567078 648.994995,761.069946 
	C656.486267,761.069946 663.278137,761.069946 670.069946,761.069946 
	C670.069946,761.069946 670.000000,760.997559 669.965515,760.960815 
z"/>
<path fill="#000000" opacity="1.000000" stroke="none" 
	d="
M442.034607,450.039124 
	C442.069061,436.617432 442.069061,423.159058 442.069061,409.319092 
	C435.197205,409.319092 428.463226,409.319092 421.365356,409.319092 
	C421.365356,402.103729 421.365356,395.258942 421.365356,388.004883 
	C434.964417,388.004883 448.547485,388.004883 462.603210,388.036957 
	C463.075867,388.069031 463.002441,388.000092 462.998749,388.437195 
	C462.973389,409.272858 462.951721,429.671417 462.930054,450.069946 
	C462.930054,450.069946 463.000000,450.000000 462.562958,449.997528 
	C455.393951,449.973389 448.662018,449.951721 441.930054,449.930054 
	C441.930054,449.930054 442.000122,450.002411 442.034607,450.039124 
z"/>
<path fill="#000000" opacity="1.000000" stroke="none" 
	d="
M670.034546,512.039124 
	C670.068970,491.621552 670.068970,471.167328 670.068970,450.356567 
	C676.793457,450.356567 683.528442,450.356567 690.828430,450.356567 
	C690.828430,456.889435 690.828430,463.753082 690.828430,470.985168 
	C697.781677,470.985168 704.187500,470.985168 710.789429,470.985168 
	C710.789429,478.099365 710.789429,484.828094 710.789429,491.944946 
	C704.258179,491.944946 697.854065,491.944946 690.994629,491.944946 
	C690.994629,498.589447 690.994629,504.857635 690.996338,511.563110 
	C690.997986,512.000366 691.069946,511.930054 690.597961,511.962585 
	C683.393982,511.973419 676.662048,511.951752 669.930054,511.930054 
	C669.930054,511.930054 670.000061,512.002441 670.034546,512.039124 
z"/>
<path fill="#000000" opacity="1.000000" stroke="none" 
	d="
M420.960876,243.034576 
	C427.730103,243.069046 434.536072,243.069046 441.724731,243.069046 
	C441.724731,236.151352 441.724731,229.417404 441.724731,222.342499 
	C448.821289,222.342499 455.554016,222.342499 462.644531,222.342499 
	C462.644531,235.910172 462.644531,249.743729 462.644531,263.994659 
	C449.045105,263.994659 435.459839,263.994659 421.437256,263.996124 
	C420.999878,263.997589 421.069946,264.069946 421.037415,263.597961 
	C421.026581,256.394012 421.048248,249.662033 421.069946,242.930054 
	C421.069946,242.930054 420.997620,243.000107 420.960876,243.034576 
z"/>
<path fill="#000000" opacity="1.000000" stroke="none" 
	d="
M420.956970,657.034302 
	C434.717010,657.068604 448.513763,657.068604 462.655212,657.068604 
	C462.655212,663.817871 462.655212,670.551941 462.655212,677.674866 
	C456.206451,677.674866 449.469727,677.674866 442.172180,677.674866 
	C442.172180,684.888977 442.172180,691.752136 442.172180,698.798462 
	C434.882233,698.798462 428.154083,698.798462 421.004486,698.798462 
	C421.004486,685.047913 421.004486,671.459778 421.033478,657.399170 
	C421.062469,656.926758 420.993652,656.999939 420.956970,657.034302 
z"/>
<path fill="#000000" opacity="1.000000" stroke="none" 
	d="
M732.075378,512.069275 
	C732.075378,491.523895 732.075378,470.978516 732.075378,450.005341 
	C738.941284,450.005341 745.533325,450.005341 752.562744,450.003845 
	C753.000061,450.002380 752.930054,449.930054 752.962524,450.402161 
	C752.995056,471.212799 752.995056,491.551361 752.995056,511.930054 
	C745.526367,511.930054 738.728210,511.930054 731.966064,511.965210 
	C732.002014,512.000366 732.075378,512.069275 732.075378,512.069275 
z"/>
<path fill="#000000" opacity="1.000000" stroke="none" 
	d="
M525.042969,677.965820 
	C511.283142,677.931519 497.486694,677.931519 483.345154,677.931519 
	C483.345154,671.183105 483.345154,664.449219 483.345154,657.325684 
	C489.791870,657.325684 496.528290,657.325684 503.826569,657.325684 
	C503.826569,650.445801 503.826569,643.914490 503.826569,637.201782 
	C511.117218,637.201782 517.845276,637.201782 524.995544,637.201782 
	C524.995544,650.618164 524.995544,663.873291 524.966492,677.600891 
	C524.937439,678.073364 525.006287,678.000183 525.042969,677.965820 
z"/>
<path fill="#000000" opacity="1.000000" stroke="none" 
	d="
M254.965881,366.957092 
	C254.931549,373.727539 254.931549,380.534668 254.931549,387.670746 
	C241.487610,387.670746 228.100540,387.670746 214.356155,387.670746 
	C214.356155,374.421844 214.356155,360.919006 214.356155,347.206604 
	C221.107086,347.206604 227.835052,347.206604 234.949951,347.206604 
	C234.949951,353.745605 234.949951,360.150513 234.949951,367.004517 
	C241.593140,367.004517 247.860977,367.004517 254.601135,367.033539 
	C255.073425,367.062561 255.000214,366.993744 254.965881,366.957092 
z"/>
<path fill="#000000" opacity="1.000000" stroke="none" 
	d="
M690.961304,512.034790 
	C704.326477,512.047791 717.728394,512.026367 731.602783,512.037109 
	C732.075378,512.069275 732.002014,512.000366 731.998535,512.437256 
	C731.973328,519.606018 731.951721,526.338013 731.930054,533.069946 
	C731.930054,533.069946 732.000000,533.000000 731.562866,532.997559 
	C724.429626,532.995056 717.733459,532.995056 710.930054,532.995056 
	C710.930054,540.510742 710.930054,547.290344 710.930054,554.069946 
	C710.930054,554.069946 711.000000,554.000000 710.563049,553.997498 
	C703.727417,553.973389 697.328735,553.951721 690.930054,553.930054 
	C690.930054,553.930054 691.000000,554.000000 691.002502,553.562866 
	C691.026672,539.393860 691.048340,525.661926 691.069946,511.930054 
	C691.069946,511.930054 690.997986,512.000366 690.961304,512.034790 
z"/>
<path fill="#000000" opacity="1.000000" stroke="none" 
	d="
M463.000000,193.942337 
	C463.000000,189.477859 463.000000,185.505188 463.000000,181.268585 
	C476.654694,181.268585 490.057037,181.268585 503.730560,181.268585 
	C503.730560,194.653137 503.730560,208.055466 503.730560,221.729767 
	C497.014557,221.729767 490.277313,221.729767 483.138428,221.729767 
	C483.138428,215.014053 483.138428,208.269745 483.138428,201.134827 
	C476.346649,201.134827 469.933350,201.134827 463.000000,201.134827 
	C463.000000,198.642365 463.000000,196.538254 463.000000,193.942337 
z"/>
<path fill="#000000" opacity="1.000000" stroke="none" 
	d="
M772.745850,740.280090 
	C779.539001,740.188599 786.332214,740.097107 793.562622,740.005920 
	C793.999817,740.006226 793.926697,739.937378 793.926697,739.937378 
	C793.926697,753.753113 793.926697,767.568787 793.926697,781.692017 
	C787.093872,781.692017 780.352661,781.692017 772.991638,781.692017 
	C772.991638,768.229431 772.991638,754.636230 772.905273,740.620239 
	C772.818909,740.197510 772.745850,740.280090 772.745850,740.280090 
z"/>
<path fill="#000000" opacity="1.000000" stroke="none" 
	d="
M317.402954,595.393982 
	C331.367126,595.056213 344.986053,595.056213 358.798706,595.056213 
	C358.798706,602.133423 358.798706,608.871277 358.798706,615.796021 
	C344.859955,615.796021 331.122650,615.796021 317.057709,615.796021 
	C317.057709,608.976257 317.057709,602.354004 317.402954,595.393982 
z"/>
<path fill="#000000" opacity="1.000000" stroke="none" 
	d="
M380.000000,771.009033 
	C380.000000,767.537964 380.000000,764.559387 380.000000,761.291321 
	C393.608978,761.291321 407.012512,761.291321 420.708954,761.291321 
	C420.708954,767.940613 420.708954,774.680054 420.708954,781.711304 
	C407.385712,781.711304 393.982239,781.711304 380.000000,781.711304 
	C380.000000,778.374329 380.000000,774.937927 380.000000,771.009033 
z"/>
<path fill="#000000" opacity="1.000000" stroke="none" 
	d="
M794.034180,740.042847 
	C794.068542,726.620911 794.068542,713.162231 794.068542,699.351807 
	C800.800110,699.351807 807.531921,699.351807 814.632812,699.351807 
	C814.632812,712.552185 814.632812,726.049988 814.632812,739.995544 
	C808.067505,739.995544 801.469482,739.995544 794.399048,739.966431 
	C793.926697,739.937378 793.999817,740.006226 794.034180,740.042847 
z"/>
<path fill="#000000" opacity="1.000000" stroke="none" 
	d="
M380.034210,347.042969 
	C380.068542,333.288300 380.068542,319.496918 380.068542,305.352783 
	C386.464508,305.352783 392.864044,305.352783 399.632782,305.352783 
	C399.632782,318.885101 399.632782,332.715607 399.632782,346.995514 
	C393.402435,346.995514 387.136841,346.995514 380.398987,346.966492 
	C379.926666,346.937500 379.999878,347.006317 380.034210,347.042969 
z"/>
<path fill="#000000" opacity="1.000000" stroke="none" 
	d="
M400.000000,711.014160 
	C400.000000,720.818420 400.000000,730.125732 400.000000,739.715698 
	C393.377655,739.715698 386.972809,739.715698 380.282349,739.715698 
	C380.282349,726.373596 380.282349,712.971008 380.282349,699.283203 
	C386.625092,699.283203 393.028839,699.283203 400.000000,699.283203 
	C400.000000,702.976196 400.000000,706.746704 400.000000,711.014160 
z"/>
<path fill="#000000" opacity="1.000000" stroke="none" 
	d="
M442.042969,325.965790 
	C435.281281,325.931458 428.482910,325.931458 421.342346,325.931458 
	C421.342346,319.186737 421.342346,312.461548 421.342346,305.367249 
	C427.886993,305.367249 434.724884,305.367249 441.995514,305.367249 
	C441.995514,311.945221 441.995514,318.536865 441.966492,325.600952 
	C441.937500,326.073334 442.006317,326.000122 442.042969,325.965790 
z"/>
<path fill="#000000" opacity="1.000000" stroke="none" 
	d="
M566.034668,264.039124 
	C566.069153,257.294434 566.069153,250.513046 566.069153,243.004898 
	C572.735535,243.004898 579.433105,243.004898 586.603271,243.036926 
	C587.075806,243.068954 587.002441,243.000046 586.998779,243.437119 
	C586.995056,250.570007 586.995056,257.265839 586.995056,263.930054 
	C579.489136,263.930054 572.709595,263.930054 565.930054,263.930054 
	C565.930054,263.930054 566.000183,264.002380 566.034668,264.039124 
z"/>
<path fill="#000000" opacity="1.000000" stroke="none" 
	d="
M793.745789,657.280029 
	C800.673035,657.280029 807.600281,657.280029 814.763489,657.280029 
	C814.763489,664.037964 814.763489,670.759949 814.763489,677.742188 
	C808.004822,677.742188 801.282837,677.742188 793.991638,677.742188 
	C793.991638,671.197510 793.991638,664.620178 793.905273,657.620239 
	C793.818909,657.197510 793.745789,657.280029 793.745789,657.280029 
z"/>
<path fill="#000000" opacity="1.000000" stroke="none" 
	d="
M587.030212,762.226440 
	C593.786316,761.378784 600.516235,761.013672 607.631470,760.627625 
	C607.631470,767.781555 607.631470,774.525024 607.631470,781.635254 
	C601.214478,781.635254 594.470093,781.635254 587.003967,781.635254 
	C587.003967,775.540344 587.003967,769.124756 587.030212,762.226440 
z"/>
<path fill="#000000" opacity="1.000000" stroke="none" 
	d="
M276.000000,433.135681 
	C276.000000,438.920197 276.000000,444.219543 276.000000,449.756805 
	C268.959015,449.756805 262.221313,449.756805 255.240570,449.756805 
	C255.240570,442.953644 255.240570,436.215973 255.240570,429.001434 
	C261.417542,429.001434 267.531891,429.120331 273.638367,428.953186 
	C276.871674,428.864624 275.816010,431.044281 276.000000,433.135681 
z"/>
<path fill="#000000" opacity="1.000000" stroke="none" 
	d="
M235.253662,470.720459 
	C228.326447,470.720459 221.399231,470.720459 214.236282,470.720459 
	C214.236282,463.961456 214.236282,457.239685 214.236282,450.257568 
	C220.995560,450.257568 227.717560,450.257568 235.008362,450.257568 
	C235.008362,456.802887 235.008362,463.380188 235.094482,470.380249 
	C235.180588,470.803009 235.253662,470.720459 235.253662,470.720459 
z"/>
<path fill="#000000" opacity="1.000000" stroke="none" 
	d="
M234.965927,553.957214 
	C234.931610,560.718872 234.931610,567.517212 234.931610,574.657715 
	C228.186615,574.657715 221.461395,574.657715 214.367188,574.657715 
	C214.367188,568.112732 214.367188,561.274536 214.367188,554.004456 
	C220.945328,554.004456 227.537003,554.004456 234.601074,554.033569 
	C235.073486,554.062683 235.000244,553.993896 234.965927,553.957214 
z"/>
<path fill="#000000" opacity="1.000000" stroke="none" 
	d="
M400.069031,263.924133 
	C393.610779,263.924133 387.152527,263.924133 380.347168,263.924133 
	C380.347168,257.079987 380.347168,250.248947 380.347168,243.004898 
	C386.624878,243.004898 392.877869,243.004898 399.603363,243.036942 
	C400.075867,243.068985 400.002441,243.000061 399.998749,243.437073 
	C399.973389,250.606049 399.951721,257.338013 399.965088,264.033752 
	C400.000092,263.997559 400.069031,263.924133 400.069031,263.924133 
z"/>
<path fill="#000000" opacity="1.000000" stroke="none" 
	d="
M754.226318,698.969727 
	C753.378662,692.214233 753.013733,685.484924 752.627747,678.368530 
	C759.447144,678.368530 765.857849,678.368530 772.635376,678.368530 
	C772.635376,684.785889 772.635376,691.530212 772.635376,698.996033 
	C766.874695,698.996033 760.791809,698.996033 754.226318,698.969727 
z"/>
<path fill="#000000" opacity="1.000000" stroke="none" 
	d="
M296.965332,574.961060 
	C296.930878,581.383850 296.930878,587.843323 296.930878,594.651367 
	C290.082977,594.651367 283.251373,594.651367 276.004883,594.651367 
	C276.004883,588.376099 276.004883,582.122620 276.036957,575.396667 
	C276.069031,574.924194 276.000122,574.997620 276.437103,575.001282 
	C283.606049,575.026611 290.337982,575.048279 297.069946,575.069946 
	C297.069946,575.069946 296.999817,574.997742 296.965332,574.961060 
z"/>
<path fill="#000000" opacity="1.000000" stroke="none" 
	d="
M628.039185,719.965515 
	C621.616333,719.931030 615.156799,719.931030 608.348633,719.931030 
	C608.348633,713.082581 608.348633,706.251038 608.348633,699.004883 
	C614.623901,699.004883 620.877380,699.004883 627.603394,699.036926 
	C628.075867,699.068970 628.002441,699.000000 627.998718,699.437012 
	C627.973389,706.606018 627.951721,713.338013 627.930054,720.069946 
	C627.930054,720.069946 628.002441,720.000000 628.039185,719.965515 
z"/>
<path fill="#000000" opacity="1.000000" stroke="none" 
	d="
M793.965515,636.960815 
	C793.947693,643.378601 793.964294,649.833069 793.863403,656.783813 
	C793.745789,657.280029 793.818909,657.197510 793.849609,657.162598 
	C787.143005,657.127686 780.405640,657.127686 773.004883,657.127686 
	C773.004883,650.555298 773.004883,644.212219 773.036926,637.396606 
	C773.068970,636.924133 773.000000,636.997559 773.437012,637.001282 
	C780.606018,637.026611 787.338013,637.048279 794.069946,637.069946 
	C794.069946,637.069946 794.000000,636.997559 793.965515,636.960815 
z"/>
<path fill="#000000" opacity="1.000000" stroke="none" 
	d="
M420.965393,263.960876 
	C420.930939,270.383698 420.930939,276.843201 420.930939,283.651306 
	C414.082550,283.651306 407.250977,283.651306 400.004883,283.651306 
	C400.004883,277.376129 400.004883,271.122650 400.036957,264.396667 
	C400.069031,263.924133 400.000092,263.997559 400.437073,264.001251 
	C407.606049,264.026611 414.337982,264.048279 421.069946,264.069946 
	C421.069946,264.069946 420.999878,263.997589 420.965393,263.960876 
z"/>
<path fill="#000000" opacity="1.000000" stroke="none" 
	d="
M235.402740,595.394165 
	C242.035019,595.056335 248.322266,595.056335 254.798843,595.056335 
	C254.798843,602.133850 254.798843,608.871460 254.798843,615.795654 
	C248.193008,615.795654 241.788696,615.795654 235.057709,615.795654 
	C235.057709,608.975830 235.057709,602.353882 235.402740,595.394165 
z"/>
<path fill="#000000" opacity="1.000000" stroke="none" 
	d="
M255.042786,491.965942 
	C248.611633,491.931610 242.143814,491.931610 235.019012,491.931610 
	C235.019012,485.173737 235.019012,478.443481 235.136337,471.216858 
	C235.253662,470.720459 235.180588,470.803009 235.149841,470.837891 
	C241.525940,470.872803 247.932785,470.872803 254.995499,470.872803 
	C254.995499,477.783600 254.995499,484.456116 254.966400,491.601074 
	C254.937302,492.073486 255.006104,492.000275 255.042786,491.965942 
z"/>
<path fill="#000000" opacity="1.000000" stroke="none" 
	d="
M441.965790,346.957031 
	C441.931458,353.385895 441.931458,359.851440 441.931458,366.658417 
	C435.185913,366.658417 428.461212,366.658417 421.367249,366.658417 
	C421.367249,360.445984 421.367249,353.940735 421.367249,347.004486 
	C427.946167,347.004486 434.537354,347.004486 441.600952,347.033508 
	C442.073334,347.062500 442.000122,346.993683 441.965790,346.957031 
z"/>
<path fill="#000000" opacity="1.000000" stroke="none" 
	d="
M772.926758,428.937531 
	C772.949524,435.668610 772.972290,442.399689 772.963013,449.603302 
	C772.930969,450.075836 772.999939,450.002380 772.562988,449.998718 
	C765.727417,449.973389 759.328735,449.951721 752.930054,449.930054 
	C752.930054,449.930054 753.000061,450.002380 753.034546,450.039124 
	C753.068970,443.176666 753.068970,436.277527 753.068970,429.005646 
	C759.642029,429.005646 765.883850,429.005646 772.562744,429.005981 
	C772.999939,429.006348 772.926758,428.937531 772.926758,428.937531 
z"/>
<path fill="#000000" opacity="1.000000" stroke="none" 
	d="
M773.034302,429.043030 
	C773.068604,422.614136 773.068604,416.148560 773.068604,409.341583 
	C779.814148,409.341583 786.538879,409.341583 793.632690,409.341583 
	C793.632690,415.553375 793.632690,422.058624 793.632690,428.995514 
	C787.053833,428.995514 780.462646,428.995514 773.399109,428.966522 
	C772.926758,428.937531 772.999939,429.006348 773.034302,429.043030 
z"/>
<path fill="#000000" opacity="1.000000" stroke="none" 
	d="
M648.965332,408.960876 
	C648.930847,415.373169 648.930847,421.822174 648.930847,428.995117 
	C642.262634,428.995117 635.565979,428.995117 628.396729,428.963043 
	C627.924194,428.930969 627.997620,428.999878 628.001282,428.562927 
	C628.004944,421.762146 628.004944,415.398285 628.004944,409.069946 
	C635.513306,409.069946 642.291626,409.069946 649.069946,409.069946 
	C649.069946,409.069946 648.999817,408.997620 648.965332,408.960876 
z"/>
<path fill="#000000" opacity="1.000000" stroke="none" 
	d="
M545.042786,200.965927 
	C538.614380,200.931610 532.149292,200.931610 525.342163,200.931610 
	C525.342163,194.520874 525.342163,188.128601 525.342163,181.367126 
	C531.553650,181.367126 538.058472,181.367126 544.995544,181.367126 
	C544.995544,187.611679 544.995544,193.870255 544.966431,200.601166 
	C544.937317,201.073486 545.006104,201.000244 545.042786,200.965927 
z"/>
<path fill="#000000" opacity="1.000000" stroke="none" 
	d="
M753.034180,740.042969 
	C753.068481,733.607422 753.068481,727.135254 753.068481,720.331665 
	C759.508911,720.331665 765.907227,720.331665 772.980957,720.331665 
	C772.980957,726.481262 772.980957,732.884338 772.863403,739.783691 
	C772.745850,740.280090 772.818909,740.197510 772.849609,740.162598 
	C766.543945,740.083679 760.207520,740.039612 753.398926,739.966553 
	C752.926636,739.937439 752.999817,740.006287 753.034180,740.042969 
z"/>
<path fill="#FFFFFF" opacity="1.000000" stroke="none" 
	d="
M710.605957,616.402954 
	C710.943787,637.033752 710.943787,657.319397 710.943787,677.798706 
	C690.199402,677.798706 669.795166,677.798706 649.204346,677.798706 
	C649.204346,657.193115 649.204346,636.788879 649.204346,616.057739 
	C669.693848,616.057739 689.980957,616.057739 710.605957,616.402954 
M670.000000,652.384033 
	C670.000000,653.825562 670.000000,655.267151 670.000000,656.750916 
	C677.234741,656.750916 683.971619,656.750916 690.749023,656.750916 
	C690.749023,650.094543 690.749023,643.690369 690.749023,637.252747 
	C683.757507,637.252747 677.020142,637.252747 670.000000,637.252747 
	C670.000000,642.135193 670.000000,646.770142 670.000000,652.384033 
z"/>
<path fill="#FFFFFF" opacity="1.000000" stroke="none" 
	d="
M752.962524,450.402161 
	C759.328735,449.951721 765.727417,449.973389 772.598022,449.962555 
	C773.069946,463.825928 773.069946,477.721832 773.069946,491.986450 
	C780.122009,491.986450 786.849976,491.986450 794.004944,491.986450 
	C794.004944,498.607758 794.004944,504.866852 794.037476,511.597961 
	C787.272644,512.069946 780.475403,512.069946 773.306274,512.069946 
	C773.306274,518.820312 773.306274,525.546875 773.306274,533.005005 
	C759.589661,533.005005 746.231995,533.005005 732.402161,533.037476 
	C731.951721,526.338013 731.973328,519.606018 731.962524,512.402100 
	C738.728210,511.930054 745.526367,511.930054 752.995056,511.930054 
	C752.995056,491.551361 752.995056,471.212799 752.962524,450.402161 
z"/>
<path fill="#FFFFFF" opacity="1.000000" stroke="none" 
	d="
M690.597961,511.962585 
	C691.048340,525.661926 691.026672,539.393860 691.037476,553.597839 
	C684.265442,554.069946 677.460876,554.069946 670.274048,554.069946 
	C670.274048,560.850220 670.274048,567.583618 670.274048,574.657654 
	C663.179077,574.657654 656.446960,574.657654 649.356262,574.657654 
	C649.356262,561.092773 649.356262,547.260498 649.356262,533.042480 
	C656.089355,533.042480 662.823425,533.042480 669.995056,533.042480 
	C669.995056,526.071289 669.995056,519.472778 669.962524,512.402100 
	C676.662048,511.951752 683.393982,511.973419 690.597961,511.962585 
z"/>
<path fill="#FFFFFF" opacity="1.000000" stroke="none" 
	d="
M670.037476,760.597900 
	C663.278137,761.069946 656.486267,761.069946 648.994995,761.069946 
	C648.994995,747.567078 648.994995,734.220703 648.962524,720.402161 
	C655.734436,719.930054 662.538879,719.930054 669.725586,719.930054 
	C669.725586,713.150024 669.725586,706.416809 669.725586,699.342590 
	C676.820190,699.342590 683.552185,699.342590 690.643311,699.342590 
	C690.643311,712.573425 690.643311,726.072815 690.643311,739.957886 
	C683.911377,739.957886 677.175903,739.957886 670.004944,739.957886 
	C670.004944,746.928955 670.004944,753.527405 670.037476,760.597900 
z"/>
<path fill="#FFFFFF" opacity="1.000000" stroke="none" 
	d="
M649.037476,408.597900 
	C642.291626,409.069946 635.513306,409.069946 628.004944,409.069946 
	C628.004944,415.398285 628.004944,421.762146 628.037476,428.597961 
	C621.671387,429.044861 615.272827,429.019775 608.437134,428.996155 
	C607.999939,428.997620 608.069946,429.069946 608.037476,428.597961 
	C608.004944,421.762024 608.004944,415.398071 608.004944,408.930054 
	C600.486877,408.930054 593.708435,408.930054 586.966187,408.965088 
	C587.002380,409.000122 587.075806,409.069031 587.075806,409.069031 
	C587.052368,402.337555 587.028992,395.606079 587.005859,388.437347 
	C587.006165,388.000092 586.937317,388.073334 586.937317,388.073334 
	C607.480957,388.073334 628.024658,388.073334 649.004944,388.073334 
	C649.004944,394.942444 649.004944,401.534149 649.037476,408.597900 
z"/>
<path fill="#FFFFFF" opacity="1.000000" stroke="none" 
	d="
M566.402100,471.037415 
	C565.955139,464.338074 565.980225,457.606232 566.003784,450.437073 
	C566.002258,449.999817 565.930054,450.069946 566.402100,450.037445 
	C573.570374,450.004944 580.266541,450.004944 587.069946,450.004944 
	C587.069946,442.489258 587.069946,435.709656 587.034973,428.965027 
	C587.000000,429.000000 586.930054,429.069946 587.402039,429.037415 
	C594.606018,429.026581 601.337952,429.048279 608.069946,429.069946 
	C608.069946,429.069946 607.999939,428.997620 607.965454,428.960876 
	C607.931030,442.704773 607.931030,456.485352 607.931030,471.004913 
	C594.259094,471.004913 580.566650,471.004913 566.402100,471.037415 
z"/>
<path fill="#FFFFFF" opacity="1.000000" stroke="none" 
	d="
M690.962524,554.402100 
	C697.328735,553.951721 703.727417,553.973389 710.598022,553.962524 
	C711.069946,560.734741 711.069946,567.539429 711.069946,574.726929 
	C717.850830,574.726929 724.584656,574.726929 731.658264,574.726929 
	C731.658264,581.492126 731.658264,587.889404 731.658264,594.645569 
	C718.421509,594.645569 704.921509,594.645569 690.995056,594.645569 
	C690.995056,581.377563 690.995056,568.125854 690.962524,554.402100 
z"/>
<path fill="#FFFFFF" opacity="1.000000" stroke="none" 
	d="
M628.402039,720.037476 
	C627.951721,713.338013 627.973389,706.606018 627.962524,699.402100 
	C634.709656,698.930054 641.489258,698.930054 649.004944,698.930054 
	C649.004944,705.733459 649.004944,712.429626 649.037476,719.597900 
	C642.337952,720.048340 635.606018,720.026672 628.402039,720.037476 
z"/>
<path fill="#FFFFFF" opacity="1.000000" stroke="none" 
	d="
M794.037476,636.597900 
	C787.338013,637.048279 780.606018,637.026611 773.402100,637.037476 
	C772.930054,630.278870 772.930054,623.487854 772.930054,616.348572 
	C779.917847,616.348572 786.749268,616.348572 794.004944,616.348572 
	C794.004944,622.956055 794.004944,629.540955 794.037476,636.597900 
z"/>
<path fill="#FFFFFF" opacity="1.000000" stroke="none" 
	d="
M711.402100,554.037476 
	C710.930054,547.290344 710.930054,540.510742 710.930054,532.995056 
	C717.733459,532.995056 724.429626,532.995056 731.597900,532.962524 
	C732.069946,539.709656 732.069946,546.489258 732.069946,554.004944 
	C725.266479,554.004944 718.570312,554.004944 711.402100,554.037476 
z"/>
<path fill="#FFFFFF" opacity="1.000000" stroke="none" 
	d="
M463.401978,450.037445 
	C462.951721,429.671417 462.973389,409.272858 462.962555,388.402191 
	C469.399872,387.930054 475.869659,387.930054 482.718201,387.930054 
	C482.718201,394.844513 482.718201,401.574371 482.718201,408.652100 
	C489.806946,408.652100 496.537415,408.652100 503.825470,408.652100 
	C503.825470,402.113190 503.825470,395.252930 503.825470,388.032745 
	C511.099365,388.032745 517.832703,388.032745 524.995056,388.032745 
	C524.995056,381.066833 524.995056,374.470520 524.962524,367.402130 
	C531.403442,366.930054 537.876770,366.930054 544.674500,366.930054 
	C544.674500,380.852234 544.674500,394.571320 544.674500,408.677185 
	C538.535156,408.677185 532.132446,408.677185 525.168579,408.677185 
	C525.168579,415.556702 525.168579,422.088593 525.168579,428.984802 
	C517.884399,428.984802 511.147278,428.984802 504.004944,428.984802 
	C504.004944,442.952148 504.004944,456.538910 504.037445,470.597809 
	C497.279236,471.069946 490.488556,471.069946 483.160583,471.069946 
	C483.160583,464.091217 483.160583,457.244507 483.160583,450.004944 
	C476.379242,450.004944 470.126587,450.004944 463.401978,450.037445 
z"/>
<path fill="#FFFFFF" opacity="1.000000" stroke="none" 
	d="
M503.597900,491.962585 
	C504.069946,512.383362 504.069946,532.836609 504.069946,553.644897 
	C490.418518,553.644897 476.914612,553.644897 463.021698,553.644897 
	C463.021698,546.891541 463.021698,540.153503 463.021698,533.004944 
	C449.051270,533.004944 435.462799,533.004944 421.402191,533.037476 
	C420.930054,519.608154 420.930054,506.146393 420.930054,492.342468 
	C427.822113,492.342468 434.555420,492.342468 441.676575,492.342468 
	C441.676575,498.463898 441.676575,504.866760 441.676575,511.634430 
	C455.557648,511.634430 469.060059,511.634430 482.951050,511.634430 
	C482.951050,505.253082 482.951050,498.848541 482.951050,491.995087 
	C489.926300,491.995087 496.526093,491.995087 503.597900,491.962585 
z"/>
<path fill="#FFFFFF" opacity="1.000000" stroke="none" 
	d="
M297.073364,512.062683 
	C297.047272,505.666412 297.021179,499.270172 296.962585,492.401978 
	C317.475250,491.930054 338.020477,491.930054 359.004944,491.930054 
	C359.004944,498.606567 359.004944,504.866272 359.037445,511.597961 
	C338.671570,512.044739 318.273224,512.019592 297.437500,511.994110 
	C297.000183,511.993835 297.073364,512.062683 297.073364,512.062683 
z"/>
<path fill="#FFFFFF" opacity="1.000000" stroke="none" 
	d="
M380.034241,512.042969 
	C380.068573,498.621429 380.068573,485.163177 380.068573,471.352478 
	C386.464905,471.352478 392.864227,471.352478 399.632751,471.352478 
	C399.632751,484.551849 399.632751,498.049225 399.632751,511.995514 
	C393.402069,511.995514 387.136688,511.995514 380.399017,511.966492 
	C379.926727,511.937469 379.999908,512.006287 380.034241,512.042969 
z"/>
<path fill="#FFFFFF" opacity="1.000000" stroke="none" 
	d="
M441.962585,450.402100 
	C448.662018,449.951721 455.393951,449.973389 462.597931,449.962555 
	C463.069946,456.721161 463.069946,463.512268 463.069946,470.651428 
	C456.082642,470.651428 449.251099,470.651428 441.995087,470.651428 
	C441.995087,464.043945 441.995087,457.459015 441.962585,450.402100 
z"/>
<path fill="#FFFFFF" opacity="1.000000" stroke="none" 
	d="
M338.034210,388.042969 
	C338.068542,381.281281 338.068542,374.482910 338.068542,367.342346 
	C344.813263,367.342346 351.538452,367.342346 358.632751,367.342346 
	C358.632751,373.886993 358.632751,380.724884 358.632751,387.995514 
	C352.054779,387.995514 345.463135,387.995514 338.399048,387.966492 
	C337.926666,387.937500 337.999878,388.006317 338.034210,388.042969 
z"/>
<path fill="#FFFFFF" opacity="1.000000" stroke="none" 
	d="
M337.957031,409.034210 
	C344.718262,409.068542 351.516205,409.068542 358.656952,409.068542 
	C358.656952,415.478088 358.656952,421.870789 358.656952,428.632782 
	C352.113495,428.632782 345.276001,428.632782 338.004486,428.632782 
	C338.004486,422.389343 338.004486,416.130310 338.033508,409.398987 
	C338.062500,408.926666 337.993683,408.999878 337.957031,409.034210 
z"/>
<path fill="#FFFFFF" opacity="1.000000" stroke="none" 
	d="
M483.402100,347.037415 
	C482.930054,333.185608 482.930054,319.301300 482.930054,304.994843 
	C489.949524,304.994843 496.534576,304.994843 503.562042,305.433167 
	C504.004486,312.463135 504.004486,319.054779 504.004486,325.632721 
	C511.274658,325.632721 518.112793,325.632721 524.657654,325.632721 
	C524.657654,318.538452 524.657654,311.813263 524.657654,305.068542 
	C517.517090,305.068542 510.718719,305.068542 503.920349,305.068542 
	C503.945282,298.337067 503.970184,291.605560 503.962585,284.402069 
	C517.382935,283.930054 530.835815,283.930054 544.819092,283.930054 
	C544.819092,297.897614 544.819092,311.731354 544.819092,325.995056 
	C551.935181,325.995056 558.530457,325.995056 565.597900,325.962555 
	C566.069946,332.727234 566.069946,339.524414 566.069946,346.840149 
	C552.410339,346.840149 538.917725,346.840149 525.004944,346.840149 
	C525.004944,353.608185 525.004944,359.867065 525.037476,366.597961 
	C518.279297,367.069946 511.488678,367.069946 504.158752,367.069946 
	C504.158752,360.423004 504.158752,353.908417 504.158752,347.004913 
	C497.043091,347.004913 490.458618,347.004913 483.402100,347.037415 
z"/>
<path fill="#FFFFFF" opacity="1.000000" stroke="none" 
	d="
M607.930969,305.075836 
	C614.390381,305.075836 620.849854,305.075836 628.004944,305.075836 
	C628.004944,318.768982 628.004944,332.447327 628.037476,346.597809 
	C614.517578,347.069946 600.965149,347.069946 587.005371,347.069946 
	C587.005371,340.045685 587.005371,333.460052 587.003784,326.437103 
	C587.002258,325.999786 586.930054,326.069946 587.402100,326.037445 
	C594.570374,326.004944 601.266541,326.004944 608.069946,326.004944 
	C608.069946,318.489258 608.069946,311.709656 608.034912,304.966217 
	C607.999939,305.002380 607.930969,305.075836 607.930969,305.075836 
z"/>
<path fill="#FFFFFF" opacity="1.000000" stroke="none" 
	d="
M566.038940,449.965332 
	C559.283691,449.930878 552.491699,449.930878 545.349915,449.930878 
	C545.349915,443.084595 545.349915,436.252655 545.349915,429.005341 
	C551.954895,429.005341 558.540222,429.005341 565.562866,429.003845 
	C566.000183,429.002380 565.930054,428.930054 565.962524,429.402039 
	C565.973389,436.605988 565.951721,443.337982 565.930054,450.069946 
	C565.930054,450.069946 566.002258,449.999817 566.038940,449.965332 
z"/>
<path fill="#FFFFFF" opacity="1.000000" stroke="none" 
	d="
M587.042847,387.965759 
	C580.281067,387.931458 573.482727,387.931458 566.342285,387.931458 
	C566.342285,381.186646 566.342285,374.461456 566.342285,367.367249 
	C572.887207,367.367249 579.725403,367.367249 586.995544,367.367249 
	C586.995544,373.945251 586.995544,380.536896 586.966431,387.600952 
	C586.937317,388.073334 587.006165,388.000092 587.042847,387.965759 
z"/>
<path fill="#FFFFFF" opacity="1.000000" stroke="none" 
	d="
M566.402039,326.037415 
	C565.930054,319.290405 565.930054,312.510834 565.930054,305.005341 
	C572.733948,305.005341 579.429688,305.005341 586.562744,305.003845 
	C587.000061,305.002380 586.930054,304.930054 586.962524,305.402039 
	C586.973389,312.605988 586.951721,319.337982 586.930054,326.069946 
	C586.930054,326.069946 587.002258,325.999786 587.038940,325.965332 
	C580.341797,325.955566 573.607910,325.980255 566.402039,326.037415 
z"/>
<path fill="#FFFFFF" opacity="1.000000" stroke="none" 
	d="
M566.034668,429.039124 
	C566.069153,422.626831 566.069153,416.177826 566.069153,409.004883 
	C572.737366,409.004883 579.434021,409.004883 586.603271,409.036957 
	C587.075806,409.069031 587.002380,409.000122 586.998657,409.437012 
	C586.973328,416.272552 586.951660,422.671265 586.930054,429.069946 
	C586.930054,429.069946 587.000000,429.000000 586.562988,428.997528 
	C579.393982,428.973389 572.661987,428.951721 565.930054,428.930054 
	C565.930054,428.930054 566.000183,429.002380 566.034668,429.039124 
z"/>
<path fill="#FFFFFF" opacity="1.000000" stroke="none" 
	d="
M565.597961,677.962524 
	C566.069946,684.721130 566.069946,691.512146 566.069946,698.651428 
	C559.082153,698.651428 552.250732,698.651428 544.995056,698.651428 
	C544.995056,692.044006 544.995056,685.459106 544.962524,678.402100 
	C551.662048,677.951660 558.393982,677.973328 565.597961,677.962524 
z"/>
<path fill="#FFFFFF" opacity="1.000000" stroke="none" 
	d="
M483.037415,615.597900 
	C476.622711,616.069946 470.175476,616.069946 462.995056,616.069946 
	C462.995056,609.264709 462.995056,602.569458 462.962555,595.402100 
	C469.377319,594.930054 475.824615,594.930054 483.004913,594.930054 
	C483.004913,601.735352 483.004913,608.430664 483.037415,615.597900 
z"/>
<path fill="#FFFFFF" opacity="1.000000" stroke="none" 
	d="
M463.037445,594.598022 
	C456.291534,595.069946 449.513153,595.069946 441.995056,595.069946 
	C441.995056,588.601868 441.995056,582.237976 441.962555,575.402039 
	C448.708466,574.930054 455.486877,574.930054 463.004944,574.930054 
	C463.004944,581.398132 463.004944,587.762085 463.037445,594.598022 
z"/>
<path fill="#FFFFFF" opacity="1.000000" stroke="none" 
	d="
M235.000000,246.000000 
	C235.000000,230.857300 235.000000,216.214600 235.000000,201.286453 
	C269.287872,201.286453 303.357117,201.286453 337.713562,201.286453 
	C337.713562,235.621201 337.713562,270.023743 337.713562,304.713501 
	C303.712189,304.713501 269.642944,304.713501 235.000000,304.713501 
	C235.000000,285.356720 235.000000,265.928345 235.000000,246.000000 
M262.560486,284.000000 
	C280.649963,284.000000 298.739441,284.000000 316.690826,284.000000 
	C316.690826,262.979065 316.690826,242.574890 316.690826,222.310608 
	C295.976196,222.310608 275.571991,222.310608 255.312332,222.310608 
	C255.312332,243.026367 255.312332,263.430237 255.312332,284.000000 
	C257.608032,284.000000 259.592407,284.000000 262.560486,284.000000 
z"/>
<path fill="#FFFFFF" opacity="1.000000" stroke="none" 
	d="
M235.000000,684.000000 
	C235.000000,674.856506 235.000000,666.213074 235.000000,657.285645 
	C269.289429,657.285645 303.358673,657.285645 337.714325,657.285645 
	C337.714325,691.622742 337.714325,726.025330 337.714325,760.714294 
	C303.710663,760.714294 269.641418,760.714294 235.000000,760.714294 
	C235.000000,735.354797 235.000000,709.927368 235.000000,684.000000 
M257.677734,678.000244 
	C254.792282,677.510681 254.969681,679.393372 254.981064,681.333923 
	C255.027008,689.166199 255.000015,696.998962 255.000000,704.831543 
	C254.999985,716.443665 255.000000,728.055725 255.000000,739.769409 
	C275.860931,739.769409 296.264740,739.769409 316.767120,739.769409 
	C316.767120,719.134338 316.767120,698.730530 316.767120,678.000000 
	C297.241302,678.000000 277.946533,678.000000 257.677734,678.000244 
z"/>
<path fill="#FFFFFF" opacity="1.000000" stroke="none" 
	d="
M735.000000,201.000000 
	C754.808899,201.000000 774.117798,201.000000 793.712952,201.000000 
	C793.712952,235.619965 793.712952,270.022522 793.712952,304.712891 
	C759.713440,304.712891 725.644226,304.712891 691.287109,304.712891 
	C691.287109,270.380096 691.287109,235.977570 691.287109,201.000000 
	C705.641113,201.000000 720.070557,201.000000 735.000000,201.000000 
M773.000000,270.492126 
	C773.000000,254.397964 773.000000,238.303818 773.000000,222.288742 
	C752.018738,222.288742 731.615723,222.288742 711.289001,222.288742 
	C711.289001,242.981796 711.289001,263.384827 711.289001,283.710754 
	C731.982300,283.710754 752.385376,283.710754 773.000000,283.710754 
	C773.000000,279.445221 773.000000,275.467133 773.000000,270.492126 
z"/>
<path fill="#FFFFFF" opacity="1.000000" stroke="none" 
	d="
M565.962524,264.401978 
	C572.709595,263.930054 579.489136,263.930054 586.995056,263.930054 
	C586.995056,257.265839 586.995056,250.570007 586.962524,243.402130 
	C593.728577,242.930054 600.527100,242.930054 607.995117,242.930054 
	C607.995117,263.450897 607.995117,283.790741 607.963013,304.603210 
	C607.930969,305.075836 607.999939,305.002380 607.562927,304.998718 
	C600.393982,304.973358 593.661987,304.951691 586.930054,304.930054 
	C586.930054,304.930054 587.000061,305.002380 587.034546,305.039124 
	C587.068970,298.284088 587.068970,291.492371 587.068970,284.162598 
	C580.094116,284.162598 573.246887,284.162598 565.995056,284.162598 
	C565.995056,277.380127 565.995056,271.127014 565.962524,264.401978 
z"/>
<path fill="#FFFFFF" opacity="1.000000" stroke="none" 
	d="
M608.002075,219.803055 
	C608.000244,213.358978 608.000244,207.398163 608.000244,201.222046 
	C614.751587,201.222046 621.155945,201.222046 627.781006,201.222046 
	C627.781006,208.091278 627.781006,214.828903 627.781006,221.996460 
	C621.698547,221.996460 615.746948,222.045883 609.799011,221.921631 
	C609.189514,221.908905 608.601746,220.856369 608.002075,219.803055 
z"/>
<path fill="#FFFFFF" opacity="1.000000" stroke="none" 
	d="
M297.037415,574.597900 
	C290.337982,575.048279 283.606049,575.026611 276.402069,575.037476 
	C275.930054,568.278870 275.930054,561.487793 275.930054,554.348511 
	C282.917847,554.348511 289.749329,554.348511 297.004913,554.348511 
	C297.004913,560.956055 297.004913,567.541016 297.037415,574.597900 
z"/>
<path fill="#FFFFFF" opacity="1.000000" stroke="none" 
	d="
M296.965820,511.957153 
	C296.931488,518.718872 296.931488,525.517212 296.931488,532.657715 
	C290.186646,532.657715 283.461456,532.657715 276.367249,532.657715 
	C276.367249,526.112793 276.367249,519.274597 276.367249,512.004456 
	C282.945282,512.004456 289.536926,512.004456 296.600983,512.033569 
	C297.073364,512.062683 297.000183,511.993835 296.965820,511.957153 
z"/>
<path fill="#FFFFFF" opacity="1.000000" stroke="none" 
	d="
M421.037415,263.597961 
	C414.337982,264.048279 407.606049,264.026611 400.402069,264.037445 
	C399.951721,257.338013 399.973389,250.606049 399.962555,243.402069 
	C406.662018,242.951706 413.393951,242.973373 420.597931,242.962555 
	C421.048248,249.662033 421.026581,256.394012 421.037415,263.597961 
z"/>
<path fill="#000000" opacity="1.000000" stroke="none" 
	d="
M670.000000,651.894531 
	C670.000000,646.770142 670.000000,642.135193 670.000000,637.252747 
	C677.020142,637.252747 683.757507,637.252747 690.749023,637.252747 
	C690.749023,643.690369 690.749023,650.094543 690.749023,656.750916 
	C683.971619,656.750916 677.234741,656.750916 670.000000,656.750916 
	C670.000000,655.267151 670.000000,653.825562 670.000000,651.894531 
z"/>
<path fill="#000000" opacity="1.000000" stroke="none" 
	d="
M587.401978,429.037415 
	C586.951660,422.671265 586.973328,416.272552 586.962524,409.401978 
	C593.708435,408.930054 600.486877,408.930054 608.004944,408.930054 
	C608.004944,415.398071 608.004944,421.762024 608.037476,428.597961 
	C601.337952,429.048279 594.606018,429.026581 587.401978,429.037415 
z"/>
<path fill="#000000" opacity="1.000000" stroke="none" 
	d="
M565.962524,429.402039 
	C572.661987,428.951721 579.393982,428.973389 586.597900,428.962555 
	C587.069946,435.709656 587.069946,442.489258 587.069946,450.004944 
	C580.266541,450.004944 573.570374,450.004944 566.402100,450.037445 
	C565.951721,443.337982 565.973389,436.605988 565.962524,429.402039 
z"/>
<path fill="#000000" opacity="1.000000" stroke="none" 
	d="
M503.957031,305.034210 
	C510.718719,305.068542 517.517090,305.068542 524.657654,305.068542 
	C524.657654,311.813263 524.657654,318.538452 524.657654,325.632721 
	C518.112793,325.632721 511.274658,325.632721 504.004486,325.632721 
	C504.004486,319.054779 504.004486,312.463135 504.033508,305.399048 
	C504.062500,304.926666 503.993683,304.999878 503.957031,305.034210 
z"/>
<path fill="#000000" opacity="1.000000" stroke="none" 
	d="
M586.962524,305.402039 
	C593.661987,304.951691 600.393982,304.973358 607.597900,304.962524 
	C608.069946,311.709656 608.069946,318.489258 608.069946,326.004944 
	C601.266541,326.004944 594.570374,326.004944 587.402100,326.037445 
	C586.951721,319.337982 586.973389,312.605988 586.962524,305.402039 
z"/>
<path fill="#000000" opacity="1.000000" stroke="none" 
	d="
M262.068634,284.000000 
	C259.592407,284.000000 257.608032,284.000000 255.312332,284.000000 
	C255.312332,263.430237 255.312332,243.026367 255.312332,222.310608 
	C275.571991,222.310608 295.976196,222.310608 316.690826,222.310608 
	C316.690826,242.574890 316.690826,262.979065 316.690826,284.000000 
	C298.739441,284.000000 280.649963,284.000000 262.068634,284.000000 
z"/>
<path fill="#000000" opacity="1.000000" stroke="none" 
	d="
M258.164734,678.000122 
	C277.946533,678.000000 297.241302,678.000000 316.767120,678.000000 
	C316.767120,698.730530 316.767120,719.134338 316.767120,739.769409 
	C296.264740,739.769409 275.860931,739.769409 255.000000,739.769409 
	C255.000000,728.055725 254.999985,716.443665 255.000000,704.831543 
	C255.000015,696.998962 255.027008,689.166199 254.981064,681.333923 
	C254.969681,679.393372 254.792282,677.510681 258.164734,678.000122 
z"/>
<path fill="#000000" opacity="1.000000" stroke="none" 
	d="
M773.000000,270.990601 
	C773.000000,275.467133 773.000000,279.445221 773.000000,283.710754 
	C752.385376,283.710754 731.982300,283.710754 711.289001,283.710754 
	C711.289001,263.384827 711.289001,242.981796 711.289001,222.288742 
	C731.615723,222.288742 752.018738,222.288742 773.000000,222.288742 
	C773.000000,238.303818 773.000000,254.397964 773.000000,270.990601 
z"/>
</svg>