<svg xmlns="http://www.w3.org/2000/svg" xmlns:xlink="http://www.w3.org/1999/xlink" width="500" zoomAndPan="magnify" viewBox="0 0 375 374.999991" height="500" preserveAspectRatio="xMidYMid meet" version="1.0"><defs><g/><clipPath id="cb6d29d7ef"><path d="M 95 84 L 139 84 L 139 134 L 95 134 Z M 95 84 " clip-rule="nonzero"/></clipPath><clipPath id="6f75605b72"><path d="M 95.652344 93.804688 L 126.007812 83.835938 L 139.167969 123.898438 L 108.816406 133.871094 Z M 95.652344 93.804688 " clip-rule="nonzero"/></clipPath><clipPath id="bd2ce61048"><path d="M 95.652344 93.804688 L 125.542969 83.988281 L 138.527344 123.515625 L 108.640625 133.335938 Z M 95.652344 93.804688 " clip-rule="nonzero"/></clipPath></defs><g fill="#000000" fill-opacity="1"><g transform="translate(28.855846, 253.755101)"><g><path d="M 10.679688 0 C 10.363281 0.3125 10.679688 0.941406 10.992188 0.941406 C 11.308594 0.941406 11.308594 0.941406 11.308594 0.941406 C 11.621094 0.941406 11.9375 0.628906 12.25 0.3125 L 66.273438 -173.378906 L 120.296875 0.3125 C 120.613281 0.628906 120.925781 0.941406 121.238281 0.941406 L 147.9375 0.941406 C 147.9375 0.941406 148.253906 0.941406 148.566406 0.628906 C 148.566406 0.3125 148.566406 0.3125 148.566406 0 L 80.40625 -219.238281 C 80.09375 -219.550781 80.09375 -219.550781 80.09375 -219.550781 C 80.09375 -219.550781 80.09375 -219.550781 79.78125 -219.550781 C 79.78125 -219.550781 79.78125 -219.867188 79.464844 -219.867188 C 79.464844 -219.867188 79.464844 -219.550781 79.464844 -219.550781 C 79.152344 -219.550781 79.152344 -219.550781 79.152344 -219.550781 C 79.152344 -219.550781 79.152344 -219.550781 78.835938 -219.238281 L 65.332031 -176.207031 Z M 10.679688 0 "/></g></g></g><g fill="#000000" fill-opacity="1"><g transform="translate(139.174869, 352.820325)"><g><path d="M 120.5 0.9375 C 149.921875 0.9375 177.464844 -10.328125 198.121094 -31.296875 C 198.433594 -31.613281 198.433594 -31.925781 198.121094 -32.550781 C 197.808594 -32.863281 197.183594 -32.863281 196.871094 -32.550781 C 176.523438 -11.894531 149.296875 -0.625 120.5 -0.625 C 74.804688 -0.625 37.558594 -49.140625 37.558594 -108.917969 C 37.558594 -168.699219 74.804688 -217.214844 120.5 -217.214844 C 149.296875 -217.214844 176.523438 -205.945312 196.871094 -185.601562 C 197.183594 -185.289062 197.808594 -185.289062 198.121094 -185.601562 C 198.433594 -185.914062 198.433594 -186.539062 198.121094 -186.855469 C 177.464844 -207.511719 149.921875 -218.777344 120.5 -218.777344 C 91.078125 -218.777344 63.535156 -207.511719 42.566406 -186.855469 C -0.3125 -143.972656 -0.3125 -74.179688 42.566406 -31.296875 C 63.535156 -10.328125 91.078125 0.9375 120.5 0.9375 Z M 120.5 0.9375 "/></g></g></g><g clip-path="url(#cb6d29d7ef)"><g clip-path="url(#6f75605b72)"><g clip-path="url(#bd2ce61048)"><path fill="#ffffff" d="M 95.652344 93.804688 L 125.398438 84.035156 L 138.359375 123.492188 L 108.617188 133.261719 Z M 95.652344 93.804688 " fill-opacity="1" fill-rule="nonzero"/></g></g></g></svg>