<svg xmlns="http://www.w3.org/2000/svg" xmlns:xlink="http://www.w3.org/1999/xlink" width="500" zoomAndPan="magnify" viewBox="0 0 375 374.999991" height="500" preserveAspectRatio="xMidYMid meet" version="1.0"><defs><g/><clipPath id="575faefd28"><path d="M 112 73 L 137 73 L 137 100 L 112 100 Z M 112 73 " clip-rule="nonzero"/></clipPath><clipPath id="42951d6f52"><path d="M 112.707031 78.851562 L 130.464844 73.019531 L 138.242188 96.699219 L 120.484375 102.53125 Z M 112.707031 78.851562 " clip-rule="nonzero"/></clipPath><clipPath id="e3d473d14c"><path d="M 112.707031 78.851562 L 129.292969 73.402344 L 136.300781 94.738281 L 119.714844 100.1875 Z M 112.707031 78.851562 " clip-rule="nonzero"/></clipPath><clipPath id="b52330daa9"><path d="M 112.707031 78.851562 L 129.261719 73.414062 L 136.066406 94.132812 L 119.511719 99.570312 Z M 112.707031 78.851562 " clip-rule="nonzero"/></clipPath><linearGradient x1="-2.075492" gradientTransform="matrix(2.959787, -0.97227, 0.97227, 2.959787, 112.705195, 78.852688)" y1="0" x2="7.66924" gradientUnits="userSpaceOnUse" y2="0" id="8bd320db38"><stop stop-opacity="1" stop-color="rgb(54.899597%, 32.199097%, 100%)" offset="0"/><stop stop-opacity="1" stop-color="rgb(54.899597%, 32.199097%, 100%)" offset="0.125"/><stop stop-opacity="1" stop-color="rgb(54.899597%, 32.199097%, 100%)" offset="0.1875"/><stop stop-opacity="1" stop-color="rgb(54.899597%, 32.199097%, 100%)" offset="0.203125"/><stop stop-opacity="1" stop-color="rgb(54.899597%, 32.199097%, 100%)" offset="0.210938"/><stop stop-opacity="1" stop-color="rgb(54.804993%, 32.479858%, 99.949646%)" offset="0.214844"/><stop stop-opacity="1" stop-color="rgb(54.710388%, 32.762146%, 99.900818%)" offset="0.21875"/><stop stop-opacity="1" stop-color="rgb(54.582214%, 33.14209%, 99.833679%)" offset="0.222656"/><stop stop-opacity="1" stop-color="rgb(54.454041%, 33.52356%, 99.768066%)" offset="0.226562"/><stop stop-opacity="1" stop-color="rgb(54.325867%, 33.905029%, 99.700928%)" offset="0.230469"/><stop stop-opacity="1" stop-color="rgb(54.199219%, 34.286499%, 99.633789%)" offset="0.234375"/><stop stop-opacity="1" stop-color="rgb(54.071045%, 34.666443%, 99.56665%)" offset="0.238281"/><stop stop-opacity="1" stop-color="rgb(53.942871%, 35.047913%, 99.501038%)" offset="0.242188"/><stop stop-opacity="1" stop-color="rgb(53.814697%, 35.429382%, 99.433899%)" offset="0.246094"/><stop stop-opacity="1" stop-color="rgb(53.686523%, 35.810852%, 99.36676%)" offset="0.25"/><stop stop-opacity="1" stop-color="rgb(53.55835%, 36.190796%, 99.299622%)" offset="0.253906"/><stop stop-opacity="1" stop-color="rgb(53.431702%, 36.572266%, 99.234009%)" offset="0.257812"/><stop stop-opacity="1" stop-color="rgb(53.303528%, 36.953735%, 99.16687%)" offset="0.261719"/><stop stop-opacity="1" stop-color="rgb(53.175354%, 37.335205%, 99.101257%)" offset="0.265625"/><stop stop-opacity="1" stop-color="rgb(53.04718%, 37.715149%, 99.034119%)" offset="0.269531"/><stop stop-opacity="1" stop-color="rgb(52.919006%, 38.096619%, 98.96698%)" offset="0.273438"/><stop stop-opacity="1" stop-color="rgb(52.790833%, 38.478088%, 98.899841%)" offset="0.277344"/><stop stop-opacity="1" stop-color="rgb(52.664185%, 38.859558%, 98.834229%)" offset="0.28125"/><stop stop-opacity="1" stop-color="rgb(52.536011%, 39.239502%, 98.76709%)" offset="0.285156"/><stop stop-opacity="1" stop-color="rgb(52.407837%, 39.620972%, 98.699951%)" offset="0.289062"/><stop stop-opacity="1" stop-color="rgb(52.279663%, 40.000916%, 98.632812%)" offset="0.292969"/><stop stop-opacity="1" stop-color="rgb(52.151489%, 40.382385%, 98.5672%)" offset="0.296875"/><stop stop-opacity="1" stop-color="rgb(52.023315%, 40.763855%, 98.500061%)" offset="0.300781"/><stop stop-opacity="1" stop-color="rgb(51.896667%, 41.145325%, 98.432922%)" offset="0.304688"/><stop stop-opacity="1" stop-color="rgb(51.768494%, 41.525269%, 98.365784%)" offset="0.308594"/><stop stop-opacity="1" stop-color="rgb(51.64032%, 41.906738%, 98.300171%)" offset="0.3125"/><stop stop-opacity="1" stop-color="rgb(51.512146%, 42.288208%, 98.233032%)" offset="0.316406"/><stop stop-opacity="1" stop-color="rgb(51.383972%, 42.669678%, 98.167419%)" offset="0.320313"/><stop stop-opacity="1" stop-color="rgb(51.255798%, 43.049622%, 98.100281%)" offset="0.324219"/><stop stop-opacity="1" stop-color="rgb(51.127625%, 43.431091%, 98.033142%)" offset="0.328125"/><stop stop-opacity="1" stop-color="rgb(50.999451%, 43.812561%, 97.966003%)" offset="0.332031"/><stop stop-opacity="1" stop-color="rgb(50.872803%, 44.194031%, 97.900391%)" offset="0.335938"/><stop stop-opacity="1" stop-color="rgb(50.744629%, 44.573975%, 97.833252%)" offset="0.339844"/><stop stop-opacity="1" stop-color="rgb(50.616455%, 44.955444%, 97.766113%)" offset="0.34375"/><stop stop-opacity="1" stop-color="rgb(50.488281%, 45.336914%, 97.698975%)" offset="0.347656"/><stop stop-opacity="1" stop-color="rgb(50.360107%, 45.718384%, 97.633362%)" offset="0.351563"/><stop stop-opacity="1" stop-color="rgb(50.231934%, 46.098328%, 97.566223%)" offset="0.355469"/><stop stop-opacity="1" stop-color="rgb(50.105286%, 46.479797%, 97.50061%)" offset="0.359375"/><stop stop-opacity="1" stop-color="rgb(49.977112%, 46.861267%, 97.433472%)" offset="0.363281"/><stop stop-opacity="1" stop-color="rgb(49.848938%, 47.242737%, 97.366333%)" offset="0.367188"/><stop stop-opacity="1" stop-color="rgb(49.720764%, 47.622681%, 97.299194%)" offset="0.371094"/><stop stop-opacity="1" stop-color="rgb(49.59259%, 48.00415%, 97.233582%)" offset="0.375"/><stop stop-opacity="1" stop-color="rgb(49.464417%, 48.38562%, 97.166443%)" offset="0.378906"/><stop stop-opacity="1" stop-color="rgb(49.337769%, 48.76709%, 97.099304%)" offset="0.382812"/><stop stop-opacity="1" stop-color="rgb(49.209595%, 49.147034%, 97.032166%)" offset="0.386719"/><stop stop-opacity="1" stop-color="rgb(49.081421%, 49.528503%, 96.966553%)" offset="0.390625"/><stop stop-opacity="1" stop-color="rgb(48.953247%, 49.909973%, 96.899414%)" offset="0.394531"/><stop stop-opacity="1" stop-color="rgb(48.825073%, 50.291443%, 96.833801%)" offset="0.398438"/><stop stop-opacity="1" stop-color="rgb(48.696899%, 50.671387%, 96.766663%)" offset="0.402344"/><stop stop-opacity="1" stop-color="rgb(48.570251%, 51.052856%, 96.699524%)" offset="0.40625"/><stop stop-opacity="1" stop-color="rgb(48.442078%, 51.434326%, 96.632385%)" offset="0.410156"/><stop stop-opacity="1" stop-color="rgb(48.313904%, 51.815796%, 96.566772%)" offset="0.414062"/><stop stop-opacity="1" stop-color="rgb(48.18573%, 52.19574%, 96.499634%)" offset="0.417969"/><stop stop-opacity="1" stop-color="rgb(48.057556%, 52.577209%, 96.432495%)" offset="0.421875"/><stop stop-opacity="1" stop-color="rgb(47.929382%, 52.958679%, 96.365356%)" offset="0.425781"/><stop stop-opacity="1" stop-color="rgb(47.802734%, 53.340149%, 96.299744%)" offset="0.429688"/><stop stop-opacity="1" stop-color="rgb(47.674561%, 53.720093%, 96.232605%)" offset="0.433594"/><stop stop-opacity="1" stop-color="rgb(47.546387%, 54.101562%, 96.166992%)" offset="0.4375"/><stop stop-opacity="1" stop-color="rgb(47.418213%, 54.483032%, 96.099854%)" offset="0.441406"/><stop stop-opacity="1" stop-color="rgb(47.290039%, 54.864502%, 96.032715%)" offset="0.445313"/><stop stop-opacity="1" stop-color="rgb(47.161865%, 55.244446%, 95.965576%)" offset="0.449219"/><stop stop-opacity="1" stop-color="rgb(47.033691%, 55.625916%, 95.899963%)" offset="0.453125"/><stop stop-opacity="1" stop-color="rgb(46.905518%, 56.007385%, 95.832825%)" offset="0.457031"/><stop stop-opacity="1" stop-color="rgb(46.77887%, 56.388855%, 95.765686%)" offset="0.460938"/><stop stop-opacity="1" stop-color="rgb(46.650696%, 56.768799%, 95.698547%)" offset="0.464844"/><stop stop-opacity="1" stop-color="rgb(46.522522%, 57.150269%, 95.632935%)" offset="0.46875"/><stop stop-opacity="1" stop-color="rgb(46.394348%, 57.531738%, 95.565796%)" offset="0.472656"/><stop stop-opacity="1" stop-color="rgb(46.266174%, 57.913208%, 95.498657%)" offset="0.476563"/><stop stop-opacity="1" stop-color="rgb(46.138%, 58.293152%, 95.431519%)" offset="0.480469"/><stop stop-opacity="1" stop-color="rgb(46.011353%, 58.674622%, 95.365906%)" offset="0.484375"/><stop stop-opacity="1" stop-color="rgb(45.883179%, 59.056091%, 95.298767%)" offset="0.488281"/><stop stop-opacity="1" stop-color="rgb(45.755005%, 59.437561%, 95.233154%)" offset="0.492188"/><stop stop-opacity="1" stop-color="rgb(45.626831%, 59.817505%, 95.166016%)" offset="0.496094"/><stop stop-opacity="1" stop-color="rgb(45.498657%, 60.198975%, 95.098877%)" offset="0.5"/><stop stop-opacity="1" stop-color="rgb(45.370483%, 60.580444%, 95.031738%)" offset="0.503906"/><stop stop-opacity="1" stop-color="rgb(45.243835%, 60.961914%, 94.966125%)" offset="0.507812"/><stop stop-opacity="1" stop-color="rgb(45.115662%, 61.341858%, 94.898987%)" offset="0.511719"/><stop stop-opacity="1" stop-color="rgb(44.987488%, 61.723328%, 94.831848%)" offset="0.515625"/><stop stop-opacity="1" stop-color="rgb(44.859314%, 62.104797%, 94.764709%)" offset="0.519531"/><stop stop-opacity="1" stop-color="rgb(44.73114%, 62.486267%, 94.699097%)" offset="0.523438"/><stop stop-opacity="1" stop-color="rgb(44.602966%, 62.866211%, 94.631958%)" offset="0.527344"/><stop stop-opacity="1" stop-color="rgb(44.476318%, 63.247681%, 94.566345%)" offset="0.53125"/><stop stop-opacity="1" stop-color="rgb(44.348145%, 63.62915%, 94.499207%)" offset="0.535156"/><stop stop-opacity="1" stop-color="rgb(44.219971%, 64.01062%, 94.432068%)" offset="0.539062"/><stop stop-opacity="1" stop-color="rgb(44.091797%, 64.390564%, 94.364929%)" offset="0.542969"/><stop stop-opacity="1" stop-color="rgb(43.963623%, 64.772034%, 94.299316%)" offset="0.546875"/><stop stop-opacity="1" stop-color="rgb(43.835449%, 65.153503%, 94.232178%)" offset="0.550781"/><stop stop-opacity="1" stop-color="rgb(43.708801%, 65.534973%, 94.165039%)" offset="0.554687"/><stop stop-opacity="1" stop-color="rgb(43.580627%, 65.914917%, 94.0979%)" offset="0.558594"/><stop stop-opacity="1" stop-color="rgb(43.452454%, 66.296387%, 94.032288%)" offset="0.5625"/><stop stop-opacity="1" stop-color="rgb(43.32428%, 66.677856%, 93.965149%)" offset="0.566406"/><stop stop-opacity="1" stop-color="rgb(43.196106%, 67.059326%, 93.899536%)" offset="0.570312"/><stop stop-opacity="1" stop-color="rgb(43.067932%, 67.43927%, 93.832397%)" offset="0.574219"/><stop stop-opacity="1" stop-color="rgb(42.941284%, 67.82074%, 93.765259%)" offset="0.578125"/><stop stop-opacity="1" stop-color="rgb(42.81311%, 68.202209%, 93.69812%)" offset="0.582031"/><stop stop-opacity="1" stop-color="rgb(42.684937%, 68.583679%, 93.632507%)" offset="0.585938"/><stop stop-opacity="1" stop-color="rgb(42.556763%, 68.963623%, 93.565369%)" offset="0.589844"/><stop stop-opacity="1" stop-color="rgb(42.428589%, 69.345093%, 93.49823%)" offset="0.59375"/><stop stop-opacity="1" stop-color="rgb(42.300415%, 69.726562%, 93.431091%)" offset="0.597656"/><stop stop-opacity="1" stop-color="rgb(42.172241%, 70.108032%, 93.365479%)" offset="0.601562"/><stop stop-opacity="1" stop-color="rgb(42.044067%, 70.487976%, 93.29834%)" offset="0.605469"/><stop stop-opacity="1" stop-color="rgb(41.917419%, 70.869446%, 93.231201%)" offset="0.609375"/><stop stop-opacity="1" stop-color="rgb(41.789246%, 71.24939%, 93.164062%)" offset="0.613281"/><stop stop-opacity="1" stop-color="rgb(41.661072%, 71.630859%, 93.09845%)" offset="0.617188"/><stop stop-opacity="1" stop-color="rgb(41.532898%, 72.012329%, 93.031311%)" offset="0.621094"/><stop stop-opacity="1" stop-color="rgb(41.404724%, 72.393799%, 92.965698%)" offset="0.625"/><stop stop-opacity="1" stop-color="rgb(41.27655%, 72.773743%, 92.89856%)" offset="0.628906"/><stop stop-opacity="1" stop-color="rgb(41.149902%, 73.155212%, 92.831421%)" offset="0.632812"/><stop stop-opacity="1" stop-color="rgb(41.021729%, 73.536682%, 92.764282%)" offset="0.636719"/><stop stop-opacity="1" stop-color="rgb(40.893555%, 73.918152%, 92.698669%)" offset="0.640625"/><stop stop-opacity="1" stop-color="rgb(40.765381%, 74.298096%, 92.631531%)" offset="0.644531"/><stop stop-opacity="1" stop-color="rgb(40.637207%, 74.679565%, 92.564392%)" offset="0.648437"/><stop stop-opacity="1" stop-color="rgb(40.509033%, 75.061035%, 92.497253%)" offset="0.652344"/><stop stop-opacity="1" stop-color="rgb(40.382385%, 75.442505%, 92.431641%)" offset="0.65625"/><stop stop-opacity="1" stop-color="rgb(40.254211%, 75.822449%, 92.364502%)" offset="0.660156"/><stop stop-opacity="1" stop-color="rgb(40.126038%, 76.203918%, 92.298889%)" offset="0.664062"/><stop stop-opacity="1" stop-color="rgb(39.997864%, 76.585388%, 92.23175%)" offset="0.667969"/><stop stop-opacity="1" stop-color="rgb(39.86969%, 76.966858%, 92.164612%)" offset="0.671875"/><stop stop-opacity="1" stop-color="rgb(39.741516%, 77.346802%, 92.097473%)" offset="0.675781"/><stop stop-opacity="1" stop-color="rgb(39.614868%, 77.728271%, 92.03186%)" offset="0.679688"/><stop stop-opacity="1" stop-color="rgb(39.486694%, 78.109741%, 91.964722%)" offset="0.683594"/><stop stop-opacity="1" stop-color="rgb(39.358521%, 78.491211%, 91.897583%)" offset="0.6875"/><stop stop-opacity="1" stop-color="rgb(39.230347%, 78.871155%, 91.830444%)" offset="0.691406"/><stop stop-opacity="1" stop-color="rgb(39.102173%, 79.252625%, 91.764832%)" offset="0.695312"/><stop stop-opacity="1" stop-color="rgb(38.973999%, 79.634094%, 91.697693%)" offset="0.699219"/><stop stop-opacity="1" stop-color="rgb(38.847351%, 80.015564%, 91.63208%)" offset="0.703125"/><stop stop-opacity="1" stop-color="rgb(38.719177%, 80.395508%, 91.564941%)" offset="0.707031"/><stop stop-opacity="1" stop-color="rgb(38.591003%, 80.776978%, 91.497803%)" offset="0.710938"/><stop stop-opacity="1" stop-color="rgb(38.46283%, 81.158447%, 91.430664%)" offset="0.714844"/><stop stop-opacity="1" stop-color="rgb(38.334656%, 81.539917%, 91.365051%)" offset="0.71875"/><stop stop-opacity="1" stop-color="rgb(38.206482%, 81.919861%, 91.297913%)" offset="0.722656"/><stop stop-opacity="1" stop-color="rgb(38.079834%, 82.301331%, 91.230774%)" offset="0.726562"/><stop stop-opacity="1" stop-color="rgb(37.95166%, 82.6828%, 91.163635%)" offset="0.730469"/><stop stop-opacity="1" stop-color="rgb(37.823486%, 83.06427%, 91.098022%)" offset="0.734375"/><stop stop-opacity="1" stop-color="rgb(37.695312%, 83.444214%, 91.030884%)" offset="0.738281"/><stop stop-opacity="1" stop-color="rgb(37.567139%, 83.825684%, 90.965271%)" offset="0.742188"/><stop stop-opacity="1" stop-color="rgb(37.438965%, 84.207153%, 90.898132%)" offset="0.746094"/><stop stop-opacity="1" stop-color="rgb(37.310791%, 84.588623%, 90.830994%)" offset="0.75"/><stop stop-opacity="1" stop-color="rgb(37.182617%, 84.968567%, 90.763855%)" offset="0.753906"/><stop stop-opacity="1" stop-color="rgb(37.055969%, 85.350037%, 90.698242%)" offset="0.757812"/><stop stop-opacity="1" stop-color="rgb(36.927795%, 85.731506%, 90.631104%)" offset="0.761719"/><stop stop-opacity="1" stop-color="rgb(36.799622%, 86.112976%, 90.563965%)" offset="0.765625"/><stop stop-opacity="1" stop-color="rgb(36.671448%, 86.49292%, 90.496826%)" offset="0.769531"/><stop stop-opacity="1" stop-color="rgb(36.543274%, 86.87439%, 90.431213%)" offset="0.773438"/><stop stop-opacity="1" stop-color="rgb(36.4151%, 87.255859%, 90.364075%)" offset="0.777344"/><stop stop-opacity="1" stop-color="rgb(36.288452%, 87.637329%, 90.296936%)" offset="0.78125"/><stop stop-opacity="1" stop-color="rgb(36.193848%, 87.918091%, 90.248108%)" offset="0.785156"/><stop stop-opacity="1" stop-color="rgb(36.099243%, 88.198853%, 90.19928%)" offset="0.789062"/><stop stop-opacity="1" stop-color="rgb(36.099243%, 88.198853%, 90.19928%)" offset="0.796875"/><stop stop-opacity="1" stop-color="rgb(36.099243%, 88.198853%, 90.19928%)" offset="0.8125"/><stop stop-opacity="1" stop-color="rgb(36.099243%, 88.198853%, 90.19928%)" offset="0.875"/><stop stop-opacity="1" stop-color="rgb(36.099243%, 88.198853%, 90.19928%)" offset="1"/></linearGradient></defs><g fill="#ffffff" fill-opacity="1"><g transform="translate(19.735045, 344.094058)"><g><path d="M 16.828125 -6.875 L 4.5 -6.875 L 1.875 0 L 1.0625 0 L 10.3125 -24.203125 L 11.015625 -24.203125 L 20.234375 0 L 19.421875 0 Z M 16.578125 -7.515625 L 10.671875 -23.0625 L 4.75 -7.515625 Z M 16.578125 -7.515625 "/></g></g></g><g fill="#ffffff" fill-opacity="1"><g transform="translate(41.029804, 344.094058)"><g><path d="M 3.71875 -26.21875 L 3.71875 0 L 3.015625 0 L 3.015625 -26.21875 Z M 3.71875 -26.21875 "/></g></g></g><g fill="#ffffff" fill-opacity="1"><g transform="translate(47.761925, 344.094058)"><g><path d="M 11.34375 -0.390625 C 13.488281 -0.390625 15.289062 -0.929688 16.75 -2.015625 C 18.21875 -3.109375 19.109375 -4.597656 19.421875 -6.484375 L 20.125 -6.484375 C 19.789062 -4.472656 18.847656 -2.847656 17.296875 -1.609375 C 15.753906 -0.367188 13.769531 0.25 11.34375 0.25 C 9.570312 0.25 7.988281 -0.140625 6.59375 -0.921875 C 5.195312 -1.703125 4.101562 -2.835938 3.3125 -4.328125 C 2.519531 -5.816406 2.125 -7.5625 2.125 -9.5625 C 2.125 -11.570312 2.519531 -13.320312 3.3125 -14.8125 C 4.101562 -16.300781 5.195312 -17.4375 6.59375 -18.21875 C 7.988281 -19 9.570312 -19.390625 11.34375 -19.390625 C 13.207031 -19.390625 14.800781 -18.992188 16.125 -18.203125 C 17.445312 -17.410156 18.441406 -16.382812 19.109375 -15.125 C 19.785156 -13.875 20.125 -12.550781 20.125 -11.15625 C 20.125 -10.3125 20.113281 -9.675781 20.09375 -9.25 L 2.828125 -9.25 C 2.859375 -7.289062 3.269531 -5.648438 4.0625 -4.328125 C 4.851562 -3.003906 5.882812 -2.015625 7.15625 -1.359375 C 8.4375 -0.710938 9.832031 -0.390625 11.34375 -0.390625 Z M 11.34375 -18.75 C 9.832031 -18.75 8.4375 -18.421875 7.15625 -17.765625 C 5.882812 -17.117188 4.851562 -16.132812 4.0625 -14.8125 C 3.269531 -13.488281 2.859375 -11.847656 2.828125 -9.890625 L 19.484375 -9.890625 C 19.609375 -11.847656 19.296875 -13.488281 18.546875 -14.8125 C 17.804688 -16.132812 16.789062 -17.117188 15.5 -17.765625 C 14.21875 -18.421875 12.832031 -18.75 11.34375 -18.75 Z M 11.34375 -18.75 "/></g></g></g><g fill="#ffffff" fill-opacity="1"><g transform="translate(70.013368, 344.094058)"><g><path d="M 3.71875 -24.03125 C 3.457031 -24.03125 3.238281 -24.117188 3.0625 -24.296875 C 2.882812 -24.472656 2.796875 -24.703125 2.796875 -24.984375 C 2.796875 -25.265625 2.882812 -25.492188 3.0625 -25.671875 C 3.238281 -25.847656 3.457031 -25.9375 3.71875 -25.9375 C 3.976562 -25.9375 4.195312 -25.847656 4.375 -25.671875 C 4.550781 -25.492188 4.640625 -25.265625 4.640625 -24.984375 C 4.640625 -24.703125 4.550781 -24.472656 4.375 -24.296875 C 4.195312 -24.117188 3.976562 -24.03125 3.71875 -24.03125 Z M 4.078125 5.390625 C 4.078125 6.546875 3.789062 7.4375 3.21875 8.0625 C 2.65625 8.6875 1.710938 9 0.390625 9 L -0.890625 9 L -0.890625 8.296875 L 0.390625 8.296875 C 1.429688 8.296875 2.1875 8.0625 2.65625 7.59375 C 3.125 7.132812 3.359375 6.328125 3.359375 5.171875 L 3.359375 -19.140625 L 4.078125 -19.140625 Z M 4.078125 5.390625 "/></g></g></g><g fill="#ffffff" fill-opacity="1"><g transform="translate(77.099823, 344.094058)"><g><path d="M 2.125 -9.5625 C 2.125 -11.570312 2.515625 -13.316406 3.296875 -14.796875 C 4.078125 -16.273438 5.175781 -17.410156 6.59375 -18.203125 C 8.007812 -18.992188 9.628906 -19.390625 11.453125 -19.390625 C 13.640625 -19.390625 15.492188 -18.816406 17.015625 -17.671875 C 18.546875 -16.523438 19.570312 -15.066406 20.09375 -13.296875 L 20.09375 -19.140625 L 20.765625 -19.140625 L 20.765625 0 L 20.09375 0 L 20.09375 -5.84375 C 19.570312 -4.070312 18.546875 -2.613281 17.015625 -1.46875 C 15.492188 -0.320312 13.640625 0.25 11.453125 0.25 C 9.628906 0.25 8.007812 -0.144531 6.59375 -0.9375 C 5.175781 -1.726562 4.078125 -2.863281 3.296875 -4.34375 C 2.515625 -5.820312 2.125 -7.5625 2.125 -9.5625 Z M 20.09375 -9.5625 C 20.09375 -11.382812 19.71875 -12.984375 18.96875 -14.359375 C 18.226562 -15.742188 17.203125 -16.820312 15.890625 -17.59375 C 14.578125 -18.363281 13.097656 -18.75 11.453125 -18.75 C 9.703125 -18.75 8.179688 -18.378906 6.890625 -17.640625 C 5.609375 -16.910156 4.609375 -15.851562 3.890625 -14.46875 C 3.179688 -13.09375 2.828125 -11.457031 2.828125 -9.5625 C 2.828125 -7.675781 3.179688 -6.039062 3.890625 -4.65625 C 4.609375 -3.28125 5.609375 -2.222656 6.890625 -1.484375 C 8.179688 -0.753906 9.703125 -0.390625 11.453125 -0.390625 C 13.097656 -0.390625 14.578125 -0.769531 15.890625 -1.53125 C 17.203125 -2.300781 18.226562 -3.378906 18.96875 -4.765625 C 19.71875 -6.148438 20.09375 -7.75 20.09375 -9.5625 Z M 20.09375 -9.5625 "/></g></g></g><g fill="#ffffff" fill-opacity="1"><g transform="translate(100.874846, 344.094058)"><g><path d="M 11.234375 -19.5625 C 13.472656 -19.5625 15.3125 -18.863281 16.75 -17.46875 C 18.195312 -16.070312 18.921875 -13.96875 18.921875 -11.15625 L 18.921875 0 L 18.25 0 L 18.25 -11.234375 C 18.25 -13.734375 17.625 -15.640625 16.375 -16.953125 C 15.125 -18.265625 13.410156 -18.921875 11.234375 -18.921875 C 8.960938 -18.921875 7.140625 -18.179688 5.765625 -16.703125 C 4.398438 -15.234375 3.71875 -13.054688 3.71875 -10.171875 L 3.71875 0 L 3.015625 0 L 3.015625 -19.140625 L 3.71875 -19.140625 L 3.71875 -14.109375 C 4.164062 -15.878906 5.0625 -17.226562 6.40625 -18.15625 C 7.757812 -19.09375 9.367188 -19.5625 11.234375 -19.5625 Z M 11.234375 -19.5625 "/></g></g></g><g fill="#ffffff" fill-opacity="1"><g transform="translate(122.63024, 344.094058)"><g><path d="M 2.125 -9.5625 C 2.125 -11.570312 2.515625 -13.316406 3.296875 -14.796875 C 4.078125 -16.273438 5.175781 -17.410156 6.59375 -18.203125 C 8.007812 -18.992188 9.628906 -19.390625 11.453125 -19.390625 C 13.640625 -19.390625 15.492188 -18.816406 17.015625 -17.671875 C 18.546875 -16.523438 19.570312 -15.066406 20.09375 -13.296875 L 20.09375 -26.21875 L 20.765625 -26.21875 L 20.765625 0 L 20.09375 0 L 20.09375 -5.875 C 19.570312 -4.082031 18.546875 -2.613281 17.015625 -1.46875 C 15.492188 -0.320312 13.640625 0.25 11.453125 0.25 C 9.628906 0.25 8.007812 -0.144531 6.59375 -0.9375 C 5.175781 -1.726562 4.078125 -2.863281 3.296875 -4.34375 C 2.515625 -5.820312 2.125 -7.5625 2.125 -9.5625 Z M 20.09375 -9.5625 C 20.09375 -11.382812 19.71875 -12.984375 18.96875 -14.359375 C 18.226562 -15.742188 17.203125 -16.820312 15.890625 -17.59375 C 14.578125 -18.363281 13.097656 -18.75 11.453125 -18.75 C 9.703125 -18.75 8.179688 -18.378906 6.890625 -17.640625 C 5.609375 -16.910156 4.609375 -15.851562 3.890625 -14.46875 C 3.179688 -13.09375 2.828125 -11.457031 2.828125 -9.5625 C 2.828125 -7.675781 3.179688 -6.039062 3.890625 -4.65625 C 4.609375 -3.28125 5.609375 -2.222656 6.890625 -1.484375 C 8.179688 -0.753906 9.703125 -0.390625 11.453125 -0.390625 C 13.097656 -0.390625 14.578125 -0.769531 15.890625 -1.53125 C 17.203125 -2.300781 18.226562 -3.378906 18.96875 -4.765625 C 19.71875 -6.148438 20.09375 -7.75 20.09375 -9.5625 Z M 20.09375 -9.5625 "/></g></g></g><g fill="#ffffff" fill-opacity="1"><g transform="translate(146.405263, 344.094058)"><g><path d="M 3.71875 -14.5 C 4.476562 -17.875 6.992188 -19.5625 11.265625 -19.5625 L 11.265625 -18.78125 L 10.953125 -18.78125 C 8.941406 -18.78125 7.234375 -18.195312 5.828125 -17.03125 C 4.421875 -15.863281 3.71875 -13.976562 3.71875 -11.375 L 3.71875 0 L 3.015625 0 L 3.015625 -19.140625 L 3.71875 -19.140625 Z M 3.71875 -14.5 "/></g></g></g><g fill="#ffffff" fill-opacity="1"><g transform="translate(158.381358, 344.094058)"><g><path d="M 2.125 -9.5625 C 2.125 -11.570312 2.515625 -13.316406 3.296875 -14.796875 C 4.078125 -16.273438 5.175781 -17.410156 6.59375 -18.203125 C 8.007812 -18.992188 9.628906 -19.390625 11.453125 -19.390625 C 13.640625 -19.390625 15.492188 -18.816406 17.015625 -17.671875 C 18.546875 -16.523438 19.570312 -15.066406 20.09375 -13.296875 L 20.09375 -19.140625 L 20.765625 -19.140625 L 20.765625 0 L 20.09375 0 L 20.09375 -5.84375 C 19.570312 -4.070312 18.546875 -2.613281 17.015625 -1.46875 C 15.492188 -0.320312 13.640625 0.25 11.453125 0.25 C 9.628906 0.25 8.007812 -0.144531 6.59375 -0.9375 C 5.175781 -1.726562 4.078125 -2.863281 3.296875 -4.34375 C 2.515625 -5.820312 2.125 -7.5625 2.125 -9.5625 Z M 20.09375 -9.5625 C 20.09375 -11.382812 19.71875 -12.984375 18.96875 -14.359375 C 18.226562 -15.742188 17.203125 -16.820312 15.890625 -17.59375 C 14.578125 -18.363281 13.097656 -18.75 11.453125 -18.75 C 9.703125 -18.75 8.179688 -18.378906 6.890625 -17.640625 C 5.609375 -16.910156 4.609375 -15.851562 3.890625 -14.46875 C 3.179688 -13.09375 2.828125 -11.457031 2.828125 -9.5625 C 2.828125 -7.675781 3.179688 -6.039062 3.890625 -4.65625 C 4.609375 -3.28125 5.609375 -2.222656 6.890625 -1.484375 C 8.179688 -0.753906 9.703125 -0.390625 11.453125 -0.390625 C 13.097656 -0.390625 14.578125 -0.769531 15.890625 -1.53125 C 17.203125 -2.300781 18.226562 -3.378906 18.96875 -4.765625 C 19.71875 -6.148438 20.09375 -7.75 20.09375 -9.5625 Z M 20.09375 -9.5625 "/></g></g></g><g fill="#ffffff" fill-opacity="1"><g transform="translate(182.15638, 344.094058)"><g/></g></g><g fill="#ffffff" fill-opacity="1"><g transform="translate(192.431728, 344.094058)"><g><path d="M 2.125 -12.4375 C 2.125 -14.914062 2.617188 -17.117188 3.609375 -19.046875 C 4.609375 -20.972656 5.992188 -22.476562 7.765625 -23.5625 C 9.535156 -24.65625 11.53125 -25.203125 13.75 -25.203125 C 16.65625 -25.203125 19.054688 -24.523438 20.953125 -23.171875 C 22.859375 -21.828125 24.25 -19.960938 25.125 -17.578125 L 24.421875 -17.578125 C 23.660156 -19.679688 22.367188 -21.367188 20.546875 -22.640625 C 18.734375 -23.921875 16.46875 -24.5625 13.75 -24.5625 C 11.71875 -24.5625 9.875 -24.066406 8.21875 -23.078125 C 6.5625 -22.097656 5.253906 -20.691406 4.296875 -18.859375 C 3.347656 -17.035156 2.875 -14.894531 2.875 -12.4375 C 2.875 -10 3.347656 -7.867188 4.296875 -6.046875 C 5.253906 -4.234375 6.566406 -2.835938 8.234375 -1.859375 C 9.898438 -0.878906 11.738281 -0.390625 13.75 -0.390625 C 16.46875 -0.390625 18.734375 -1.019531 20.546875 -2.28125 C 22.367188 -3.550781 23.660156 -5.234375 24.421875 -7.328125 L 25.125 -7.328125 C 24.25 -4.941406 22.859375 -3.082031 20.953125 -1.75 C 19.054688 -0.414062 16.65625 0.25 13.75 0.25 C 11.53125 0.25 9.535156 -0.285156 7.765625 -1.359375 C 5.992188 -2.441406 4.609375 -3.941406 3.609375 -5.859375 C 2.617188 -7.785156 2.125 -9.976562 2.125 -12.4375 Z M 2.125 -12.4375 "/></g></g></g><g fill="#ffffff" fill-opacity="1"><g transform="translate(219.679112, 344.094058)"><g><path d="M 2.125 -9.5625 C 2.125 -11.570312 2.515625 -13.316406 3.296875 -14.796875 C 4.078125 -16.273438 5.175781 -17.410156 6.59375 -18.203125 C 8.007812 -18.992188 9.628906 -19.390625 11.453125 -19.390625 C 13.640625 -19.390625 15.492188 -18.816406 17.015625 -17.671875 C 18.546875 -16.523438 19.570312 -15.066406 20.09375 -13.296875 L 20.09375 -19.140625 L 20.765625 -19.140625 L 20.765625 0 L 20.09375 0 L 20.09375 -5.84375 C 19.570312 -4.070312 18.546875 -2.613281 17.015625 -1.46875 C 15.492188 -0.320312 13.640625 0.25 11.453125 0.25 C 9.628906 0.25 8.007812 -0.144531 6.59375 -0.9375 C 5.175781 -1.726562 4.078125 -2.863281 3.296875 -4.34375 C 2.515625 -5.820312 2.125 -7.5625 2.125 -9.5625 Z M 20.09375 -9.5625 C 20.09375 -11.382812 19.71875 -12.984375 18.96875 -14.359375 C 18.226562 -15.742188 17.203125 -16.820312 15.890625 -17.59375 C 14.578125 -18.363281 13.097656 -18.75 11.453125 -18.75 C 9.703125 -18.75 8.179688 -18.378906 6.890625 -17.640625 C 5.609375 -16.910156 4.609375 -15.851562 3.890625 -14.46875 C 3.179688 -13.09375 2.828125 -11.457031 2.828125 -9.5625 C 2.828125 -7.675781 3.179688 -6.039062 3.890625 -4.65625 C 4.609375 -3.28125 5.609375 -2.222656 6.890625 -1.484375 C 8.179688 -0.753906 9.703125 -0.390625 11.453125 -0.390625 C 13.097656 -0.390625 14.578125 -0.769531 15.890625 -1.53125 C 17.203125 -2.300781 18.226562 -3.378906 18.96875 -4.765625 C 19.71875 -6.148438 20.09375 -7.75 20.09375 -9.5625 Z M 20.09375 -9.5625 "/></g></g></g><g fill="#ffffff" fill-opacity="1"><g transform="translate(243.454134, 344.094058)"><g><path d="M 11.234375 -19.5625 C 13.472656 -19.5625 15.3125 -18.863281 16.75 -17.46875 C 18.195312 -16.070312 18.921875 -13.96875 18.921875 -11.15625 L 18.921875 0 L 18.25 0 L 18.25 -11.234375 C 18.25 -13.734375 17.625 -15.640625 16.375 -16.953125 C 15.125 -18.265625 13.410156 -18.921875 11.234375 -18.921875 C 8.960938 -18.921875 7.140625 -18.179688 5.765625 -16.703125 C 4.398438 -15.234375 3.71875 -13.054688 3.71875 -10.171875 L 3.71875 0 L 3.015625 0 L 3.015625 -19.140625 L 3.71875 -19.140625 L 3.71875 -14.109375 C 4.164062 -15.878906 5.0625 -17.226562 6.40625 -18.15625 C 7.757812 -19.09375 9.367188 -19.5625 11.234375 -19.5625 Z M 11.234375 -19.5625 "/></g></g></g><g fill="#ffffff" fill-opacity="1"><g transform="translate(265.209528, 344.094058)"><g><path d="M 2.125 -9.5625 C 2.125 -11.570312 2.515625 -13.316406 3.296875 -14.796875 C 4.078125 -16.273438 5.175781 -17.410156 6.59375 -18.203125 C 8.007812 -18.992188 9.628906 -19.390625 11.453125 -19.390625 C 13.640625 -19.390625 15.492188 -18.816406 17.015625 -17.671875 C 18.546875 -16.523438 19.570312 -15.066406 20.09375 -13.296875 L 20.09375 -19.140625 L 20.765625 -19.140625 L 20.765625 0 L 20.09375 0 L 20.09375 -5.84375 C 19.570312 -4.070312 18.546875 -2.613281 17.015625 -1.46875 C 15.492188 -0.320312 13.640625 0.25 11.453125 0.25 C 9.628906 0.25 8.007812 -0.144531 6.59375 -0.9375 C 5.175781 -1.726562 4.078125 -2.863281 3.296875 -4.34375 C 2.515625 -5.820312 2.125 -7.5625 2.125 -9.5625 Z M 20.09375 -9.5625 C 20.09375 -11.382812 19.71875 -12.984375 18.96875 -14.359375 C 18.226562 -15.742188 17.203125 -16.820312 15.890625 -17.59375 C 14.578125 -18.363281 13.097656 -18.75 11.453125 -18.75 C 9.703125 -18.75 8.179688 -18.378906 6.890625 -17.640625 C 5.609375 -16.910156 4.609375 -15.851562 3.890625 -14.46875 C 3.179688 -13.09375 2.828125 -11.457031 2.828125 -9.5625 C 2.828125 -7.675781 3.179688 -6.039062 3.890625 -4.65625 C 4.609375 -3.28125 5.609375 -2.222656 6.890625 -1.484375 C 8.179688 -0.753906 9.703125 -0.390625 11.453125 -0.390625 C 13.097656 -0.390625 14.578125 -0.769531 15.890625 -1.53125 C 17.203125 -2.300781 18.226562 -3.378906 18.96875 -4.765625 C 19.71875 -6.148438 20.09375 -7.75 20.09375 -9.5625 Z M 20.09375 -9.5625 "/></g></g></g><g fill="#ffffff" fill-opacity="1"><g transform="translate(288.984551, 344.094058)"><g><path d="M 2.125 -9.5625 C 2.125 -11.570312 2.519531 -13.320312 3.3125 -14.8125 C 4.101562 -16.300781 5.195312 -17.4375 6.59375 -18.21875 C 7.988281 -19 9.570312 -19.390625 11.34375 -19.390625 C 13.769531 -19.390625 15.753906 -18.765625 17.296875 -17.515625 C 18.847656 -16.273438 19.789062 -14.65625 20.125 -12.65625 L 19.421875 -12.65625 C 19.109375 -14.539062 18.21875 -16.023438 16.75 -17.109375 C 15.289062 -18.203125 13.488281 -18.75 11.34375 -18.75 C 9.800781 -18.75 8.382812 -18.410156 7.09375 -17.734375 C 5.8125 -17.054688 4.78125 -16.03125 4 -14.65625 C 3.21875 -13.289062 2.828125 -11.59375 2.828125 -9.5625 C 2.828125 -7.53125 3.21875 -5.828125 4 -4.453125 C 4.78125 -3.085938 5.8125 -2.066406 7.09375 -1.390625 C 8.382812 -0.722656 9.800781 -0.390625 11.34375 -0.390625 C 13.488281 -0.390625 15.289062 -0.929688 16.75 -2.015625 C 18.21875 -3.109375 19.109375 -4.597656 19.421875 -6.484375 L 20.125 -6.484375 C 19.789062 -4.472656 18.847656 -2.847656 17.296875 -1.609375 C 15.753906 -0.367188 13.769531 0.25 11.34375 0.25 C 9.570312 0.25 7.988281 -0.140625 6.59375 -0.921875 C 5.195312 -1.703125 4.101562 -2.835938 3.3125 -4.328125 C 2.519531 -5.816406 2.125 -7.5625 2.125 -9.5625 Z M 2.125 -9.5625 "/></g></g></g><g fill="#ffffff" fill-opacity="1"><g transform="translate(311.235994, 344.094058)"><g><path d="M 11.234375 -19.5625 C 13.472656 -19.5625 15.3125 -18.863281 16.75 -17.46875 C 18.195312 -16.070312 18.921875 -13.96875 18.921875 -11.15625 L 18.921875 0 L 18.25 0 L 18.25 -11.234375 C 18.25 -13.734375 17.625 -15.640625 16.375 -16.953125 C 15.125 -18.265625 13.410156 -18.921875 11.234375 -18.921875 C 8.960938 -18.921875 7.140625 -18.179688 5.765625 -16.703125 C 4.398438 -15.234375 3.71875 -13.054688 3.71875 -10.171875 L 3.71875 0 L 3.015625 0 L 3.015625 -26.21875 L 3.71875 -26.21875 L 3.71875 -14.109375 C 4.164062 -15.878906 5.0625 -17.226562 6.40625 -18.15625 C 7.757812 -19.09375 9.367188 -19.5625 11.234375 -19.5625 Z M 11.234375 -19.5625 "/></g></g></g><g fill="#ffffff" fill-opacity="1"><g transform="translate(332.991389, 344.094058)"><g><path d="M 11.34375 -0.390625 C 13.488281 -0.390625 15.289062 -0.929688 16.75 -2.015625 C 18.21875 -3.109375 19.109375 -4.597656 19.421875 -6.484375 L 20.125 -6.484375 C 19.789062 -4.472656 18.847656 -2.847656 17.296875 -1.609375 C 15.753906 -0.367188 13.769531 0.25 11.34375 0.25 C 9.570312 0.25 7.988281 -0.140625 6.59375 -0.921875 C 5.195312 -1.703125 4.101562 -2.835938 3.3125 -4.328125 C 2.519531 -5.816406 2.125 -7.5625 2.125 -9.5625 C 2.125 -11.570312 2.519531 -13.320312 3.3125 -14.8125 C 4.101562 -16.300781 5.195312 -17.4375 6.59375 -18.21875 C 7.988281 -19 9.570312 -19.390625 11.34375 -19.390625 C 13.207031 -19.390625 14.800781 -18.992188 16.125 -18.203125 C 17.445312 -17.410156 18.441406 -16.382812 19.109375 -15.125 C 19.785156 -13.875 20.125 -12.550781 20.125 -11.15625 C 20.125 -10.3125 20.113281 -9.675781 20.09375 -9.25 L 2.828125 -9.25 C 2.859375 -7.289062 3.269531 -5.648438 4.0625 -4.328125 C 4.851562 -3.003906 5.882812 -2.015625 7.15625 -1.359375 C 8.4375 -0.710938 9.832031 -0.390625 11.34375 -0.390625 Z M 11.34375 -18.75 C 9.832031 -18.75 8.4375 -18.421875 7.15625 -17.765625 C 5.882812 -17.117188 4.851562 -16.132812 4.0625 -14.8125 C 3.269531 -13.488281 2.859375 -11.847656 2.828125 -9.890625 L 19.484375 -9.890625 C 19.609375 -11.847656 19.296875 -13.488281 18.546875 -14.8125 C 17.804688 -16.132812 16.789062 -17.117188 15.5 -17.765625 C 14.21875 -18.421875 12.832031 -18.75 11.34375 -18.75 Z M 11.34375 -18.75 "/></g></g></g><g fill="#ffffff" fill-opacity="1"><g transform="translate(50.721848, 211.362687)"><g><path d="M 8.679688 0 C 8.421875 0.253906 8.679688 0.765625 8.933594 0.765625 C 9.1875 0.765625 9.1875 0.765625 9.1875 0.765625 C 9.445312 0.765625 9.699219 0.511719 9.953125 0.253906 L 53.855469 -140.890625 L 97.757812 0.253906 C 98.011719 0.511719 98.265625 0.765625 98.523438 0.765625 L 120.21875 0.765625 C 120.21875 0.765625 120.472656 0.765625 120.726562 0.511719 C 120.726562 0.253906 120.726562 0.253906 120.726562 0 L 65.339844 -178.15625 C 65.085938 -178.414062 65.085938 -178.414062 65.085938 -178.414062 C 65.085938 -178.414062 65.085938 -178.414062 64.832031 -178.414062 C 64.832031 -178.414062 64.832031 -178.667969 64.574219 -178.667969 C 64.574219 -178.667969 64.574219 -178.414062 64.574219 -178.414062 C 64.320312 -178.414062 64.320312 -178.414062 64.320312 -178.414062 C 64.320312 -178.414062 64.320312 -178.414062 64.066406 -178.15625 L 53.089844 -143.1875 Z M 8.679688 0 "/></g></g></g><g fill="#ffffff" fill-opacity="1"><g transform="translate(140.116428, 291.636968)"><g><path d="M 98.265625 0.765625 C 122.257812 0.765625 144.71875 -8.421875 161.566406 -25.523438 C 161.820312 -25.777344 161.820312 -26.035156 161.566406 -26.542969 C 161.3125 -26.800781 160.800781 -26.800781 160.546875 -26.542969 C 143.953125 -9.699219 121.75 -0.511719 98.265625 -0.511719 C 61.003906 -0.511719 30.628906 -40.074219 30.628906 -88.824219 C 30.628906 -137.574219 61.003906 -177.136719 98.265625 -177.136719 C 121.75 -177.136719 143.953125 -167.949219 160.546875 -151.355469 C 160.800781 -151.101562 161.3125 -151.101562 161.566406 -151.355469 C 161.820312 -151.613281 161.820312 -152.121094 161.566406 -152.378906 C 144.71875 -169.222656 122.257812 -178.414062 98.265625 -178.414062 C 74.273438 -178.414062 51.8125 -169.222656 34.710938 -152.378906 C -0.253906 -117.410156 -0.253906 -60.492188 34.710938 -25.523438 C 51.8125 -8.421875 74.273438 0.765625 98.265625 0.765625 Z M 98.265625 0.765625 "/></g></g></g><g clip-path="url(#575faefd28)"><g clip-path="url(#42951d6f52)"><g clip-path="url(#e3d473d14c)"><g clip-path="url(#b52330daa9)"><path fill="url(#8bd320db38)" d="M 104.949219 75.960938 L 114.980469 106.5 L 143.824219 97.023438 L 133.792969 66.488281 Z M 104.949219 75.960938 " fill-rule="nonzero"/></g></g></g></g></svg>